<svg width="12" height="16" viewBox="0 0 12 16" fill="none" xmlns="http://www.w3.org/2000/svg">
<path d="M11.376 8.41534L0.777 15.4813C0.701706 15.5314 0.61423 15.5602 0.523891 15.5645C0.433553 15.5688 0.343733 15.5486 0.263999 15.5059C0.184265 15.4632 0.117604 15.3997 0.0711136 15.3221C0.0246236 15.2445 4.67204e-05 15.1558 0 15.0653V0.933336C4.67204e-05 0.842894 0.0246236 0.754158 0.0711136 0.676579C0.117604 0.599 0.184265 0.535484 0.263999 0.492795C0.343733 0.450106 0.433553 0.429843 0.523891 0.434165C0.61423 0.438487 0.701706 0.467231 0.777 0.517336L11.376 7.58334C11.4445 7.629 11.5006 7.69086 11.5395 7.76343C11.5783 7.836 11.5986 7.91703 11.5986 7.99934C11.5986 8.08164 11.5783 8.16267 11.5395 8.23524C11.5006 8.30781 11.4445 8.36967 11.376 8.41534Z" fill="white"/>
</svg>
