<svg width="67" height="66" viewBox="0 0 67 66" fill="none" xmlns="http://www.w3.org/2000/svg">
<path d="M54.6606 0H66.1333V11.6016H54.6606V0Z" fill="white" fill-opacity="0.25"/>
<path d="M27.7637 0H39.2363V11.6016H27.7637V0Z" fill="white" fill-opacity="0.25"/>
<path d="M0.866699 0H12.3394V11.6016H0.866699V0Z" fill="white" fill-opacity="0.25"/>
<path d="M54.6606 27.1992H66.1333V38.8008H54.6606V27.1992Z" fill="white" fill-opacity="0.25"/>
<path d="M0.866699 27.1992H12.3394V38.8008H0.866699V27.1992Z" fill="white" fill-opacity="0.25"/>
<path d="M54.6606 54.3984H66.1333V66H54.6606V54.3984Z" fill="white" fill-opacity="0.25"/>
<path d="M27.7637 54.3984H39.2363V66H27.7637V54.3984Z" fill="white" fill-opacity="0.25"/>
<path d="M0.866699 54.3984H12.3394V66H0.866699V54.3984Z" fill="white" fill-opacity="0.25"/>
<path d="M35.4121 27.1992H31.5879V31.0664H27.7637V34.9336H31.5879V38.8008H35.4121V34.9336H39.2363V31.0664H35.4121V27.1992Z" fill="white" fill-opacity="0.25"/>
<path d="M58.4849 42.668H62.3091V50.5312H58.4849V42.668Z" fill="white" fill-opacity="0.25"/>
<path d="M43.0605 58.2656H50.8365V62.1328H43.0605V58.2656Z" fill="white" fill-opacity="0.25"/>
<path d="M16.1636 58.2656H23.9395V62.1328H16.1636V58.2656Z" fill="white" fill-opacity="0.25"/>
<path d="M4.69092 42.668H8.51514V50.5312H4.69092V42.668Z" fill="white" fill-opacity="0.25"/>
<path d="M4.69092 15.4688H8.51514V23.332H4.69092V15.4688Z" fill="white" fill-opacity="0.25"/>
<path d="M16.1636 3.86719H23.9395V7.73438H16.1636V3.86719Z" fill="white" fill-opacity="0.25"/>
<path d="M43.0605 3.86719H50.8365V7.73438H43.0605V3.86719Z" fill="white" fill-opacity="0.25"/>
<path d="M58.4849 15.4688H62.3091V23.332H58.4849V15.4688Z" fill="white" fill-opacity="0.25"/>
</svg>
