<svg width="72" height="72" viewBox="0 0 72 72" fill="none" xmlns="http://www.w3.org/2000/svg">
<path d="M65.25 19.125H64.125V15.75C64.125 15.4516 64.0065 15.1655 63.7955 14.9545C63.5845 14.7435 63.2984 14.625 63 14.625H61.875V11.25C61.875 10.9516 61.7565 10.6655 61.5455 10.4545C61.3345 10.2435 61.0484 10.125 60.75 10.125H54C53.7016 10.125 53.4155 10.2435 53.2045 10.4545C52.9935 10.6655 52.875 10.9516 52.875 11.25V14.625H51.75C51.4516 14.625 51.1655 14.7435 50.9545 14.9545C50.7435 15.1655 50.625 15.4516 50.625 15.75V19.125H42.0863L37.9237 14.9513C37.8186 14.847 37.694 14.7645 37.5569 14.7085C37.4198 14.6525 37.2731 14.6241 37.125 14.625H6.75C6.01131 14.625 5.27986 14.7705 4.59741 15.0532C3.91495 15.3359 3.29485 15.7502 2.77252 16.2725C1.71763 17.3274 1.125 18.7582 1.125 20.25V56.25C1.125 57.7418 1.71763 59.1726 2.77252 60.2275C3.29485 60.7498 3.91495 61.1641 4.59741 61.4468C5.27986 61.7295 6.01131 61.875 6.75 61.875H65.25C66.7418 61.875 68.1726 61.2824 69.2275 60.2275C70.2824 59.1726 70.875 57.7418 70.875 56.25V24.75C70.875 23.2582 70.2824 21.8274 69.2275 20.7725C68.1726 19.7176 66.7418 19.125 65.25 19.125ZM55.125 12.375H59.625V14.625H55.125V12.375ZM52.875 16.875H61.875V19.125H52.875V16.875ZM6.75 16.875H36.6637L40.8263 21.0487C40.9314 21.153 41.056 21.2355 41.1931 21.2915C41.3302 21.3475 41.4769 21.3759 41.625 21.375H65.25C66.1451 21.375 67.0035 21.7306 67.6365 22.3635C68.2694 22.9964 68.625 23.8549 68.625 24.75V30.375H49.5C47.9366 28.2669 45.9012 26.5543 43.5569 25.3743C41.2126 24.1942 38.6245 23.5796 36 23.5796C33.3755 23.5796 30.7874 24.1942 28.4431 25.3743C26.0988 26.5543 24.0634 28.2669 22.5 30.375H3.375V20.25C3.375 19.3549 3.73058 18.4964 4.36351 17.8635C4.99645 17.2306 5.85489 16.875 6.75 16.875ZM21.375 40.5C21.375 37.6074 22.2327 34.7799 23.8398 32.3748C25.4468 29.9697 27.7309 28.0952 30.4033 26.9883C33.0756 25.8813 36.0162 25.5917 38.8532 26.156C41.6902 26.7203 44.2961 28.1132 46.3414 30.1586C48.3868 32.2039 49.7797 34.8098 50.344 37.6468C50.9083 40.4838 50.6187 43.4244 49.5117 46.0967C48.4048 48.7691 46.5303 51.0532 44.1252 52.6602C41.7201 54.2673 38.8926 55.125 36 55.125C32.1212 55.125 28.4013 53.5842 25.6586 50.8414C22.9158 48.0987 21.375 44.3788 21.375 40.5ZM22.5 50.625H3.375V32.625H21.0825C19.5777 35.4481 18.9115 38.6427 19.1627 41.832C19.4139 45.0213 20.5718 48.0722 22.5 50.625ZM52.875 40.5C52.8787 37.7541 52.2064 35.0496 50.9175 32.625H68.625V50.625H49.5C51.6973 47.7075 52.8824 44.1524 52.875 40.5ZM65.25 59.625H6.75C5.85489 59.625 4.99645 59.2694 4.36351 58.6365C3.73058 58.0035 3.375 57.1451 3.375 56.25V52.875H24.57C27.6731 55.7678 31.7577 57.3763 36 57.3763C40.2423 57.3763 44.3269 55.7678 47.43 52.875H68.625V56.25C68.625 57.1451 68.2694 58.0035 67.6365 58.6365C67.0035 59.2694 66.1451 59.625 65.25 59.625Z" fill="white" fill-opacity="0.26"/>
<path d="M36 52.875C38.4475 52.875 40.8401 52.1492 42.8752 50.7894C44.9102 49.4297 46.4964 47.4969 47.433 45.2357C48.3696 42.9745 48.6147 40.4863 48.1372 38.0858C47.6597 35.6852 46.4811 33.4802 44.7504 31.7496C43.0198 30.0189 40.8147 28.8403 38.4142 28.3628C36.0137 27.8853 33.5255 28.1304 31.2643 29.067C29.0031 30.0036 27.0703 31.5898 25.7106 33.6248C24.3508 35.6599 23.625 38.0525 23.625 40.5C23.625 43.7821 24.9288 46.9297 27.2496 49.2505C29.5703 51.5712 32.7179 52.875 36 52.875ZM36 30.375C38.0025 30.375 39.9601 30.9688 41.6251 32.0814C43.2902 33.1939 44.5879 34.7752 45.3543 36.6253C46.1206 38.4754 46.3211 40.5112 45.9304 42.4753C45.5398 44.4394 44.5755 46.2435 43.1594 47.6595C41.7434 49.0755 39.9393 50.0398 37.9753 50.4305C36.0112 50.8211 33.9754 50.6206 32.1253 49.8543C30.2752 49.0879 28.6939 47.7902 27.5814 46.1252C26.4688 44.4601 25.875 42.5025 25.875 40.5C25.875 37.8147 26.9417 35.2394 28.8405 33.3405C30.7393 31.4417 33.3147 30.375 36 30.375Z" fill="white" fill-opacity="0.26"/>
<path d="M6.75 28.125H15.75C16.0484 28.125 16.3345 28.0065 16.5455 27.7955C16.7565 27.5845 16.875 27.2984 16.875 27V20.25C16.875 19.9516 16.7565 19.6655 16.5455 19.4545C16.3345 19.2435 16.0484 19.125 15.75 19.125H6.75C6.45163 19.125 6.16548 19.2435 5.95451 19.4545C5.74353 19.6655 5.625 19.9516 5.625 20.25V27C5.625 27.2984 5.74353 27.5845 5.95451 27.7955C6.16548 28.0065 6.45163 28.125 6.75 28.125ZM7.875 21.375H14.625V25.875H7.875V21.375Z" fill="white" fill-opacity="0.26"/>
<path d="M11.25 37.125C10.5825 37.125 9.92997 37.3229 9.37495 37.6938C8.81994 38.0646 8.38735 38.5917 8.13191 39.2084C7.87646 39.8251 7.80963 40.5037 7.93985 41.1584C8.07008 41.8131 8.39151 42.4145 8.86352 42.8865C9.33552 43.3585 9.93689 43.6799 10.5916 43.8102C11.2463 43.9404 11.9249 43.8735 12.5416 43.6181C13.1583 43.3627 13.6854 42.9301 14.0562 42.3751C14.4271 41.82 14.625 41.1675 14.625 40.5C14.625 39.6049 14.2694 38.7465 13.6365 38.1135C13.0036 37.4806 12.1451 37.125 11.25 37.125ZM11.25 41.625C11.0275 41.625 10.81 41.559 10.625 41.4354C10.44 41.3118 10.2958 41.1361 10.2106 40.9305C10.1255 40.725 10.1032 40.4988 10.1466 40.2805C10.19 40.0623 10.2972 39.8618 10.4545 39.7045C10.6118 39.5472 10.8123 39.44 11.0305 39.3966C11.2488 39.3532 11.475 39.3755 11.6805 39.4606C11.8861 39.5458 12.0618 39.69 12.1854 39.875C12.309 40.06 12.375 40.2775 12.375 40.5C12.375 40.7984 12.2565 41.0845 12.0455 41.2955C11.8345 41.5065 11.5484 41.625 11.25 41.625Z" fill="white" fill-opacity="0.26"/>
<path d="M60.75 37.125C60.0825 37.125 59.43 37.3229 58.875 37.6938C58.3199 38.0646 57.8874 38.5917 57.6319 39.2084C57.3765 39.8251 57.3096 40.5037 57.4399 41.1584C57.5701 41.8131 57.8915 42.4145 58.3635 42.8865C58.8355 43.3585 59.4369 43.6799 60.0916 43.8102C60.7463 43.9404 61.4249 43.8735 62.0416 43.6181C62.6583 43.3627 63.1854 42.9301 63.5562 42.3751C63.9271 41.82 64.125 41.1675 64.125 40.5C64.125 39.6049 63.7694 38.7465 63.1365 38.1135C62.5036 37.4806 61.6451 37.125 60.75 37.125ZM60.75 41.625C60.5275 41.625 60.31 41.559 60.125 41.4354C59.94 41.3118 59.7958 41.1361 59.7106 40.9305C59.6255 40.725 59.6032 40.4988 59.6466 40.2805C59.69 40.0623 59.7972 39.8618 59.9545 39.7045C60.1118 39.5472 60.3123 39.44 60.5305 39.3966C60.7488 39.3532 60.975 39.3755 61.1805 39.4606C61.3861 39.5458 61.5618 39.69 61.6854 39.875C61.809 40.06 61.875 40.2775 61.875 40.5C61.875 40.7984 61.7565 41.0845 61.5455 41.2955C61.3345 41.5065 61.0484 41.625 60.75 41.625Z" fill="white" fill-opacity="0.26"/>
</svg>
