<svg width="74" height="69" viewBox="0 0 74 69" fill="none" xmlns="http://www.w3.org/2000/svg">
<path d="M58.717 24.916L69.0627 14.6421L73.8018 0L59.0574 4.70631L38.7066 24.916H31.6811L36.025 20.6403C39.9597 19.3991 43.175 16.0431 44.1409 11.9724L46.7709 0.888299L35.5998 3.45962C31.4954 4.40432 28.1031 7.58722 26.84 11.4923L13.2356 24.916H4.33594V18.0327H0V69H74V24.916H58.717ZM67.0901 6.66519L65.6842 11.0085L62.7164 8.06129L67.0901 6.66519ZM59.1978 10.6563L63.071 14.5027L43.9132 33.5277H36.1666L59.1978 10.6563ZM34.3707 29.2219L30.0347 33.5277H22.9322L27.3066 29.2219H34.3707ZM36.5788 7.6541L40.9495 6.64811L39.9204 10.9847C39.2879 13.6503 36.9418 15.9746 34.3067 16.6485L30.8548 13.2081C31.5431 10.594 33.8923 8.27256 36.5788 7.6541ZM27.9771 16.4402L31.0356 19.4886L16.773 33.5276H10.6598L27.9771 16.4402ZM4.33594 29.2219H8.87191L4.50807 33.5277H4.33594V29.2219ZM69.6641 64.6941H4.33594V37.8336H55.6927V41.0779C53.1693 41.9666 51.3567 44.3597 51.3567 47.1664V53.673H64.3645V47.1664C64.3645 44.3597 62.552 41.9666 60.0286 41.0779V37.8336H69.6641V64.6941ZM57.8606 45.0135C59.056 45.0135 60.0286 45.9793 60.0286 47.1664V49.3671H55.6927V47.1664C55.6927 45.9793 56.6654 45.0135 57.8606 45.0135ZM69.6641 33.5277H50.0451L54.381 29.2219H69.6641V33.5277Z" fill="white" fill-opacity="0.25"/>
</svg>
