<svg width="89" height="90" viewBox="0 0 89 90" fill="none" xmlns="http://www.w3.org/2000/svg">
<path d="M73.7031 61.8751H70.9219C68.3411 61.8721 65.8668 60.834 64.0419 58.9886C62.2169 57.1432 61.1904 54.6411 61.1875 52.0313C61.1875 51.8466 61.1515 51.6638 61.0817 51.4932C61.0118 51.3225 60.9093 51.1675 60.7802 51.0369C60.6511 50.9063 60.4978 50.8028 60.3291 50.7321C60.1603 50.6614 59.9795 50.6251 59.7969 50.6251H55.625C54.0228 50.6229 52.4703 50.0623 51.2292 49.0376C49.9881 48.013 49.1343 46.587 48.8116 45.0001H62.0021L67.1573 50.2132L69.1239 48.2245L63.6208 42.6595L72.5192 34.4112L83.9042 44.6449L85.752 42.5427L74.5803 32.5007L83.8883 23.8728C84.6033 23.2101 85.1783 22.4079 85.5785 21.5145C85.9787 20.6211 86.1959 19.655 86.2171 18.6744C86.2382 17.6939 86.0628 16.7191 85.7014 15.8089C85.3401 14.8987 84.8002 14.072 84.1144 13.3784C83.4286 12.6848 82.6111 12.1389 81.711 11.7734C80.811 11.4079 79.8471 11.2304 78.8774 11.2517C77.9077 11.273 76.9523 11.4926 76.0688 11.8973C75.1853 12.3019 74.392 12.8833 73.7366 13.6063L62.0516 26.4971L53.5527 23.9182C51.9843 23.4399 50.2991 23.538 48.7952 24.1951C47.2914 24.8521 46.0658 26.0258 45.3351 27.5085L39.8431 38.6179C39.2467 39.8207 38.9366 41.1479 38.9375 42.4935C38.9388 43.5656 39.2601 44.6124 39.8592 45.4969C40.4584 46.3815 41.3075 47.0626 42.2956 47.4512C40.331 48.6134 38.095 49.2236 35.8189 49.2188H34.7656C34.583 49.2188 34.4022 49.2552 34.2335 49.3258C34.0647 49.3965 33.9114 49.5001 33.7823 49.6307C33.6532 49.7613 33.5507 49.9163 33.4808 50.0869C33.411 50.2575 33.375 50.4404 33.375 50.6251C33.3828 55.9853 32.2478 61.2842 30.0475 66.1608L30.0235 66.214C29.9061 66.4747 29.8702 66.7654 29.9207 67.0473C29.9711 67.3292 30.1054 67.5887 30.3057 67.7913C30.5061 67.9939 30.7628 68.1297 31.0415 68.1807C31.3203 68.2317 31.6078 68.1954 31.8655 68.0767L31.9171 68.0529C36.7398 65.8276 41.9802 64.6798 47.2813 64.6876C47.4639 64.6876 47.6447 64.6512 47.8134 64.5805C47.9821 64.5099 48.1355 64.4063 48.2646 64.2757C48.3937 64.1451 48.4961 63.9901 48.566 63.8195C48.6359 63.6488 48.6719 63.466 48.6719 63.2813V62.2162C48.6681 60.2967 49.0862 58.4003 49.8961 56.6642L55.3857 62.2155C56.1587 63.0016 57.0783 63.6249 58.0912 64.0492C59.1041 64.4736 60.1902 64.6905 61.2866 64.6876H73.1271L83.8448 75.5257L85.8114 73.537L74.6864 62.287C74.5573 62.1564 74.404 62.0528 74.2353 61.9821C74.0666 61.9114 73.8857 61.8751 73.7031 61.8751ZM58.483 53.4376C58.5884 54.3968 58.8028 55.3405 59.122 56.2501H55.7241C54.9931 56.252 54.269 56.1073 53.5936 55.8244C52.9183 55.5415 52.3052 55.1259 51.7898 54.6018L51.4023 54.21C51.7233 53.7947 52.0686 53.3992 52.4364 53.0256C52.4688 52.9929 52.4991 52.9587 52.5276 52.9237C53.5256 53.2641 54.5718 53.4376 55.625 53.4376H58.483ZM74.1112 29.1202L60.0138 42.1876H51.6019L68.5471 23.4936L74.1112 29.1202ZM70.4282 21.4184L72.5376 19.0913L78.4646 25.085L76.1634 27.218L70.4282 21.4184ZM79.0327 14.0626C79.9202 14.0622 80.7871 14.3331 81.5198 14.8396C82.2524 15.3461 82.8166 16.0647 83.1384 16.9011C83.4602 17.7375 83.5246 18.6527 83.3231 19.5267C83.1217 20.4008 82.6637 21.1929 82.0094 21.7992L80.5167 23.1828L74.4186 17.0161L75.7865 15.5071C76.1995 15.0525 76.7012 14.6895 77.2599 14.4408C77.8187 14.1922 78.4223 14.0634 79.0327 14.0626ZM41.872 41.1534C41.9756 40.7116 42.1292 40.2834 42.3299 39.8773L47.8226 28.7666C48.2609 27.8768 48.9963 27.1725 49.8987 26.7782C50.8011 26.3839 51.8123 26.325 52.7534 26.612L59.9641 28.8001L47.8289 42.1876H47.2813C47.0986 42.1876 46.9178 42.2239 46.7491 42.2946C46.5804 42.3653 46.4271 42.4688 46.2979 42.5994C46.1688 42.73 46.0664 42.885 45.9965 43.0557C45.9266 43.2263 45.8906 43.4091 45.8906 43.5938C45.8906 43.8289 45.9018 44.0614 45.9179 44.2924C45.5688 44.6354 45.1274 44.8667 44.6489 44.9573C44.1705 45.0479 43.6763 44.9938 43.2281 44.8018C42.7799 44.6098 42.3976 44.2884 42.1292 43.8778C41.8607 43.4672 41.7179 42.9857 41.7188 42.4935C41.7187 42.0423 41.7701 41.5926 41.872 41.1534ZM45.8937 61.8989C42.7846 62.0038 39.6985 62.479 36.6994 63.3145L38.5306 61.4628C39.4189 61.892 40.4287 61.9897 41.3815 61.7388C42.3343 61.4879 43.1686 60.9044 43.7371 60.0916C44.3056 59.2787 44.5716 58.2888 44.4881 57.2967C44.4046 56.3047 43.9769 55.3745 43.2808 54.6705C42.5846 53.9665 41.6647 53.534 40.6837 53.4496C39.7027 53.3651 38.7237 53.6341 37.9199 54.209C37.1161 54.7839 36.5391 55.6276 36.291 56.5911C36.0428 57.5546 36.1395 58.5757 36.564 59.4741L34.733 61.3256C35.5592 58.2929 36.029 55.1722 36.1326 52.0282C39.6923 51.9667 43.1227 50.6685 45.8478 48.3517L49.5293 52.0747C47.2382 54.8303 45.9545 58.2993 45.8937 61.8989V61.8989ZM38.9375 57.6563C38.9375 57.3782 39.0191 57.1063 39.1719 56.875C39.3247 56.6438 39.5419 56.4635 39.796 56.3571C40.0501 56.2507 40.3297 56.2228 40.5994 56.2771C40.8692 56.3313 41.117 56.4653 41.3115 56.6619C41.5059 56.8586 41.6384 57.1092 41.692 57.382C41.7457 57.6548 41.7182 57.9375 41.6129 58.1945C41.5076 58.4514 41.3294 58.671 41.1007 58.8256C40.872 58.9801 40.6032 59.0626 40.3281 59.0626C39.9594 59.0621 39.606 58.9138 39.3453 58.6502C39.0846 58.3866 38.9379 58.0291 38.9375 57.6563ZM61.2866 61.8751C60.5556 61.877 59.8315 61.7324 59.1561 61.4494C58.4808 61.1665 57.8677 60.7509 57.3523 60.2268L56.201 59.0626H60.5238C61.2275 60.1235 62.0848 61.0716 63.067 61.8751H61.2866Z" fill="white" fill-opacity="0.26"/>
<path d="M28.08 72.0308C25.6063 74.5323 22.2512 75.9376 18.7529 75.9376C15.2546 75.9376 11.8995 74.5323 9.42586 72.0308C6.95217 69.5293 5.56247 66.1366 5.56247 62.5989C5.56247 59.0613 6.95217 55.6686 9.42586 53.1671L14.7208 47.8126L16.6874 49.8013L11.3925 55.1558C9.4407 57.1299 8.34432 59.8072 8.34447 62.5987C8.34462 65.3902 9.44129 68.0674 11.3933 70.0413C13.3452 72.0152 15.9926 73.1242 18.7531 73.1243C21.5137 73.1245 24.1612 72.0158 26.1134 70.0421L27.6438 68.4945L25.6772 66.5058L24.1468 68.0534C22.7162 69.5 20.776 70.3127 18.7529 70.3127C16.7298 70.3127 14.7896 69.5 13.3591 68.0534C11.9285 66.6068 11.1249 64.6448 11.1249 62.5989C11.1249 60.5531 11.9285 58.5911 13.3591 57.1445L19.6373 50.7957C19.7665 50.6651 19.8689 50.5101 19.9388 50.3395C20.0087 50.1689 20.0447 49.986 20.0447 49.8013C20.0447 49.6167 20.0087 49.4338 19.9388 49.2632C19.8689 49.0926 19.7665 48.9376 19.6373 48.807L15.7041 44.8296C15.4433 44.5659 15.0896 44.4177 14.7208 44.4177C14.352 44.4177 13.9983 44.5659 13.7375 44.8296L7.45926 51.1784C5.97583 52.6781 4.79907 54.4586 3.99616 56.4182C3.19325 58.3778 2.77992 60.4782 2.77979 62.5994C2.77965 64.7206 3.1927 66.821 3.99535 68.7807C4.79801 70.7404 5.97454 72.5211 7.45777 74.021C8.941 75.5209 10.7019 76.7106 12.6398 77.5223C14.5778 78.334 16.6549 78.7517 18.7525 78.7515C20.8501 78.7514 22.9271 78.3334 24.865 77.5215C26.8028 76.7096 28.5635 75.5196 30.0466 74.0195L31.577 72.4719L29.6104 70.4832L28.08 72.0308Z" fill="white" fill-opacity="0.26"/>
</svg>
