<svg width="90" height="90" viewBox="0 0 90 90" fill="none" xmlns="http://www.w3.org/2000/svg">
<path d="M53.4375 19.5117C54.2719 19.5117 55.0875 19.2643 55.7813 18.8007C56.4751 18.3372 57.0158 17.6783 57.3351 16.9074C57.6544 16.1365 57.738 15.2883 57.5752 14.4699C57.4124 13.6516 57.0106 12.8999 56.4206 12.3099C55.8306 11.7199 55.0789 11.3181 54.2605 11.1553C53.4422 10.9925 52.5939 11.076 51.8231 11.3954C51.0522 11.7147 50.3933 12.2554 49.9297 12.9492C49.4662 13.6429 49.2188 14.4586 49.2188 15.293C49.22 16.4115 49.6649 17.4838 50.4558 18.2747C51.2467 19.0656 52.319 19.5105 53.4375 19.5117ZM53.4375 13.8867C53.7156 13.8867 53.9875 13.9692 54.2188 14.1237C54.45 14.2782 54.6303 14.4979 54.7367 14.7548C54.8431 15.0118 54.871 15.2945 54.8167 15.5673C54.7625 15.8401 54.6285 16.0907 54.4319 16.2873C54.2352 16.484 53.9846 16.6179 53.7119 16.6722C53.4391 16.7265 53.1563 16.6986 52.8994 16.5922C52.6424 16.4857 52.4228 16.3055 52.2682 16.0742C52.1137 15.843 52.0313 15.5711 52.0313 15.293C52.0317 14.9201 52.18 14.5627 52.4436 14.2991C52.7072 14.0354 53.0647 13.8871 53.4375 13.8867Z" fill="white" fill-opacity="0.26"/>
<path d="M81.3867 85.7812H77.7691L79.933 77.7076C80.0072 77.4286 79.9943 77.1336 79.8961 76.8621L61.9664 27.6434C61.8676 27.3722 61.6877 27.1381 61.4512 26.9727C61.2148 26.8073 60.9331 26.7186 60.6445 26.7188H60.4688V22.3242C60.4686 22.0489 60.3877 21.7796 60.2362 21.5497C60.0847 21.3198 59.8692 21.1393 59.6162 21.0305C60.4799 20.1029 61.1232 18.9924 61.4981 17.7817C61.8729 16.571 61.9698 15.2913 61.7814 14.038C61.593 12.7847 61.1242 11.59 60.41 10.543C59.6958 9.496 58.7545 8.62368 57.6562 7.99102V5.625C57.6562 4.50612 57.2118 3.43306 56.4206 2.64189C55.6294 1.85072 54.5564 1.40625 53.4375 1.40625C52.3186 1.40625 51.2456 1.85072 50.4544 2.64189C49.6632 3.43306 49.2188 4.50612 49.2188 5.625V7.99102C48.1205 8.62368 47.1792 9.496 46.465 10.543C45.7508 11.59 45.282 12.7847 45.0936 14.038C44.9052 15.2913 45.0021 16.571 45.3769 17.7817C45.7518 18.9924 46.3951 20.1029 47.2588 21.0305C47.0058 21.1393 46.7903 21.3198 46.6388 21.5497C46.4873 21.7796 46.4064 22.0489 46.4062 22.3242V26.7188C46.1194 26.719 45.8394 26.8068 45.6038 26.9705C45.3682 27.1341 45.1882 27.3658 45.0879 27.6346L26.8066 76.8533C26.7026 77.1347 26.6909 77.442 26.7732 77.7305L29.0725 85.7812H2.8125C2.43954 85.7812 2.08185 85.9294 1.81813 86.1931C1.55441 86.4569 1.40625 86.8145 1.40625 87.1875C1.40625 87.5605 1.55441 87.9181 1.81813 88.1819C2.08185 88.4456 2.43954 88.5938 2.8125 88.5938H81.3867C81.7597 88.5938 82.1174 88.4456 82.3811 88.1819C82.6448 87.9181 82.793 87.5605 82.793 87.1875C82.793 86.8145 82.6448 86.4569 82.3811 86.1931C82.1174 85.9294 81.7597 85.7812 81.3867 85.7812ZM52.0312 5.625C52.0312 5.25204 52.1794 4.89435 52.4431 4.63063C52.7069 4.36691 53.0645 4.21875 53.4375 4.21875C53.8105 4.21875 54.1681 4.36691 54.4319 4.63063C54.6956 4.89435 54.8438 5.25204 54.8438 5.625V6.975C53.913 6.81563 52.962 6.81563 52.0312 6.975V5.625ZM52.04 9.84375H54.835C56.1619 10.1841 57.319 10.9969 58.0892 12.1298C58.8594 13.2626 59.1898 14.6376 59.0182 15.9967C58.8467 17.3558 58.1852 18.6055 57.1577 19.5115C56.1302 20.4175 54.8074 20.9174 53.4375 20.9174C52.0676 20.9174 50.7448 20.4175 49.7173 19.5115C48.6898 18.6055 48.0283 17.3558 47.8568 15.9967C47.6852 14.6376 48.0156 13.2626 48.7858 12.1298C49.556 10.9969 50.7131 10.1841 52.04 9.84375ZM57.6562 23.7305V26.7188H49.2188V23.7305H57.6562ZM29.6033 77.4018L47.3836 29.5312H51.3967L31.1291 82.7367L29.6033 77.4018ZM32.9783 85.7812L53.4375 32.0748L73.8967 85.7812H32.9783ZM75.7037 82.6242L55.4783 29.5312H59.6602L77.1012 77.4088L75.7037 82.6242Z" fill="white" fill-opacity="0.26"/>
<path d="M5.625 37.9688H28.125C28.498 37.9688 28.8556 37.8206 29.1194 37.5569C29.3831 37.2931 29.5312 36.9355 29.5312 36.5625V25.3125C29.5312 24.9395 29.3831 24.5819 29.1194 24.3181C28.8556 24.0544 28.498 23.9062 28.125 23.9062H5.625C5.25204 23.9062 4.89435 24.0544 4.63063 24.3181C4.36691 24.5819 4.21875 24.9395 4.21875 25.3125V36.5625C4.21875 36.9355 4.36691 37.2931 4.63063 37.5569C4.89435 37.8206 5.25204 37.9688 5.625 37.9688ZM7.03125 26.7188H26.7188V35.1562H7.03125V26.7188Z" fill="white" fill-opacity="0.26"/>
<path d="M5.625 42.1875H28.125C28.498 42.1875 28.8556 42.0393 29.1194 41.7756C29.3831 41.5119 29.5312 41.1542 29.5312 40.7812C29.5312 40.4083 29.3831 40.0506 29.1194 39.7869C28.8556 39.5232 28.498 39.375 28.125 39.375H5.625C5.25204 39.375 4.89435 39.5232 4.63063 39.7869C4.36691 40.0506 4.21875 40.4083 4.21875 40.7812C4.21875 41.1542 4.36691 41.5119 4.63063 41.7756C4.89435 42.0393 5.25204 42.1875 5.625 42.1875Z" fill="white" fill-opacity="0.26"/>
<path d="M5.625 46.4062H28.125C28.498 46.4062 28.8556 46.2581 29.1194 45.9944C29.3831 45.7306 29.5312 45.373 29.5312 45C29.5312 44.627 29.3831 44.2694 29.1194 44.0056C28.8556 43.7419 28.498 43.5938 28.125 43.5938H5.625C5.25204 43.5938 4.89435 43.7419 4.63063 44.0056C4.36691 44.2694 4.21875 44.627 4.21875 45C4.21875 45.373 4.36691 45.7306 4.63063 45.9944C4.89435 46.2581 5.25204 46.4062 5.625 46.4062Z" fill="white" fill-opacity="0.26"/>
<path d="M5.625 50.625H16.875C17.248 50.625 17.6056 50.4768 17.8694 50.2131C18.1331 49.9494 18.2812 49.5917 18.2812 49.2188C18.2812 48.8458 18.1331 48.4881 17.8694 48.2244C17.6056 47.9607 17.248 47.8125 16.875 47.8125H5.625C5.25204 47.8125 4.89435 47.9607 4.63063 48.2244C4.36691 48.4881 4.21875 48.8458 4.21875 49.2188C4.21875 49.5917 4.36691 49.9494 4.63063 50.2131C4.89435 50.4768 5.25204 50.625 5.625 50.625Z" fill="white" fill-opacity="0.26"/>
<path d="M21.2695 47.8125C20.8966 47.8125 20.5389 47.9607 20.2752 48.2244C20.0114 48.4881 19.8633 48.8458 19.8633 49.2188C19.8633 49.5917 20.0114 49.9494 20.2752 50.2131C20.5389 50.4768 20.8966 50.625 21.2695 50.625H22.6758C23.0487 50.625 23.4064 50.4768 23.6702 50.2131C23.9339 49.9494 24.082 49.5917 24.082 49.2188C24.082 48.8458 23.9339 48.4881 23.6702 48.2244C23.4064 47.9607 23.0487 47.8125 22.6758 47.8125H21.2695Z" fill="white" fill-opacity="0.26"/>
<path d="M87.1875 85.7812H85.7812C85.4083 85.7812 85.0506 85.9294 84.7869 86.1931C84.5232 86.4569 84.375 86.8145 84.375 87.1875C84.375 87.5605 84.5232 87.9181 84.7869 88.1819C85.0506 88.4456 85.4083 88.5938 85.7812 88.5938H87.1875C87.5605 88.5938 87.9181 88.4456 88.1819 88.1819C88.4456 87.9181 88.5938 87.5605 88.5938 87.1875C88.5938 86.8145 88.4456 86.4569 88.1819 86.1931C87.9181 85.9294 87.5605 85.7812 87.1875 85.7812Z" fill="white" fill-opacity="0.26"/>
</svg>
