<svg width="66" height="65" viewBox="0 0 66 65" fill="none" xmlns="http://www.w3.org/2000/svg">
<path d="M35.0625 14.2188C34.2467 14.2188 33.4491 14.457 32.7708 14.9034C32.0924 15.3498 31.5637 15.9843 31.2515 16.7266C30.9393 17.4689 30.8576 18.2858 31.0168 19.0738C31.1759 19.8619 31.5688 20.5857 32.1457 21.1539C32.7226 21.722 33.4576 22.1089 34.2578 22.2657C35.0579 22.4224 35.8873 22.342 36.6411 22.0345C37.3948 21.727 38.0391 21.2063 38.4923 20.5383C38.9456 19.8702 39.1875 19.0847 39.1875 18.2812C39.1875 17.2038 38.7529 16.1705 37.9793 15.4086C37.2057 14.6468 36.1565 14.2188 35.0625 14.2188ZM35.0625 20.3125C34.6546 20.3125 34.2558 20.1934 33.9166 19.9702C33.5775 19.747 33.3131 19.4297 33.157 19.0586C33.0009 18.6874 32.9601 18.279 33.0396 17.885C33.1192 17.4909 33.3156 17.129 33.6041 16.8449C33.8925 16.5609 34.26 16.3674 34.6601 16.289C35.0602 16.2107 35.4749 16.2509 35.8518 16.4046C36.2287 16.5584 36.5508 16.8187 36.7774 17.1527C37.004 17.4868 37.125 17.8795 37.125 18.2812C37.125 18.82 36.9077 19.3366 36.5209 19.7176C36.1341 20.0985 35.6095 20.3125 35.0625 20.3125Z" fill="white" fill-opacity="0.25"/>
<path d="M44.3438 19.2969C43.7319 19.2969 43.1337 19.4756 42.625 19.8104C42.1162 20.1452 41.7197 20.621 41.4855 21.1778C41.2513 21.7345 41.1901 22.3471 41.3094 22.9382C41.4288 23.5292 41.7235 24.0721 42.1561 24.4982C42.5888 24.9243 43.1401 25.2145 43.7402 25.3321C44.3403 25.4496 44.9624 25.3893 45.5277 25.1587C46.093 24.9281 46.5762 24.5376 46.9161 24.0365C47.2561 23.5354 47.4375 22.9464 47.4375 22.3437C47.4375 21.5357 47.1116 20.7607 46.5314 20.1893C45.9512 19.6179 45.1643 19.2969 44.3438 19.2969ZM44.3438 23.3594C44.1398 23.3594 43.9404 23.2998 43.7708 23.1882C43.6012 23.0766 43.4691 22.918 43.391 22.7324C43.313 22.5468 43.2925 22.3426 43.3323 22.1456C43.3721 21.9486 43.4703 21.7676 43.6145 21.6256C43.7588 21.4836 43.9425 21.3868 44.1426 21.3476C44.3426 21.3085 44.55 21.3286 44.7384 21.4054C44.9268 21.4823 45.0879 21.6125 45.2012 21.7795C45.3145 21.9465 45.375 22.1429 45.375 22.3437C45.375 22.6131 45.2664 22.8714 45.073 23.0619C44.8796 23.2524 44.6173 23.3594 44.3438 23.3594Z" fill="white" fill-opacity="0.25"/>
<path d="M44.3438 30.4688C44.3438 31.0714 44.5252 31.6605 44.8651 32.1615C45.2051 32.6626 45.6883 33.0531 46.2536 33.2837C46.8189 33.5143 47.4409 33.5747 48.0411 33.4571C48.6412 33.3395 49.1924 33.0493 49.6251 32.6232C50.0578 32.1971 50.3524 31.6542 50.4718 31.0632C50.5912 30.4721 50.5299 29.8595 50.2958 29.3028C50.0616 28.746 49.6651 28.2702 49.1563 27.9354C48.6475 27.6006 48.0494 27.4219 47.4375 27.4219C46.617 27.4219 45.8301 27.7429 45.2499 28.3143C44.6697 28.8857 44.3438 29.6607 44.3438 30.4688ZM47.4375 29.4531C47.6415 29.4531 47.8408 29.5127 48.0104 29.6243C48.18 29.7359 48.3122 29.8945 48.3903 30.0801C48.4683 30.2657 48.4887 30.4699 48.4489 30.6669C48.4091 30.8639 48.3109 31.0449 48.1667 31.1869C48.0225 31.3289 47.8387 31.4257 47.6387 31.4649C47.4386 31.5041 47.2313 31.4839 47.0429 31.4071C46.8544 31.3302 46.6934 31.2 46.58 31.033C46.4667 30.866 46.4063 30.6696 46.4063 30.4688C46.4063 30.1994 46.5149 29.9411 46.7083 29.7506C46.9017 29.5601 47.164 29.4531 47.4375 29.4531Z" fill="white" fill-opacity="0.25"/>
<path d="M60.8438 2.03125H5.15625C4.33649 2.03366 3.551 2.35544 2.97134 2.92632C2.39168 3.4972 2.06495 4.27079 2.0625 5.07812V53.8281C2.06495 54.6355 2.39168 55.409 2.97134 55.9799C3.551 56.5508 4.33649 56.8726 5.15625 56.875H24.8841L21.8316 61.3945C21.7252 61.5451 21.664 61.722 21.6549 61.9052C21.6458 62.0884 21.6891 62.2704 21.78 62.4305C21.8662 62.5938 21.9966 62.7305 22.1568 62.8255C22.3169 62.9205 22.5006 62.9701 22.6875 62.9688H43.3125C43.4994 62.9701 43.6831 62.9205 43.8432 62.8255C44.0034 62.7305 44.1338 62.5938 44.22 62.4305C44.3109 62.2704 44.3543 62.0884 44.3451 61.9052C44.336 61.722 44.2748 61.5451 44.1684 61.3945L41.1159 56.875H60.8438C61.6635 56.8726 62.449 56.5508 63.0287 55.9799C63.6083 55.409 63.9351 54.6355 63.9375 53.8281V5.07812C63.9351 4.27079 63.6083 3.4972 63.0287 2.92632C62.449 2.35544 61.6635 2.03366 60.8438 2.03125ZM41.3841 60.9375H24.6159L27.3694 56.875H38.6306L41.3841 60.9375ZM61.875 53.8281C61.875 54.0975 61.7663 54.3558 61.573 54.5463C61.3796 54.7367 61.1173 54.8438 60.8438 54.8438H5.15625C4.88275 54.8438 4.62044 54.7367 4.42705 54.5463C4.23365 54.3558 4.125 54.0975 4.125 53.8281V50.7812H61.875V53.8281ZM61.875 48.75H4.125V5.07812C4.125 4.80876 4.23365 4.55044 4.42705 4.35997C4.62044 4.1695 4.88275 4.0625 5.15625 4.0625H60.8438C61.1173 4.0625 61.3796 4.1695 61.573 4.35997C61.7663 4.55044 61.875 4.80876 61.875 5.07812V48.75Z" fill="white" fill-opacity="0.25"/>
<path d="M37.4655 38.0861L26.1217 18.7385C26.0541 18.6219 25.9637 18.5197 25.8557 18.4378C25.7477 18.3559 25.6243 18.2958 25.4926 18.2611C25.228 18.1926 24.9465 18.229 24.7089 18.3627L21.1408 20.394C20.9042 20.5299 20.7315 20.7521 20.6601 21.0125C20.5886 21.273 20.6243 21.5506 20.7592 21.7854L32.1029 41.133C32.2442 41.3644 32.4688 41.5349 32.732 41.6104C32.8199 41.6305 32.9099 41.6407 33.0001 41.6408C33.1803 41.638 33.3571 41.5927 33.5158 41.5088L37.0839 39.4775C37.2021 39.4112 37.3057 39.3225 37.3889 39.2165C37.4721 39.1105 37.5332 38.9894 37.5687 38.8601C37.6042 38.7307 37.6133 38.5958 37.5956 38.4629C37.5779 38.3301 37.5336 38.2021 37.4655 38.0861ZM33.3817 39.2338L23.0692 21.6432L24.8533 20.6275L35.1658 38.2182L33.3817 39.2338Z" fill="white" fill-opacity="0.25"/>
<path d="M23.9251 12.9492L22.9454 11.2836C22.4781 10.488 21.8011 9.8318 20.986 9.38434L16.7269 7.05856C16.5705 6.97283 16.3941 6.92869 16.2151 6.93047C16.0361 6.93225 15.8606 6.9799 15.706 7.06871C15.5526 7.15751 15.4247 7.28339 15.3345 7.43446C15.2442 7.58553 15.1946 7.75678 15.1904 7.93199L15.1079 12.7257C15.0955 13.6444 15.3341 14.5494 15.7988 15.3461L16.7785 17.0117C17.1896 17.7111 17.8655 18.2215 18.6581 18.4309C19.4507 18.6403 20.2952 18.5317 21.0066 18.1289L22.7907 17.1132C23.143 16.9133 23.4518 16.647 23.6995 16.3295C23.9472 16.012 24.1289 15.6495 24.2342 15.2628C24.3396 14.876 24.3665 14.4727 24.3135 14.0757C24.2604 13.6787 24.1284 13.2959 23.9251 12.9492ZM22.2338 14.7367C22.2012 14.8661 22.1424 14.9877 22.0609 15.0942C21.9794 15.2006 21.8768 15.2898 21.7594 15.3562L19.9754 16.3718C19.737 16.5047 19.4551 16.5398 19.1907 16.4695C18.9262 16.3991 18.7006 16.2291 18.5626 15.9961L17.5829 14.3304C17.3026 13.8524 17.16 13.3081 17.1704 12.7562L17.2219 9.65856L19.9857 11.1617C20.4751 11.4288 20.8815 11.822 21.1613 12.2992L22.1307 13.9648C22.2006 14.0797 22.2459 14.2074 22.2636 14.3402C22.2813 14.473 22.2712 14.6079 22.2338 14.7367Z" fill="white" fill-opacity="0.25"/>
<path d="M29.2185 12.1547C32.8794 10.8814 36.8659 10.8409 40.5526 12.0397C44.2394 13.2384 47.4178 15.6085 49.5893 18.7781C51.7608 21.9478 52.8025 25.7377 52.551 29.5533C52.2995 33.3689 50.769 36.9944 48.1997 39.861C47.811 38.6133 47.0265 37.5211 45.9614 36.7446C44.8963 35.9681 43.6065 35.5483 42.2813 35.5466C42.0078 35.5466 41.7455 35.6536 41.5521 35.8441C41.3587 36.0345 41.2501 36.2929 41.2501 36.5622C41.2501 36.8316 41.3587 37.0899 41.5521 37.2804C41.7455 37.4709 42.0078 37.5779 42.2813 37.5779C43.3753 37.5779 44.4245 38.0059 45.1981 38.7677C45.9717 39.5296 46.4063 40.5629 46.4063 41.6404C46.4069 41.7369 46.4 41.8333 46.3857 41.9288C46.3548 42.135 46.389 42.3455 46.4838 42.5318C46.5785 42.7182 46.7292 42.8713 46.9153 42.9704C47.1014 43.0696 47.314 43.1099 47.5242 43.086C47.7344 43.0621 47.9321 42.9751 48.0903 42.8368C51.4791 39.8618 53.7138 35.8202 54.4126 31.4025C55.1114 26.9849 54.231 22.4653 51.9217 18.6161C49.6124 14.7668 46.0176 11.8267 41.7515 10.2981C37.4853 8.76954 32.8126 8.74729 28.5317 10.2352C28.2736 10.3249 28.0623 10.5119 27.9442 10.755C27.8262 10.9981 27.811 11.2775 27.9021 11.5317C27.9932 11.7858 28.183 11.9939 28.4299 12.1102C28.6768 12.2265 28.9604 12.2414 29.2185 12.1517V12.1547Z" fill="white" fill-opacity="0.25"/>
<path d="M27.0796 38.6282C25.5094 38.214 24.0375 37.4993 22.7479 36.5248C21.4583 35.5503 20.3762 34.3351 19.5636 32.9487C18.7509 31.5623 18.2235 30.0318 18.0116 28.4446C17.7997 26.8574 17.9073 25.2447 18.3284 23.6985C18.3677 23.5684 18.3801 23.4319 18.3649 23.2971C18.3497 23.1622 18.3073 23.0317 18.24 22.9133C18.1728 22.7949 18.0821 22.6909 17.9734 22.6076C17.8647 22.5242 17.7402 22.4631 17.6071 22.428C17.474 22.3928 17.3352 22.3843 17.1987 22.4029C17.0622 22.4215 16.9309 22.4668 16.8125 22.5362C16.6941 22.6056 16.5911 22.6976 16.5094 22.8069C16.4277 22.9161 16.3691 23.0404 16.337 23.1724C15.3504 26.8149 15.8712 30.6942 17.7852 33.959C19.6992 37.2238 22.85 39.6076 26.5464 40.5873C26.6331 40.611 26.7225 40.6237 26.8125 40.6249C27.0626 40.6247 27.3042 40.5351 27.4922 40.3725C27.6802 40.21 27.8018 39.9857 27.8344 39.7414C27.8669 39.4971 27.8082 39.2495 27.6692 39.0447C27.5301 38.8399 27.3202 38.6919 27.0785 38.6282H27.0796Z" fill="white" fill-opacity="0.25"/>
</svg>
