<svg width="73" height="52" viewBox="0 0 73 52" fill="none" xmlns="http://www.w3.org/2000/svg">
<path d="M71.585 4.29863C71.5802 4.29863 71.5754 4.29863 71.5709 4.29863H66.774V2.67971C66.7998 2.03894 66.3796 1.46308 65.7552 1.28409C62.425 0.423341 58.9957 -0.00825418 55.553 0.000119539C49.893 0.000119539 42.1812 1.25618 36.4788 6.97822C30.8188 1.20035 23.0504 0.000119539 17.4045 0.000119539C13.9618 -0.00825418 10.5326 0.423341 7.20237 1.28409C6.578 1.46308 6.15774 2.03894 6.18356 2.67971V4.28467H1.415C0.633568 4.28467 0 4.90956 0 5.68029V50.2564C0 51.0271 0.633568 51.652 1.415 51.652C1.65803 51.6513 1.89681 51.5888 2.10835 51.4706C2.24985 51.4008 16.3999 43.7667 36.1533 48.6793H36.3656H36.4929C36.6058 48.6928 36.7197 48.6928 36.8325 48.6793C56.6426 43.7249 70.7926 51.345 70.8775 51.4706C71.3153 51.7198 71.8547 51.7198 72.2925 51.4706C72.7276 51.2228 72.997 50.7659 73 50.2703V5.69425C73 4.92352 72.3666 4.29863 71.585 4.29863ZM2.83001 48.0373V7.08987H6.21186V42.092C6.20302 42.8627 6.82933 43.4946 7.61077 43.5033C7.68718 43.5042 7.76359 43.499 7.83912 43.4876C10.7664 43.0468 13.7218 42.8135 16.6829 42.7898C20.7846 42.7197 24.8692 43.3282 28.767 44.5902C19.9648 43.5403 11.0365 44.7269 2.83001 48.0373ZM16.6829 40.0125C14.1092 40.0183 11.5385 40.1814 8.98527 40.501V3.78225C11.7403 3.1769 14.5537 2.86794 17.3762 2.86114C22.6683 2.86114 29.9698 4.06137 35.0355 9.69967L35.0779 44.4645C32.1347 42.5665 26.3898 40.0125 16.6829 40.0125ZM37.9079 9.69967C42.9736 4.1172 50.2751 2.86114 55.5672 2.86114C58.3896 2.86934 61.2029 3.17812 63.9581 3.78225V40.501C61.4193 40.1784 58.8627 40.0106 56.303 39.9986C46.6526 39.9986 40.8936 42.5526 37.9079 44.4506V9.69967ZM70.1558 48.0373C61.9319 44.7179 52.983 43.5311 44.1622 44.5902C48.0784 43.3236 52.1825 42.715 56.303 42.7898C59.2826 42.8062 62.2571 43.0347 65.2033 43.4737C65.9759 43.5893 66.6974 43.0653 66.8147 42.3033C66.8262 42.2288 66.8315 42.1534 66.8306 42.078V7.08987H70.2124L70.1558 48.0373Z" fill="white" fill-opacity="0.25"/>
</svg>
