<svg width="67" height="67" viewBox="0 0 67 67" fill="none" xmlns="http://www.w3.org/2000/svg">
<path d="M10.8215 42.7501C11.3658 42.7501 11.807 42.3089 11.807 41.7646V34.9726C11.807 34.4283 11.3658 33.9871 10.8215 33.9871C10.2772 33.9871 9.83594 34.4283 9.83594 34.9726V41.7646C9.83594 42.3089 10.2772 42.7501 10.8215 42.7501Z" fill="white" fill-opacity="0.26"/>
<path d="M10.8215 29.1658C11.3658 29.1658 11.807 28.7246 11.807 28.1803V25.4514L14.1433 24.0411C14.6093 23.7598 14.7591 23.1541 14.4777 22.688C14.1965 22.2222 13.5907 22.0723 13.1246 22.3536L10.3122 24.0512C10.0166 24.2297 9.83594 24.5497 9.83594 24.895V28.1802C9.83594 28.7246 10.2772 29.1658 10.8215 29.1658Z" fill="white" fill-opacity="0.26"/>
<path d="M19.3231 20.7498C19.4964 20.7498 19.6721 20.704 19.8315 20.6078L25.5197 17.1742C25.9856 16.8928 26.1354 16.2872 25.8541 15.8211C25.5729 15.3553 24.9672 15.2053 24.501 15.4867L18.8128 18.9203C18.3469 19.2017 18.1971 19.8073 18.4784 20.2734C18.6634 20.5801 18.9892 20.7498 19.3231 20.7498Z" fill="white" fill-opacity="0.26"/>
<path d="M41.4466 17.1795L47.0876 20.6108C47.2477 20.7082 47.4243 20.7544 47.5988 20.7544C47.9315 20.7544 48.2562 20.586 48.4418 20.2808C48.7246 19.8158 48.577 19.2096 48.1119 18.9267L42.4709 15.4954C42.006 15.2126 41.3997 15.3603 41.1168 15.8253C40.834 16.2904 40.9816 16.8966 41.4466 17.1795Z" fill="white" fill-opacity="0.26"/>
<path d="M52.7285 24.0424L55.0617 25.4618V28.1929C55.0617 28.7372 55.503 29.1785 56.0473 29.1785C56.5915 29.1785 57.0328 28.7372 57.0328 28.1929V24.9077C57.0328 24.5637 56.8534 24.2445 56.5593 24.0657L53.7526 22.3585C53.2876 22.0757 52.6814 22.2234 52.3985 22.6883C52.1157 23.1533 52.2634 23.7596 52.7285 24.0424Z" fill="white" fill-opacity="0.26"/>
<path d="M56.0471 33.991C55.5028 33.991 55.0615 34.4322 55.0615 34.9765V41.7604C55.0615 42.3047 55.5028 42.7459 56.0471 42.7459C56.5914 42.7459 57.0326 42.3047 57.0326 41.7604V34.9765C57.0326 34.4322 56.5914 33.991 56.0471 33.991Z" fill="white" fill-opacity="0.26"/>
<path d="M47.0877 56.1261L41.4467 59.5574C40.9816 59.8403 40.8339 60.4466 41.1169 60.9115C41.3024 61.2165 41.6271 61.3851 41.9598 61.3851C42.1343 61.3851 42.3111 61.3387 42.471 61.2415L48.112 57.8102C48.5771 57.5273 48.7248 56.921 48.4418 56.4561C48.1589 55.9912 47.5529 55.8431 47.0877 56.1261Z" fill="white" fill-opacity="0.26"/>
<path d="M35.8052 62.9884L33.5087 64.3853L31.2075 62.9962C30.7414 62.7147 30.1356 62.8646 29.8544 63.3306C29.573 63.7966 29.7228 64.4023 30.1888 64.6837L33.0013 66.3813C33.1579 66.4759 33.3343 66.5231 33.5106 66.5231C33.688 66.5231 33.8656 66.4753 34.0227 66.3796L36.8294 64.6724C37.2945 64.3895 37.4422 63.7831 37.1593 63.3182C36.8766 62.8533 36.2704 62.7055 35.8052 62.9884Z" fill="white" fill-opacity="0.26"/>
<path d="M25.5198 59.5626L19.8315 56.1291C19.3651 55.8476 18.7596 55.9976 18.4784 56.4635C18.1971 56.9295 18.3469 57.5353 18.8128 57.8166L24.5011 61.2501C24.6605 61.3463 24.8361 61.392 25.0096 61.392C25.3435 61.392 25.6692 61.2223 25.8542 60.9157C26.1354 60.4497 25.9858 59.8439 25.5198 59.5626Z" fill="white" fill-opacity="0.26"/>
<path d="M33.5002 26.3745C34.0445 26.3745 34.4858 25.9332 34.4858 25.3889V24.632C34.4858 24.0877 34.0445 23.6465 33.5002 23.6465C32.9559 23.6465 32.5146 24.0877 32.5146 24.632V25.3889C32.5146 25.9332 32.9558 26.3745 33.5002 26.3745Z" fill="white" fill-opacity="0.26"/>
<path d="M33.5002 32.0261C34.0445 32.0261 34.4858 31.5848 34.4858 31.0405V30.2836C34.4858 29.7394 34.0445 29.2981 33.5002 29.2981C32.9559 29.2981 32.5146 29.7394 32.5146 30.2836V31.0405C32.5146 31.5848 32.9558 32.0261 33.5002 32.0261Z" fill="white" fill-opacity="0.26"/>
<path d="M62.8757 52.1258C61.8227 52.1258 60.8612 52.5229 60.1317 53.1745L57.0328 51.404V48.544C57.0328 47.9998 56.5916 47.5585 56.0473 47.5585C55.503 47.5585 55.0617 47.9998 55.0617 48.544V50.2777L51.5115 48.2492C51.5123 48.2267 51.5138 48.2042 51.5138 48.1818V28.5549C51.5138 27.8773 51.1541 27.2376 50.575 26.8851L34.5137 17.1152C34.5044 17.1096 34.4948 17.1048 34.4855 17.0993V12.9454L35.8055 13.7483C35.9655 13.8457 36.1421 13.8919 36.3166 13.8919C36.6493 13.8919 36.9741 13.7235 37.1596 13.4184C37.4424 12.9533 37.2948 12.3471 36.8298 12.0642L34.4855 10.6382V8.6056C36.2852 8.1625 37.6243 6.53569 37.6243 4.60112C37.6243 2.32688 35.7741 0.476807 33.4999 0.476807C31.2258 0.476807 29.3756 2.32701 29.3756 4.60112C29.3756 6.53569 30.7146 8.1625 32.5144 8.6056V10.6494L30.1892 12.0529C29.7232 12.3343 29.5734 12.9399 29.8547 13.406C30.1361 13.8721 30.7417 14.0219 31.2078 13.7404L32.5144 12.9517V17.0972C32.5057 17.1023 32.4966 17.1067 32.488 17.1119L16.2991 26.8841C15.7166 27.2357 15.3547 27.8769 15.3547 28.5573V34.6236C15.3547 35.1679 15.796 35.6092 16.3402 35.6092C16.8845 35.6092 17.3258 35.1679 17.3258 34.6236V29.7565L32.5143 38.9248V57.3385L17.5211 48.2882C17.5127 48.2714 17.505 48.2543 17.4954 48.2377C17.4483 48.1553 17.3906 48.0829 17.3257 48.0199V38.8238C17.3257 38.2795 16.8844 37.8382 16.3401 37.8382C15.7958 37.8382 15.3546 38.2795 15.3546 38.8238V48.1798C15.3546 48.2276 15.3568 48.2752 15.3603 48.3225L11.8069 50.3529V48.5564C11.8069 48.0121 11.3656 47.5709 10.8213 47.5709C10.277 47.5709 9.83576 48.0121 9.83576 48.5564V51.479L6.86835 53.1744C6.13878 52.5228 5.17715 52.1257 4.12432 52.1257C1.8502 52.1258 0 53.976 0 56.2502C0 58.5245 1.8502 60.3746 4.12432 60.3746C6.39844 60.3746 8.24864 58.5244 8.24864 56.2502C8.24864 55.7422 8.15573 55.2555 7.98701 54.8057L10.9858 53.0923L13.1243 54.3832C13.2836 54.4794 13.4593 54.5251 13.6327 54.5251C13.9667 54.5251 14.2924 54.3554 14.4774 54.0488C14.7588 53.5828 14.609 52.977 14.143 52.6957L12.9452 51.9727L16.4722 49.9575L32.4878 59.6249C32.5876 59.6851 32.6913 59.7345 32.7974 59.7755C32.9763 59.9572 33.2248 60.0702 33.4998 60.0702C33.776 60.0702 34.0253 59.9563 34.2043 59.7732C34.3103 59.732 34.414 59.6822 34.5135 59.6216L40.8574 55.7627C41.3224 55.4798 41.4701 54.8735 41.1872 54.4086C40.9043 53.9437 40.298 53.7957 39.8331 54.0787L34.4854 57.3317V38.9225L49.5424 29.7633V48.1724L43.4601 51.8722C42.9951 52.1551 42.8475 52.7614 43.1303 53.2264C43.3159 53.5314 43.6406 53.6999 43.9733 53.6999C44.1478 53.6999 44.3245 53.6535 44.4846 53.5563L50.4623 49.9201L53.9825 51.9316L52.7282 52.6945C52.2632 52.9774 52.1155 53.5837 52.3984 54.0487C52.5839 54.3536 52.9086 54.5222 53.2414 54.5222C53.4159 54.5222 53.5926 54.4759 53.7525 54.3786L55.9384 53.049L59.0129 54.8057C58.8441 55.2555 58.7512 55.7421 58.7512 56.2502C58.7512 58.5245 60.6014 60.3746 62.8756 60.3746C65.1497 60.3746 66.9999 58.5244 66.9999 56.2502C66.9999 53.9761 65.1499 52.1258 62.8757 52.1258ZM4.12432 58.4035C2.93706 58.4035 1.97109 57.4375 1.97109 56.2502C1.97109 55.063 2.93706 54.097 4.12432 54.097C5.31157 54.097 6.27754 55.063 6.27754 56.2502C6.27754 57.4375 5.31157 58.4035 4.12432 58.4035ZM31.3467 4.60112C31.3467 3.41387 32.3127 2.4479 33.4999 2.4479C34.6872 2.4479 35.6532 3.41387 35.6532 4.60112C35.6532 5.78838 34.6873 6.75435 33.5001 6.75435C32.3128 6.75435 31.3467 5.78838 31.3467 4.60112ZM32.5145 19.3984V20.4355C32.5145 20.9797 32.9558 21.421 33.5001 21.421C34.0443 21.421 34.4856 20.9797 34.4856 20.4355V19.4054L48.6319 28.0104L34.4856 36.6154V35.4611C34.4856 34.9168 34.0443 34.4756 33.5001 34.4756C32.9558 34.4756 32.5145 34.9168 32.5145 35.4611V36.6223L18.2476 28.0102L32.5145 19.3984ZM62.8757 58.4035C61.6884 58.4035 60.7225 57.4375 60.7225 56.2502C60.7225 55.063 61.6884 54.097 62.8757 54.097C64.0629 54.097 65.0289 55.063 65.0289 56.2502C65.0289 57.4375 64.0629 58.4035 62.8757 58.4035Z" fill="white" fill-opacity="0.26"/>
</svg>
