<svg width="78" height="78" viewBox="0 0 78 78" fill="none" xmlns="http://www.w3.org/2000/svg">
<g clip-path="url(#clip0)">
<path d="M75.7148 0H66.5742C65.3122 0 64.2891 1.02314 64.2891 2.28516V4.57031H45.4624C44.5191 1.9107 41.9791 0 39 0C36.0209 0 33.4809 1.9107 32.5376 4.57031H13.7109V2.28516C13.7109 1.02314 12.6878 0 11.4258 0H2.28516C1.02314 0 0 1.02314 0 2.28516V11.4258C0 12.6878 1.02314 13.7109 2.28516 13.7109H11.4258C12.6878 13.7109 13.7109 12.6878 13.7109 11.4258V9.11016H23.2137C14.9694 14.3316 9.95795 23.1524 9.35513 32.5166C6.66321 33.4422 4.72266 35.9979 4.72266 39C4.72266 42.7801 7.79802 45.8555 11.5781 45.8555C15.3582 45.8555 18.4336 42.7801 18.4336 39C18.4336 36.0476 16.5575 33.5251 13.9349 32.562C14.7463 21.7993 22.4963 12.5297 32.8599 9.8996C33.9833 12.1561 36.3128 13.7109 39 13.7109C41.6872 13.7109 44.0167 12.1561 45.1401 9.89975C55.5039 12.5298 63.2537 21.7995 64.0651 32.5621C61.4425 33.5251 59.5664 36.0476 59.5664 39C59.5664 42.7801 62.6418 45.8555 66.4219 45.8555C70.202 45.8555 73.2773 42.7801 73.2773 39C73.2773 35.9979 71.3368 33.4422 68.6449 32.5166C68.0408 23.1337 63.0144 14.3518 54.7863 9.14062H64.2891V11.4258C64.2891 12.6878 65.3122 13.7109 66.5742 13.7109H75.7148C76.9769 13.7109 78 12.6878 78 11.4258V2.28516C78 1.02314 76.9769 0 75.7148 0ZM9.14062 9.14062H4.57031V4.57031H9.14062V9.14062ZM11.5781 41.2852C10.3181 41.2852 9.29297 40.26 9.29297 39C9.29297 37.74 10.3181 36.7148 11.5781 36.7148C12.8382 36.7148 13.8633 37.74 13.8633 39C13.8633 40.26 12.8382 41.2852 11.5781 41.2852ZM39 9.14062C37.74 9.14062 36.7148 8.1155 36.7148 6.85547C36.7148 5.59543 37.74 4.57031 39 4.57031C40.26 4.57031 41.2852 5.59543 41.2852 6.85547C41.2852 8.1155 40.26 9.14062 39 9.14062ZM66.4219 36.7148C67.6819 36.7148 68.707 37.74 68.707 39C68.707 40.26 67.6819 41.2852 66.4219 41.2852C65.1618 41.2852 64.1367 40.26 64.1367 39C64.1367 37.74 65.1618 36.7148 66.4219 36.7148ZM73.4297 9.14062H68.8594V4.57031H73.4297V9.14062Z" fill="white" fill-opacity="0.25"/>
<path d="M59.1825 46.8731L40.9012 19.4514C40.9006 19.4505 40.8999 19.4496 40.8993 19.4485C40.8927 19.4387 40.8855 19.4294 40.8788 19.4198C40.8475 19.3743 40.8144 19.3304 40.78 19.2876C39.817 18.0911 37.9834 18.1718 37.1211 19.4198C37.1144 19.4294 37.1073 19.4387 37.1007 19.4485C37.1001 19.4496 37.0993 19.4503 37.0987 19.4514L18.8175 46.8733C18.2131 47.7796 18.3327 48.9864 19.103 49.7567C23.6622 54.3159 26.564 60.2756 27.3545 66.6517C26.9997 66.9386 26.6571 67.2457 26.3323 67.5781C24.1859 69.7737 23.0039 72.6635 23.0039 75.715C23.0039 76.977 24.027 78.0001 25.289 78.0001H52.7109C53.9729 78.0001 54.9961 76.977 54.9961 75.715C54.9961 72.6635 53.814 69.7737 51.6678 67.578C51.3429 67.2456 51.0004 66.9385 50.6454 66.6516C51.4358 60.2751 54.3377 54.3154 58.8968 49.7567C59.6672 48.9864 59.7868 47.7794 59.1825 46.8731ZM39 45.8556C40.26 45.8556 41.2851 46.8807 41.2851 48.1408C41.2851 49.4008 40.26 50.4259 39 50.4259C37.7399 50.4259 36.7148 49.4008 36.7148 48.1408C36.7148 46.8807 37.7399 45.8556 39 45.8556ZM27.9639 73.4298C28.9147 70.7131 31.492 68.7072 34.4297 68.7072H43.5703C46.5079 68.7072 49.0853 70.7131 50.0361 73.4298H27.9639ZM46.3498 64.4847C45.451 64.2552 44.5192 64.1369 43.5703 64.1369H34.4297C33.4807 64.1369 32.549 64.2552 31.6502 64.4848C30.5807 58.3257 27.8033 52.5683 23.6293 47.8947L36.7148 28.2663V41.6785C34.0551 42.6218 32.1445 45.1618 32.1445 48.1409C32.1445 51.921 35.2199 54.9964 39 54.9964C42.7801 54.9964 45.8555 51.921 45.8555 48.1409C45.8555 45.1618 43.9449 42.6218 41.2851 41.6785V28.2663L54.3709 47.8947C50.1966 52.5679 47.4191 58.3254 46.3498 64.4847Z" fill="white" fill-opacity="0.25"/>
</g>
<defs>
<clipPath id="clip0">
<rect width="78" height="78" fill="white"/>
</clipPath>
</defs>
</svg>
