<svg width="101" height="101" viewBox="0 0 101 101" fill="none" xmlns="http://www.w3.org/2000/svg">
<path d="M50.4999 41.0848C52.3908 41.0848 53.9236 39.5519 53.9236 37.661C53.9236 35.7702 52.3908 34.2373 50.4999 34.2373C48.609 34.2373 47.0762 35.7702 47.0762 37.661C47.0762 39.5519 48.609 41.0848 50.4999 41.0848Z" fill="white" fill-opacity="0.25"/>
<path d="M29.9575 78.7458V85.5933H65.9067V87.3052H29.9575V101H71.0423V78.7458H29.9575Z" fill="white" fill-opacity="0.25"/>
<path d="M5.0211 41.3674C4.81225 42.5281 4.64278 43.711 4.52295 44.8887L7.92956 45.2311C8.03912 44.1424 8.1949 43.0468 8.39005 41.9786L5.0211 41.3674Z" fill="white" fill-opacity="0.25"/>
<path d="M6.81986 34.4924C6.43126 35.6069 6.08376 36.7589 5.78418 37.8973L9.09664 38.767C9.37396 37.7107 9.69408 36.6528 10.0536 35.6171L6.81986 34.4924Z" fill="white" fill-opacity="0.25"/>
<path d="M9.38127 61.5264L6.08594 62.4833C6.41119 63.6114 6.78609 64.7464 7.20207 65.8574L10.4084 64.6505C10.0232 63.6234 9.67572 62.5723 9.38127 61.5264Z" fill="white" fill-opacity="0.25"/>
<path d="M8.04575 55.0913L4.64941 55.5261C4.80006 56.7022 4.99179 57.8817 5.23316 59.0269L8.5867 58.3353C8.36758 57.2739 8.18441 56.1818 8.04575 55.0913Z" fill="white" fill-opacity="0.25"/>
<path d="M11.6786 67.6821L8.57666 69.1269C9.0731 70.1951 9.61919 71.2582 10.1995 72.2905L13.1816 70.6077C12.6458 69.6542 12.139 68.6699 11.6786 67.6821Z" fill="white" fill-opacity="0.25"/>
<path d="M14.9018 73.4099L12.0601 75.3221C12.7226 76.3098 13.4296 77.2787 14.1468 78.198L16.8379 76.0736C16.1685 75.2176 15.5163 74.3258 14.9018 73.4099Z" fill="white" fill-opacity="0.25"/>
<path d="M18.1457 16.6411C17.2983 17.4748 16.4766 18.3444 15.708 19.2226L18.2758 21.4788C19.0016 20.6623 19.7531 19.8577 20.5423 19.0805L18.1457 16.6411Z" fill="white" fill-opacity="0.25"/>
<path d="M29.6546 8.3833C28.6001 8.9174 27.5559 9.49944 26.5493 10.1106L28.3279 13.0361C29.2506 12.4695 30.2161 11.932 31.1953 11.4373L29.6546 8.3833Z" fill="white" fill-opacity="0.25"/>
<path d="M9.65983 27.9854C9.10519 29.0245 8.58649 30.1012 8.1123 31.1848L11.2519 32.5543C11.6884 31.5529 12.1694 30.5549 12.6813 29.5894L9.65983 27.9854Z" fill="white" fill-opacity="0.25"/>
<path d="M13.4685 21.9785C12.7546 22.9389 12.0767 23.9181 11.4468 24.9109L14.3381 26.7443C14.9201 25.8251 15.5484 24.9144 16.2075 24.0328L13.4685 21.9785Z" fill="white" fill-opacity="0.25"/>
<path d="M23.5743 12.072C22.6139 12.7568 21.669 13.4963 20.772 14.2512L22.9751 16.8721C23.8071 16.1719 24.6819 15.4923 25.5737 14.8504L23.5743 12.072Z" fill="white" fill-opacity="0.25"/>
<path d="M36.2092 5.67285C35.0828 6.0409 33.9633 6.45517 32.8779 6.90026L34.1824 10.0672C35.1889 9.65294 36.2263 9.26948 37.2637 8.93053L36.2092 5.67285Z" fill="white" fill-opacity="0.25"/>
<path d="M18.9728 78.583L16.4478 80.8975C17.2421 81.7637 18.0843 82.6093 18.9505 83.4207L21.2889 80.9214C20.486 80.1699 19.7071 79.3807 18.9728 78.583Z" fill="white" fill-opacity="0.25"/>
<path d="M7.70351 49.6444C7.70351 49.2695 7.70351 48.8963 7.71892 48.5214L4.29519 48.4341C4.27979 48.8347 4.27979 49.2404 4.27979 49.6444C4.27979 50.4308 4.29862 51.2107 4.33628 51.9845L7.76001 51.8133C7.72234 51.0954 7.70351 50.3726 7.70351 49.6444Z" fill="white" fill-opacity="0.25"/>
<path d="M92.7096 56.748C92.5384 57.8265 92.3056 58.9101 92.042 59.9698L95.3647 60.7966C95.6489 59.6514 95.8937 58.4787 96.0871 57.3112L92.7096 56.748Z" fill="white" fill-opacity="0.25"/>
<path d="M93.2967 50.1917C93.283 51.2804 93.2265 52.388 93.1255 53.4818L96.5372 53.7797C96.6417 52.6037 96.7016 51.4088 96.7204 50.2362L93.2967 50.1917Z" fill="white" fill-opacity="0.25"/>
<path d="M91.1238 63.1367C90.7814 64.1741 90.3911 65.2115 89.9683 66.2181L93.1232 67.5448C93.582 66.456 94.0031 65.3365 94.3763 64.2135L91.1238 63.1367Z" fill="white" fill-opacity="0.25"/>
<path d="M78.8692 13.1523L76.7671 15.8537C77.623 16.5213 78.4789 17.2351 79.2835 17.9747L81.5877 15.4411C80.7095 14.6451 79.7971 13.873 78.8692 13.1523Z" fill="white" fill-opacity="0.25"/>
<path d="M80.8582 79.8091C80.0982 80.576 79.2987 81.3224 78.4839 82.0259L80.7196 84.6177C81.6029 83.8559 82.4674 83.0514 83.2891 82.2194L80.8582 79.8091Z" fill="white" fill-opacity="0.25"/>
<path d="M72.9457 9.23218L71.2817 12.2245C72.2284 12.7518 73.1768 13.327 74.0943 13.9364L75.9842 11.0793C74.9931 10.4236 73.9711 9.80223 72.9457 9.23218Z" fill="white" fill-opacity="0.25"/>
<path d="M94.7394 36.2129L91.4629 37.2058C91.7796 38.2569 92.0586 39.3268 92.2931 40.3881L95.6364 39.6555C95.3848 38.5051 95.0835 37.3479 94.7394 36.2129Z" fill="white" fill-opacity="0.25"/>
<path d="M66.4922 6.26587L65.3076 9.47904C66.3347 9.85736 67.3619 10.2802 68.3479 10.7355L69.779 7.62509C68.7057 7.13207 67.5998 6.67329 66.4922 6.26587Z" fill="white" fill-opacity="0.25"/>
<path d="M88.5824 23.4575L85.7646 25.3971C86.3878 26.3009 86.9784 27.2356 87.5244 28.1754L90.486 26.4635C89.8971 25.4364 89.2569 24.4333 88.5824 23.4575Z" fill="white" fill-opacity="0.25"/>
<path d="M88.5806 69.1968C88.0807 70.1657 87.5381 71.1312 86.9629 72.0642L89.8731 73.8599C90.4979 72.8516 91.0851 71.8091 91.6226 70.7648L88.5806 69.1968Z" fill="white" fill-opacity="0.25"/>
<path d="M84.1246 17.9302L81.6338 20.2806C82.3819 21.0732 83.1111 21.9068 83.7993 22.7593L86.4613 20.6058C85.7183 19.6883 84.9308 18.7878 84.1246 17.9302Z" fill="white" fill-opacity="0.25"/>
<path d="M96.2664 43.1526L92.877 43.6268C93.0276 44.7001 93.1389 45.8043 93.2091 46.9033L96.6259 46.6842C96.5489 45.4996 96.4291 44.3115 96.2664 43.1526Z" fill="white" fill-opacity="0.25"/>
<path d="M85.1277 74.7986C84.4892 75.6751 83.8044 76.5447 83.0889 77.3869L85.6977 79.6021C86.4681 78.6982 87.2076 77.7584 87.8958 76.8152L85.1277 74.7986Z" fill="white" fill-opacity="0.25"/>
<path d="M92.1563 29.6035L89.0732 31.0843C89.5491 32.0686 89.9908 33.0837 90.3879 34.1006L93.5771 32.8561C93.1475 31.757 92.6699 30.6597 92.1563 29.6035Z" fill="white" fill-opacity="0.25"/>
<path d="M72.5265 38.7326C61.8804 33.7494 55.0946 25.3972 53.9237 13.6949V0H52.2118V32.8404C54.886 33.7858 56.2874 36.7201 55.3418 39.3941C54.3962 42.068 51.4623 43.4696 48.7881 42.5242C46.114 41.5788 44.7126 38.6445 45.6582 35.9706C46.1752 34.508 47.3258 33.3576 48.7881 32.8406V0H47.0762V13.6949C45.9053 25.3972 39.1195 33.7494 28.4734 38.7326C25.9668 39.9637 24.9271 42.9894 26.147 45.5014L29.8104 53.3503C33.2591 60.7714 35.0613 68.8508 35.0932 77.0339H38.5169V75.007C38.5281 63.2701 35.0534 51.7942 28.5333 42.0348L31.3819 40.1347C38.2773 50.4566 41.9522 62.5937 41.9407 75.007V77.0339H59.0593V75.007C59.0477 62.5937 62.7227 50.4566 69.6181 40.1347L72.4666 42.0348C65.9466 51.7942 62.4719 63.2701 62.483 75.007V77.0339H65.9067C65.9386 68.8508 67.7408 60.7714 71.1896 53.3503L74.853 45.5014C76.0731 42.9894 75.0331 39.9637 72.5265 38.7326ZM52.2118 58.2034H48.7881V54.7797H52.2118V58.2034ZM57.3474 51.3559H43.6525V47.9322H57.3474V51.3559Z" fill="white" fill-opacity="0.25"/>
</svg>
