<svg width="81" height="81" viewBox="0 0 81 81" fill="none" xmlns="http://www.w3.org/2000/svg">
<g clip-path="url(#clip0)">
<path d="M77.8948 56.6085C75.8679 54.3007 73.0317 53.0297 69.9088 53.0297H69.4368C69.4374 52.4931 69.3494 51.9538 69.166 51.4352C68.0473 48.2719 67.0689 43.5871 68.7619 39.2309C68.7619 39.2309 68.7619 39.2309 68.7619 39.2307C69.33 37.7691 69.1404 36.1236 68.2548 34.8293C67.369 33.5349 65.9039 32.7622 64.3355 32.7622H11.0909C4.56066 32.7622 0 37.906 0 45.2711C0 48.9013 1.0851 52.0246 3.13814 54.3035C5.15776 56.5453 7.98207 57.7799 11.0911 57.7799H11.916C11.9162 58.3597 12.022 58.9423 12.2381 59.4984C14.0458 64.1499 12.7609 69.2405 11.834 71.8611C11.3186 73.3181 11.5428 74.9405 12.4336 76.2004C13.3214 77.4562 14.7699 78.2057 16.3085 78.2057H69.9091C73.0181 78.2057 75.8424 76.9712 77.862 74.7294C79.9151 72.4504 81.0002 69.3271 81.0002 65.6969C81 62.0641 79.9261 58.9214 77.8948 56.6085ZM4.75019 45.2711C4.75019 40.5578 7.23914 37.5124 11.0909 37.5124L64.3369 37.5023C64.3369 37.5024 64.3363 37.505 64.3343 37.5102C62.1135 43.2242 63.3008 49.098 64.6875 53.0193C64.6875 53.0193 64.6864 53.025 64.6855 53.0297H16.6642H11.0909C7.23914 53.0297 4.75019 49.9844 4.75019 45.2711ZM69.9089 73.4555L16.3142 73.4551C16.3134 73.4505 16.3123 73.4451 16.3123 73.4451C17.4585 70.2043 19.0286 63.8605 16.6665 57.7799H64.6916H69.9089C73.7016 57.7799 76.2498 60.9616 76.2498 65.6969C76.2498 70.4102 73.7609 73.4555 69.9089 73.4555Z" fill="white" fill-opacity="0.26"/>
<path d="M54.5858 45.2711C54.5858 43.9594 53.5224 42.896 52.2107 42.896H14.8341C13.5224 42.896 12.459 43.9594 12.459 45.2711C12.459 46.5828 13.5224 47.6462 14.8341 47.6462H52.2108C53.5224 47.6462 54.5858 46.5829 54.5858 45.2711Z" fill="white" fill-opacity="0.26"/>
<path d="M66.2362 63.1584H28.8595C27.5478 63.1584 26.4844 64.2219 26.4844 65.5336C26.4844 66.8452 27.5478 67.9087 28.8595 67.9087H66.2362C67.5479 67.9087 68.6113 66.8452 68.6113 65.5336C68.6113 64.2219 67.5481 63.1584 66.2362 63.1584Z" fill="white" fill-opacity="0.26"/>
<path d="M25.3363 11.0526C25.7053 11.0526 26.0797 10.9663 26.4297 10.7845C26.5707 10.711 40.7021 3.53349 54.6393 10.784C55.8033 11.39 57.2372 10.9371 57.8424 9.77319C58.4477 8.60939 57.9953 7.17547 56.8315 6.57014C50.1537 3.09616 42.4076 1.99047 34.4314 3.37278C28.4363 4.41181 24.4072 6.4821 24.2387 6.56966C23.0748 7.17468 22.6218 8.6086 23.2266 9.77256C23.6499 10.5864 24.4783 11.0526 25.3363 11.0526Z" fill="white" fill-opacity="0.26"/>
<path d="M33.3193 22.7983C32.1013 23.2854 31.505 24.6691 31.9922 25.8872C32.3639 26.8162 33.2539 27.3821 34.1959 27.3821C34.4888 27.3821 34.7866 27.3273 35.0756 27.2119C35.1307 27.1902 40.6549 25.0762 45.9865 27.2086C47.2041 27.6958 48.5867 27.1034 49.0738 25.8857C49.561 24.6677 48.9686 23.2854 47.7509 22.7983C40.6169 19.9446 33.6141 22.6805 33.3193 22.7983Z" fill="white" fill-opacity="0.26"/>
<path d="M50.6682 18.9401C51.6082 18.9401 52.4984 18.3782 52.8716 17.4527C53.3623 16.2362 52.7739 14.8523 51.5574 14.3617C40.6603 9.9667 29.963 14.1803 29.513 14.3617C28.2985 14.8516 27.712 16.2313 28.1993 17.4468C28.6865 18.6624 30.0681 19.2532 31.285 18.7691C31.3779 18.7319 40.701 15.1048 49.7805 18.7671C50.0718 18.8847 50.3724 18.9401 50.6682 18.9401Z" fill="white" fill-opacity="0.26"/>
</g>
<defs>
<clipPath id="clip0">
<rect width="81" height="81" fill="white"/>
</clipPath>
</defs>
</svg>
