<svg width="70" height="70" viewBox="0 0 70 70" fill="none" xmlns="http://www.w3.org/2000/svg">
<path d="M20.6445 57.5586C20.6445 55.1955 19.6388 53.064 18.0346 51.5658L18.0354 51.5545C18.1807 49.5466 18.2984 47.4299 18.3878 45.2458C22.5869 46.0369 25.5623 47.629 27.2467 49.9938C29.4186 53.0429 28.8401 56.624 28.6111 57.6488C27.8477 61.0656 29.871 64.5269 33.2985 65.1853C35.2796 65.5658 37.2565 65.7558 39.2204 65.7558C46.1055 65.7558 53.0104 63.4026 58.7104 58.6946C65.8826 52.7706 69.9975 44.1345 69.9999 35.0007C70.0048 17.6891 54.9485 3.56562 39.225 4.13014C30.6343 4.43871 22.9138 8.6707 17.5906 13.329C17.5226 12.6942 17.4513 12.0761 17.3768 11.4767C16.9863 8.33465 16.5251 5.84391 16.0058 4.07353C15.6484 2.85455 14.8112 0 12.4414 0C10.0717 0 9.23439 2.85455 8.87701 4.07353C8.35775 5.84391 7.8966 8.33465 7.506 11.4767C6.72123 17.7911 6.28906 26.1451 6.28906 35C6.28906 40.7851 6.48211 46.5095 6.84742 51.5543L6.84824 51.5658C5.24398 53.064 4.23828 55.1955 4.23828 57.5586V61.7969C4.23828 64.0202 2.29742 65.8984 0 65.8984V70H8.33984C15.1143 70 20.6445 64.3854 20.6445 57.5586ZM39.3721 8.2291C52.5861 7.75496 65.9027 19.8189 65.8984 34.9995C65.8962 42.906 62.3243 50.3899 56.0986 55.5323C49.946 60.6141 41.9173 62.6642 34.0724 61.1574C32.9305 60.9381 32.3563 59.6967 32.6141 58.5432C33.0274 56.6932 33.6576 51.9244 30.5875 47.6142C28.1788 44.2325 24.1244 42.047 18.5213 41.1038C18.5689 39.095 18.5933 34.8471 18.5933 34.7706C19.3925 35.7018 20.4509 36.3721 21.6619 36.6965C24.946 37.5766 28.3209 35.6155 29.197 32.3462C30.075 29.0693 28.1233 25.6892 24.8466 24.8112C22.3856 24.1518 19.9288 25.0806 18.4692 26.8844C18.378 23.971 18.2376 21.1765 18.0517 18.5644C22.6923 13.6615 30.5382 8.54643 39.3721 8.2291ZM21.2734 30.2229C21.5668 29.1281 22.6901 28.4793 23.7851 28.7727C24.8773 29.0654 25.528 30.1921 25.2353 31.2844C24.9426 32.3768 23.8153 33.0273 22.7235 32.7346C21.6288 32.4413 20.98 31.318 21.2734 30.2229ZM11.3742 13.7323C11.7284 10.4314 12.1074 8.19396 12.4414 6.68801C12.7754 8.19396 13.1544 10.4314 13.5086 13.7323C14.1429 19.6428 14.4922 27.1958 14.4922 35C14.4922 35.685 14.4893 36.3688 14.4838 37.0508H10.399C10.3935 36.3688 10.3906 35.685 10.3906 35C10.3906 27.1958 10.7399 19.6428 11.3742 13.7323ZM10.4651 41.151H14.4177C14.3474 44.0471 14.2278 46.8636 14.0617 49.5169C13.5376 49.4115 12.9959 49.3555 12.4414 49.3555C11.8869 49.3555 11.3452 49.4115 10.8212 49.5169C10.6552 46.8636 10.5355 44.0472 10.4651 41.151ZM8.33984 61.7969V57.5586C8.33984 55.297 10.1798 53.457 12.4414 53.457C14.703 53.457 16.543 55.297 16.543 57.5586C16.543 62.1571 12.863 65.8984 8.33984 65.8984H7.21109C7.94746 64.6624 8.33984 63.2579 8.33984 61.7969Z" fill="white" fill-opacity="0.26"/>
<path d="M55.0531 27.7494C57.4574 25.3452 57.4579 21.4534 55.0531 19.0486C52.6545 16.6499 48.7511 16.6497 46.3523 19.0486C43.9479 21.4528 43.9474 25.3446 46.3523 27.7494C48.751 30.1481 52.6542 30.1483 55.0531 27.7494ZM49.2525 21.949C50.0522 21.1494 51.353 21.1493 52.1528 21.949C52.9544 22.7505 52.9544 24.0476 52.1528 24.8492C51.3529 25.6488 50.0522 25.6487 49.2525 24.8492C48.4511 24.0476 48.4509 22.7504 49.2525 21.949Z" fill="white" fill-opacity="0.26"/>
<path d="M36.4475 25.0957C39.7242 24.2177 41.676 20.8375 40.798 17.5607C39.9197 14.284 36.5395 12.3323 33.2629 13.2103C29.9861 14.0883 28.0345 17.4686 28.9125 20.7454C29.7925 24.0297 33.1626 25.9758 36.4475 25.0957ZM34.3245 17.172C35.4191 16.8788 36.5441 17.5324 36.8363 18.6221C37.129 19.7143 36.4784 20.8411 35.3861 21.1337C34.2914 21.427 33.1678 20.7787 32.8744 19.6837C32.5816 18.5914 33.2321 17.4647 34.3245 17.172Z" fill="white" fill-opacity="0.26"/>
<path d="M37.4051 52.4395C38.2821 55.7115 41.6587 57.6691 44.9404 56.7898C48.2171 55.9118 50.1686 52.5315 49.2906 49.2548C48.4106 45.971 45.0412 44.0242 41.7555 44.9044C38.4788 45.7824 36.5271 49.1626 37.4051 52.4395ZM42.8173 48.8661C43.914 48.5722 45.0362 49.2235 45.3288 50.3161C45.6215 51.4085 44.971 52.5352 43.8788 52.8279C42.7864 53.1207 41.6598 52.4699 41.3671 51.3779C41.0744 50.2855 41.7249 49.1588 42.8173 48.8661Z" fill="white" fill-opacity="0.26"/>
<path d="M49.0057 37.654C48.1277 40.9309 50.0794 44.311 53.3561 45.1891C56.6379 46.0685 60.0104 44.1257 60.8911 40.8387C61.771 37.5545 59.8255 34.1838 56.5409 33.3038C53.2567 32.4233 49.8861 34.3692 49.0057 37.654ZM56.9293 39.7771C56.6363 40.8717 55.5126 41.5207 54.4177 41.2273C53.3255 40.9346 52.675 39.8079 52.9677 38.7155C53.2603 37.623 54.3822 36.9715 55.4792 37.2654C56.5713 37.558 57.222 38.6847 56.9293 39.7771Z" fill="white" fill-opacity="0.26"/>
</svg>
