<svg width="22" height="28" viewBox="0 0 22 28" fill="none" xmlns="http://www.w3.org/2000/svg">
<path d="M8.93757 0L7.89276 4.10156H11.8192L10.9978 0H8.93757Z" fill="#F5D844"/>
<path d="M13.0609 0H10.9984V4.10156H14.1057L13.0609 0Z" fill="#ECBD2C"/>
<path d="M4.76532 23.6885H11.5442V25.3291H4.76532V23.6885Z" fill="#ECBD2C"/>
<path d="M10.9984 23.6885H17.2165V25.3291H10.9984V23.6885Z" fill="#E06426"/>
<path d="M1.86011 2.82227H20.1362V15.9171H1.86011V2.82227Z" fill="#EAF2FE"/>
<path d="M10.9991 2.82227H20.1361V15.9171H10.9991V2.82227Z" fill="#D6E7FE"/>
<path d="M3.22327 27.248L6.21593 15.7066L7.80406 16.1184L4.81139 27.6598L3.22327 27.248Z" fill="#F5D844"/>
<path d="M14.1917 16.127L15.7798 15.7151L18.7725 27.2566L17.1843 27.6684L14.1917 16.127Z" fill="#E68F21"/>
<path d="M10.1788 15.917H11.405V27.9996H10.1788V15.917Z" fill="#F5D844"/>
<path d="M10.9991 15.917H11.8194V27.9996H10.9991V15.917Z" fill="#E68F21"/>
<path d="M10.5622 8.69155C9.433 9.22705 8.45076 10.0417 7.71576 11.063V16.296H11.8195L10.9991 8.50195C10.8514 8.56074 10.7055 8.62363 10.5622 8.69155Z" fill="#8BC605"/>
<path d="M11.3878 16.3378L10.9885 15.06C10.053 12.0665 7.28068 10.0283 4.1444 10.0283H1.86011V16.3325L11.3878 16.3378Z" fill="#ACE233"/>
<path d="M20.1525 7.97656H13.739C12.7795 7.97656 11.8533 8.16184 10.9991 8.50173V16.2958H20.1525V7.97656Z" fill="#80B405"/>
<path d="M0.635803 15.0967H11.8201V16.7373H0.635803V15.0967Z" fill="#F5D844"/>
<path d="M21.3639 16.7373H11.8203L11.4102 16.9561L11 16.7373V15.0967H21.3639V16.7373Z" fill="#E68F21"/>
</svg>
