<svg width="42" height="42" viewBox="0 0 42 42" fill="none" xmlns="http://www.w3.org/2000/svg">
<circle cx="21" cy="21" r="21" fill="#3E3E3E"/>
<mask id="path-2-inside-1" fill="white">
<path d="M21.1334 22.2885L26.9667 30.0667C27.0317 30.1533 27.0713 30.2564 27.081 30.3643C27.0907 30.4722 27.0702 30.5806 27.0218 30.6775C26.9733 30.7744 26.8989 30.8559 26.8067 30.9129C26.7145 30.9698 26.6084 31 26.5 31H14.8334C14.725 31 14.6188 30.9698 14.5267 30.9129C14.4345 30.8559 14.3601 30.7744 14.3116 30.6775C14.2632 30.5806 14.2426 30.4722 14.2524 30.3643C14.2621 30.2564 14.3017 30.1533 14.3667 30.0667L20.2 22.2885C20.2544 22.2161 20.3248 22.1572 20.4058 22.1167C20.4868 22.0763 20.5761 22.0552 20.6667 22.0552C20.7572 22.0552 20.8466 22.0763 20.9276 22.1167C21.0086 22.1572 21.079 22.2161 21.1334 22.2885ZM27.6667 28.6667V26.3333H30V12.3333H11.3334V26.3333H13.6667V28.6667H10.1574C10.0047 28.6664 9.85355 28.6359 9.71266 28.5771C9.57178 28.5182 9.4439 28.4321 9.33637 28.3237C9.22884 28.2153 9.14378 28.0867 9.08606 27.9454C9.02834 27.804 8.9991 27.6527 9.00002 27.5V11.1667C9.00002 10.5227 9.53085 10 10.1574 10H31.176C31.8154 10 32.3334 10.5192 32.3334 11.1667V27.5C32.3334 28.144 31.8025 28.6667 31.176 28.6667H27.6667Z"/>
</mask>
<path d="M21.1334 22.2885L22.7334 21.0885L22.7334 21.0885L21.1334 22.2885ZM26.9667 30.0667L25.3667 31.2666L25.3667 31.2667L26.9667 30.0667ZM14.3667 30.0667L15.9667 31.2667L15.9667 31.2666L14.3667 30.0667ZM20.2 22.2885L18.6 21.0885L18.6 21.0885L20.2 22.2885ZM27.6667 28.6667H25.6667V30.6667H27.6667V28.6667ZM27.6667 26.3333V24.3333H25.6667V26.3333H27.6667ZM30 26.3333V28.3333H32V26.3333H30ZM30 12.3333H32V10.3333H30V12.3333ZM11.3334 12.3333V10.3333H9.33335V12.3333H11.3334ZM11.3334 26.3333H9.33335V28.3333H11.3334V26.3333ZM13.6667 26.3333H15.6667V24.3333H13.6667V26.3333ZM13.6667 28.6667V30.6667H15.6667V28.6667H13.6667ZM10.1574 28.6667L10.1534 30.6667H10.1574V28.6667ZM9.00002 27.5L11 27.5121V27.5H9.00002ZM19.5333 23.4885L25.3667 31.2666L28.5667 28.8667L22.7334 21.0885L19.5333 23.4885ZM25.3667 31.2667C25.2088 31.0562 25.1127 30.8059 25.0891 30.5439L29.0729 30.1847C29.0298 29.7068 28.8545 29.2505 28.5667 28.8667L25.3667 31.2667ZM25.0891 30.5439C25.0655 30.2819 25.1153 30.0184 25.2329 29.7831L28.8106 31.572C29.0252 31.1429 29.116 30.6625 29.0729 30.1847L25.0891 30.5439ZM25.2329 29.7831C25.3506 29.5478 25.5314 29.3499 25.7552 29.2116L27.8582 32.6142C28.2663 32.362 28.5961 32.0011 28.8106 31.572L25.2329 29.7831ZM25.7552 29.2116C25.979 29.0733 26.2369 29 26.5 29V33C26.9798 33 27.4501 32.8664 27.8582 32.6142L25.7552 29.2116ZM26.5 29H14.8334V33H26.5V29ZM14.8334 29C15.0964 29 15.3543 29.0733 15.5781 29.2116L13.4752 32.6142C13.8833 32.8664 14.3536 33 14.8334 33V29ZM15.5781 29.2116C15.8019 29.3499 15.9828 29.5478 16.1005 29.7831L12.5228 31.572C12.7373 32.0011 13.0671 32.362 13.4752 32.6142L15.5781 29.2116ZM16.1005 29.7831C16.2181 30.0184 16.2679 30.2819 16.2443 30.5439L12.2605 30.1847C12.2174 30.6625 12.3082 31.1429 12.5228 31.572L16.1005 29.7831ZM16.2443 30.5439C16.2207 30.8059 16.1245 31.0562 15.9667 31.2667L12.7667 28.8667C12.4788 29.2505 12.3035 29.7068 12.2605 30.1847L16.2443 30.5439ZM15.9667 31.2666L21.8001 23.4885L18.6 21.0885L12.7667 28.8667L15.9667 31.2666ZM21.8 23.4885C21.6681 23.6644 21.497 23.8072 21.3002 23.9056L19.5114 20.3279C19.1527 20.5073 18.8406 20.7677 18.6 21.0885L21.8 23.4885ZM21.3002 23.9056C21.1035 24.004 20.8866 24.0552 20.6667 24.0552V20.0552C20.2656 20.0552 19.8701 20.1485 19.5114 20.3279L21.3002 23.9056ZM20.6667 24.0552C20.4468 24.0552 20.2299 24.004 20.0331 23.9056L21.822 20.3279C21.4633 20.1485 21.0677 20.0552 20.6667 20.0552V24.0552ZM20.0331 23.9056C19.8364 23.8072 19.6653 23.6644 19.5334 23.4885L22.7334 21.0885C22.4927 20.7677 22.1807 20.5073 21.822 20.3279L20.0331 23.9056ZM29.6667 28.6667V26.3333H25.6667V28.6667H29.6667ZM27.6667 28.3333H30V24.3333H27.6667V28.3333ZM32 26.3333V12.3333H28V26.3333H32ZM30 10.3333H11.3334V14.3333H30V10.3333ZM9.33335 12.3333V26.3333H13.3334V12.3333H9.33335ZM11.3334 28.3333H13.6667V24.3333H11.3334V28.3333ZM11.6667 26.3333V28.6667H15.6667V26.3333H11.6667ZM13.6667 26.6667H10.1574V30.6667H13.6667V26.6667ZM10.1613 26.6667C10.272 26.6669 10.3815 26.689 10.4836 26.7316L8.94175 30.4225C9.32561 30.5829 9.73736 30.6658 10.1534 30.6667L10.1613 26.6667ZM10.4836 26.7316C10.5857 26.7743 10.6783 26.8366 10.7563 26.9152L7.91649 29.7322C8.20947 30.0276 8.55788 30.2622 8.94175 30.4225L10.4836 26.7316ZM10.7563 26.9152C10.8342 26.9937 10.8958 27.0869 10.9376 27.1893L7.23447 28.7015C7.39174 29.0866 7.62351 29.4369 7.91649 29.7322L10.7563 26.9152ZM10.9376 27.1893C10.9795 27.2918 11.0007 27.4014 11 27.5121L7.00006 27.4879C6.99755 27.9039 7.07721 28.3163 7.23447 28.7015L10.9376 27.1893ZM11 27.5V11.1667H7.00002V27.5H11ZM11 11.1667C11 11.6259 10.6367 12 10.1574 12V8C8.42498 8 7.00002 9.4194 7.00002 11.1667H11ZM10.1574 12H31.176V8H10.1574V12ZM31.176 12C30.699 12 30.3334 11.6119 30.3334 11.1667H34.3334C34.3334 9.42639 32.9317 8 31.176 8V12ZM30.3334 11.1667V27.5H34.3334V11.1667H30.3334ZM30.3334 27.5C30.3334 27.0407 30.6967 26.6667 31.176 26.6667V30.6667C32.9084 30.6667 34.3334 29.2473 34.3334 27.5H30.3334ZM31.176 26.6667H27.6667V30.6667H31.176V26.6667Z" fill="white" mask="url(#path-2-inside-1)"/>
</svg>
