<svg width="28" height="28" viewBox="0 0 28 28" fill="none" xmlns="http://www.w3.org/2000/svg">
<g clip-path="url(#clip0)">
<path d="M16.333 15.1674C14.4034 15.1674 12.833 13.5971 12.833 11.6675C12.833 9.73781 14.4034 8.16749 16.333 8.16749H18.6662V3.50094C18.6662 1.5713 17.0958 0.000976562 15.1662 0.000976562H2.62475C2.24087 0.000976562 1.88156 0.189817 1.66346 0.505976C1.44642 0.822135 1.3975 1.22481 1.53507 1.58284L9.99339 23.7494C10.1649 24.2021 10.5988 24.5007 11.0831 24.5007H15.1662C17.0958 24.5007 18.6662 22.9304 18.6662 21.0008V15.1674H16.333Z" fill="#2196F3"/>
<path d="M21.7197 17.4112C21.2845 17.2302 20.9998 16.8045 20.9998 16.333V12.8331H16.3332C15.6892 12.8331 15.1664 12.3106 15.1664 11.6665C15.1664 11.0224 15.6892 10.4999 16.3332 10.4999H20.9998V6.99994C20.9998 6.52848 21.2845 6.10274 21.7197 5.9218C22.1559 5.74108 22.6577 5.84148 22.9912 6.17515L27.6579 10.8417C28.114 11.2978 28.114 12.0352 27.6579 12.4913L22.9912 17.158C22.6577 17.4915 22.1559 17.5919 21.7197 17.4112Z" fill="#607D8B"/>
<path d="M10.087 2.45245L3.07657 0.115655C1.49449 -0.370759 0 0.797106 0 2.33347V23.3332C0 24.3309 0.634667 25.221 1.57973 25.5476L8.58884 27.8844C8.84668 27.9637 9.08358 28 9.33331 28C10.6202 28 11.6665 26.9535 11.6665 25.6666V4.66685C11.6665 3.66945 11.0318 2.77929 10.087 2.45245Z" fill="#64B5F6"/>
</g>
<defs>
<clipPath id="clip0">
<rect width="28" height="28" fill="white"/>
</clipPath>
</defs>
</svg>
