<svg width="46" height="45" viewBox="0 0 46 45" fill="none" xmlns="http://www.w3.org/2000/svg">
<g clip-path="url(#clip0)">
<path d="M45.0066 22.5C45.0066 29.9286 39.0066 36 31.5066 36C24.078 36 18.0066 29.9286 18.0066 22.5C18.0066 15.0714 24.0066 9 31.4351 9C39.0066 9 45.0066 15.0714 45.0066 22.5Z" fill="#FFB600"/>
<path d="M31.5066 9C38.9351 9 45.0066 15.0714 45.0066 22.5C45.0066 29.9286 39.0066 36 31.5066 36C24.078 36 18.0066 29.9286 18.0066 22.5" fill="#F7981D"/>
<path d="M31.5066 9C38.9352 9 45.0066 15.0714 45.0066 22.5C45.0066 29.9286 39.0066 36 31.5066 36" fill="#FF8500"/>
<path d="M13.3637 9C6.00659 9.07143 0.0065918 15.0714 0.0065918 22.5C0.0065918 29.9286 6.00659 36 13.5066 36C17.0066 36 20.1495 34.6429 22.578 32.5C23.078 32.0714 23.5066 31.5714 23.9352 31.0714H21.1495C20.7923 30.6429 20.4352 30.1429 20.1495 29.7143H24.9352C25.2209 29.2857 25.5066 28.7857 25.7209 28.2857H19.3637C19.1495 27.8571 18.9352 27.3571 18.7923 26.8571H26.2209C26.6495 25.5 26.9352 24.0714 26.9352 22.5714C26.9352 21.5714 26.7923 20.6429 26.6494 19.7143H18.3637C18.4352 19.2143 18.578 18.7857 18.7209 18.2857H26.1494C26.0066 17.7857 25.7923 17.2857 25.578 16.8571H19.2923C19.5066 16.3571 19.7923 15.9286 20.078 15.4286H24.8637C24.578 14.9286 24.2209 14.4286 23.7923 14H21.1495C21.578 13.5 22.0066 13.0714 22.5066 12.6429C20.1495 10.4286 16.9352 9.14286 13.4352 9.14286C13.4352 9 13.4352 9 13.3637 9Z" fill="#FF5050"/>
<path d="M0.0065918 22.4997C0.0065918 29.9283 6.00659 35.9997 13.5066 35.9997C17.0066 35.9997 20.1495 34.6426 22.578 32.4997C23.078 32.0711 23.5066 31.5711 23.9352 31.0711H21.1495C20.7923 30.6426 20.4352 30.1426 20.1495 29.714H24.9352C25.2209 29.2854 25.5066 28.7854 25.7209 28.2854H19.3637C19.1495 27.8569 18.9352 27.3569 18.7923 26.8569H26.2209C26.6495 25.4997 26.9352 24.0711 26.9352 22.5711C26.9352 21.5711 26.7923 20.6426 26.6494 19.714H18.3637C18.4352 19.214 18.578 18.7854 18.7209 18.2854H26.1494C26.0066 17.7854 25.7923 17.2854 25.578 16.8569H19.2923C19.5066 16.3569 19.7923 15.9283 20.078 15.4283H24.8637C24.578 14.9283 24.2209 14.4283 23.7923 13.9997H21.1495C21.578 13.4997 22.0066 13.0711 22.5066 12.6426C20.1495 10.4283 16.9352 9.14258 13.4352 9.14258H13.3637" fill="#E52836"/>
<path d="M13.5066 35.9997C17.0066 35.9997 20.1495 34.6426 22.5781 32.4997C23.0781 32.0711 23.5066 31.5711 23.9352 31.0711H21.1495C20.7923 30.6426 20.4352 30.1426 20.1495 29.714H24.9352C25.2209 29.2854 25.5066 28.7854 25.7209 28.2854H19.3638C19.1495 27.8569 18.9352 27.3569 18.7923 26.8569H26.2209C26.6495 25.4997 26.9352 24.0711 26.9352 22.5711C26.9352 21.5711 26.7923 20.6426 26.6495 19.714H18.3638C18.4352 19.214 18.5781 18.7854 18.7209 18.2854H26.1495C26.0066 17.7854 25.7923 17.2854 25.5781 16.8569H19.2923C19.5066 16.3569 19.7923 15.9283 20.0781 15.4283H24.8638C24.5781 14.9283 24.2209 14.4283 23.7923 13.9997H21.1495C21.5781 13.4997 22.0066 13.0711 22.5066 12.6426C20.1495 10.4283 16.9352 9.14258 13.4352 9.14258H13.3638" fill="#CB2026"/>
<path d="M18.2926 25.9302L18.5069 24.716C18.4355 24.716 18.2926 24.7874 18.1498 24.7874C17.6498 24.7874 17.5783 24.5017 17.6498 24.3588L18.0783 21.8588H18.864L19.0783 20.5017H18.364L18.5069 19.6445H17.0783C17.0783 19.6445 16.2212 24.3588 16.2212 24.9302C16.2212 25.7874 16.7212 26.1445 17.364 26.1445C17.7926 26.1445 18.1498 26.0017 18.2926 25.9302Z" fill="white"/>
<path d="M18.7925 23.6432C18.7925 25.6432 20.1496 26.1432 21.2925 26.1432C22.3639 26.1432 22.7925 25.9289 22.7925 25.9289L23.0782 24.5718C23.0782 24.5718 22.2925 24.929 21.5782 24.929C20.0068 24.929 20.2925 23.7861 20.2925 23.7861H23.2211C23.2211 23.7861 23.4353 22.8575 23.4353 22.5004C23.4353 21.5718 22.9353 20.429 21.3639 20.429C19.8639 20.2861 18.7925 21.8575 18.7925 23.6432ZM21.2925 21.5718C22.0782 21.5718 21.9353 22.5004 21.9353 22.5718H20.3639C20.3639 22.5004 20.5068 21.5718 21.2925 21.5718Z" fill="white"/>
<path d="M30.3639 25.9286L30.6496 24.3572C30.6496 24.3572 29.9353 24.7143 29.4353 24.7143C28.4353 24.7143 28.0067 23.9286 28.0067 23.0714C28.0067 21.3571 28.8639 20.4286 29.8639 20.4286C30.5782 20.4286 31.1496 20.8571 31.1496 20.8571L31.3639 19.3571C31.3639 19.3571 30.5067 19 29.721 19C28.0782 19 26.4353 20.4286 26.4353 23.1429C26.4353 24.9286 27.2924 26.1429 29.0067 26.1429C29.5782 26.1429 30.3639 25.9286 30.3639 25.9286Z" fill="white"/>
<path d="M10.4352 20.2852C9.43523 20.2852 8.72095 20.5709 8.72095 20.5709L8.50666 21.7852C8.50666 21.7852 9.14952 21.4994 10.0781 21.4994C10.5781 21.4994 11.0067 21.5709 11.0067 21.9994C11.0067 22.2852 10.9352 22.3566 10.9352 22.3566C10.9352 22.3566 10.5067 22.3566 10.2924 22.3566C9.07809 22.3566 7.72095 22.8566 7.72095 24.4995C7.72095 25.7852 8.57809 26.0709 9.07809 26.0709C10.0781 26.0709 10.5067 25.428 10.5781 25.428L10.5067 25.9995H11.7924L12.3638 22.0709C12.3638 20.3566 10.9352 20.2852 10.4352 20.2852ZM10.7209 23.4995C10.7209 23.7137 10.5781 24.8566 9.72094 24.8566C9.29237 24.8566 9.14952 24.4995 9.14952 24.2852C9.14952 23.928 9.3638 23.428 10.4352 23.428C10.6495 23.4995 10.7209 23.4995 10.7209 23.4995Z" fill="white"/>
<path d="M13.721 26.072C14.0781 26.072 15.8638 26.1434 15.8638 24.2148C15.8638 22.4291 14.1496 22.7863 14.1496 22.072C14.1496 21.7148 14.4353 21.572 14.9353 21.572C15.1496 21.572 15.9353 21.6434 15.9353 21.6434L16.1496 20.3577C16.1496 20.3577 15.6496 20.2148 14.7924 20.2148C13.721 20.2148 12.6496 20.6434 12.6496 22.072C12.6496 23.7148 14.4353 23.572 14.4353 24.2148C14.4353 24.6434 13.9353 24.7148 13.5781 24.7148C12.9353 24.7148 12.2924 24.5006 12.2924 24.5006L12.0781 25.7863C12.1496 25.9291 12.5067 26.072 13.721 26.072Z" fill="white"/>
<path d="M42.2211 19.1426L41.9354 21.0711C41.9354 21.0711 41.3639 20.3569 40.5782 20.3569C39.2925 20.3569 38.1497 21.9283 38.1497 23.7854C38.1497 24.9283 38.7211 26.1426 39.9354 26.1426C40.7925 26.1426 41.2925 25.5711 41.2925 25.5711L41.2211 26.0711H42.6497L43.7211 19.214L42.2211 19.1426ZM41.5782 22.9283C41.5782 23.714 41.2211 24.714 40.4354 24.714C39.9354 24.714 39.6497 24.2854 39.6497 23.5711C39.6497 22.4283 40.1497 21.714 40.7925 21.714C41.2925 21.714 41.5782 22.0711 41.5782 22.9283Z" fill="white"/>
<path d="M2.64962 25.9997L3.50677 20.8569L3.64962 25.9997H4.64962L6.50677 20.8569L5.72105 25.9997H7.22105L8.36391 19.1426H6.00677L4.5782 23.3569L4.50677 19.1426H2.43534L1.29248 25.9997H2.64962Z" fill="white"/>
<path d="M24.7924 25.9992C25.2209 23.642 25.2924 21.7134 26.2924 22.0706C26.4352 21.142 26.6495 20.7849 26.7924 20.4277C26.7924 20.4277 26.7209 20.4277 26.5067 20.4277C25.8638 20.4277 25.3638 21.2849 25.3638 21.2849L25.5067 20.4992H24.1495L23.2209 26.0706H24.7924V25.9992Z" fill="white"/>
<path d="M33.6496 20.2852C32.6496 20.2852 31.9353 20.5709 31.9353 20.5709L31.721 21.7852C31.721 21.7852 32.3639 21.4994 33.2924 21.4994C33.7924 21.4994 34.221 21.5709 34.221 21.9994C34.221 22.2852 34.1496 22.3566 34.1496 22.3566C34.1496 22.3566 33.721 22.3566 33.5067 22.3566C32.2924 22.3566 30.9353 22.8566 30.9353 24.4995C30.9353 25.7852 31.7924 26.0709 32.2924 26.0709C33.2925 26.0709 33.721 25.428 33.7924 25.428L33.721 25.9995H35.0067L35.5782 22.0709C35.6496 20.3566 34.1496 20.2852 33.6496 20.2852ZM34.0067 23.4995C34.0067 23.7137 33.8639 24.8566 33.0067 24.8566C32.5782 24.8566 32.4353 24.4995 32.4353 24.2852C32.4353 23.928 32.6496 23.428 33.721 23.428C33.9353 23.4995 33.9353 23.4995 34.0067 23.4995Z" fill="white"/>
<path d="M36.7924 25.9992C37.221 23.642 37.2924 21.7134 38.2924 22.0706C38.4352 21.142 38.6495 20.7849 38.7924 20.4277C38.7924 20.4277 38.721 20.4277 38.5067 20.4277C37.8638 20.4277 37.3638 21.2849 37.3638 21.2849L37.5067 20.4992H36.1495L35.2209 26.0706H36.7924V25.9992Z" fill="white"/>
<path d="M16.0781 24.9302C16.0781 25.7874 16.5781 26.1445 17.221 26.1445C17.721 26.1445 18.1496 26.0017 18.2924 25.9302L18.5067 24.716C18.4353 24.716 18.2924 24.7874 18.1496 24.7874C17.6496 24.7874 17.5781 24.5017 17.6496 24.3588L18.0781 21.8588H18.8638L19.0781 20.5017H18.3638L18.5067 19.6445" fill="#DCE5E5"/>
<path d="M19.5068 23.6432C19.5068 25.6432 20.1497 26.1432 21.2926 26.1432C22.364 26.1432 22.7926 25.9289 22.7926 25.9289L23.0783 24.5718C23.0783 24.5718 22.2926 24.929 21.5783 24.929C20.0068 24.929 20.2926 23.7861 20.2926 23.7861H23.2211C23.2211 23.7861 23.4354 22.8575 23.4354 22.5004C23.4354 21.5718 22.9354 20.429 21.364 20.429C19.864 20.2861 19.5068 21.8575 19.5068 23.6432ZM21.2926 21.5718C22.0783 21.5718 22.2211 22.5004 22.2211 22.5718H20.364C20.364 22.5004 20.5068 21.5718 21.2926 21.5718Z" fill="#DCE5E5"/>
<path d="M30.3639 25.9286L30.6497 24.3572C30.6497 24.3572 29.9354 24.7143 29.4354 24.7143C28.4354 24.7143 28.0068 23.9286 28.0068 23.0714C28.0068 21.3571 28.8639 20.4286 29.8639 20.4286C30.5782 20.4286 31.1497 20.8571 31.1497 20.8571L31.3639 19.3571C31.3639 19.3571 30.5068 19 29.7211 19C28.0782 19 27.1497 20.4286 27.1497 23.1429C27.1497 24.9286 27.2925 26.1429 29.0068 26.1429C29.5782 26.1429 30.3639 25.9286 30.3639 25.9286Z" fill="#DCE5E5"/>
<path d="M8.50666 21.8563C8.50666 21.8563 9.14952 21.5706 10.0781 21.5706C10.5781 21.5706 11.0067 21.642 11.0067 22.0706C11.0067 22.3563 10.9352 22.4277 10.9352 22.4277C10.9352 22.4277 10.5067 22.4277 10.2924 22.4277C9.07809 22.4277 7.72095 22.9277 7.72095 24.5706C7.72095 25.8563 8.57809 26.142 9.07809 26.142C10.0781 26.142 10.5067 25.4992 10.5781 25.4992L10.5067 26.0706H11.7924L12.3638 22.142C12.3638 20.4992 10.9352 20.4277 10.3638 20.4277L8.50666 21.8563ZM11.4352 23.4992C11.4352 23.7135 10.5781 24.8563 9.72094 24.8563C9.29237 24.8563 9.14952 24.4992 9.14952 24.2849C9.14952 23.9277 9.3638 23.4277 10.4352 23.4277C10.6495 23.4992 11.4352 23.4992 11.4352 23.4992Z" fill="#DCE5E5"/>
<path d="M12.1494 25.9291C12.1494 25.9291 12.578 26.072 13.7923 26.072C14.1494 26.072 15.9351 26.1434 15.9351 24.2148C15.9351 22.4291 14.2208 22.7863 14.2208 22.072C14.2208 21.7148 14.5066 21.572 15.0066 21.572C15.2208 21.572 16.0066 21.6434 16.0066 21.6434L16.2208 20.3577C16.2208 20.3577 15.7208 20.2148 14.8637 20.2148C13.7923 20.2148 13.4351 20.6434 13.4351 22.072C13.4351 23.7148 14.5066 23.572 14.5066 24.2148C14.5066 24.6434 14.0066 24.7148 13.6494 24.7148" fill="#DCE5E5"/>
<path d="M41.9353 21.072C41.9353 21.072 41.3638 20.3577 40.5781 20.3577C39.2924 20.3577 38.8638 21.9291 38.8638 23.7863C38.8638 24.9291 38.721 26.1434 39.9353 26.1434C40.7924 26.1434 41.2924 25.572 41.2924 25.572L41.221 26.072H42.6495L43.721 19.2148L41.9353 21.072ZM41.8638 22.9291C41.8638 23.7149 41.221 24.7149 40.4353 24.7149C39.9353 24.7149 39.6495 24.2863 39.6495 23.572C39.6495 22.4291 40.1495 21.7148 40.7924 21.7148C41.2924 21.7148 41.8638 22.072 41.8638 22.9291Z" fill="#DCE5E5"/>
<path d="M2.64962 25.9997L3.50677 20.8569L3.64962 25.9997H4.64962L6.50677 20.8569L5.72105 25.9997H7.22105L8.36391 19.1426H6.57819L4.5782 23.3569L4.50677 19.1426H3.72105L1.29248 25.9997H2.64962Z" fill="#DCE5E5"/>
<path d="M23.2925 25.9991H24.7925C25.2211 23.642 25.2925 21.7134 26.2925 22.0706C26.4353 21.142 26.6496 20.7849 26.7925 20.4277C26.7925 20.4277 26.7211 20.4277 26.5068 20.4277C25.8639 20.4277 25.3639 21.2849 25.3639 21.2849L25.5068 20.4992" fill="#DCE5E5"/>
<path d="M31.721 21.8563C31.721 21.8563 32.3639 21.5706 33.2924 21.5706C33.7924 21.5706 34.221 21.642 34.221 22.0706C34.221 22.3563 34.1496 22.4277 34.1496 22.4277C34.1496 22.4277 33.721 22.4277 33.5067 22.4277C32.2924 22.4277 30.9353 22.9277 30.9353 24.5706C30.9353 25.8563 31.7924 26.142 32.2924 26.142C33.2924 26.142 33.721 25.4992 33.7924 25.4992L33.721 26.0706H35.0067L35.5782 22.142C35.5782 20.4992 34.1496 20.4277 33.5782 20.4277L31.721 21.8563ZM34.6496 23.4992C34.6496 23.7135 33.7924 24.8563 32.9353 24.8563C32.5067 24.8563 32.3639 24.4992 32.3639 24.2849C32.3639 23.9277 32.5782 23.4277 33.6496 23.4277C33.9353 23.4992 34.6496 23.4992 34.6496 23.4992Z" fill="#DCE5E5"/>
<path d="M35.2925 25.9991H36.7925C37.2211 23.642 37.2925 21.7134 38.2925 22.0706C38.4353 21.142 38.6496 20.7849 38.7925 20.4277C38.7925 20.4277 38.7211 20.4277 38.5068 20.4277C37.8639 20.4277 37.3639 21.2849 37.3639 21.2849L37.5068 20.4992" fill="#DCE5E5"/>
</g>
<defs>
<clipPath id="clip0">
<rect width="45" height="45" fill="white" transform="translate(0.0065918)"/>
</clipPath>
</defs>
</svg>
