<svg width="20" height="22" viewBox="0 0 20 22" fill="none" xmlns="http://www.w3.org/2000/svg">
<path d="M7.95405 1.20973C9.30298 0.92686 10.6958 0.926179 12.045 1.20773C12.1349 1.80101 12.3574 2.36642 12.6958 2.86191C13.0343 3.3574 13.4801 3.77023 14 4.06973C14.5196 4.37026 15.1002 4.54979 15.6987 4.59498C16.2973 4.64017 16.8983 4.54984 17.457 4.33073C18.3753 5.35879 19.0709 6.56577 19.5 7.87573C19.0314 8.25031 18.6532 8.72568 18.3935 9.26652C18.1338 9.80736 17.9993 10.3998 18 10.9997C18 12.2637 18.586 13.3907 19.502 14.1237C19.0704 15.4326 18.3739 16.6386 17.456 17.6667C16.8974 17.4478 16.2966 17.3575 15.6983 17.4027C15.0999 17.4479 14.5195 17.6273 14 17.9277C13.4805 18.2271 13.0351 18.6397 12.6968 19.1348C12.3585 19.6299 12.1361 20.1949 12.046 20.7877C10.6973 21.0713 9.30439 21.0726 7.95505 20.7917C7.86559 20.1979 7.64335 19.6319 7.30487 19.1359C6.96639 18.6398 6.52038 18.2265 6.00005 17.9267C5.48041 17.6264 4.89975 17.447 4.30124 17.402C3.70272 17.357 3.10176 17.4475 2.54305 17.6667C1.62465 16.6384 0.929052 15.431 0.500047 14.1207C0.96844 13.7464 1.34651 13.2713 1.60618 12.7308C1.86586 12.1904 2.00048 11.5983 2.00005 10.9987C2.00054 10.3986 1.86575 9.8061 1.60571 9.26524C1.34568 8.72439 0.96707 8.24911 0.498047 7.87473C0.929715 6.56585 1.62616 5.35983 2.54405 4.33173C3.1027 4.55068 3.70352 4.64092 4.30184 4.59574C4.90017 4.55055 5.48062 4.3711 6.00005 4.07073C6.51959 3.77132 6.96503 3.35875 7.30331 2.86363C7.64158 2.36852 7.864 1.80357 7.95405 1.21073V1.20973ZM10 13.9997C10.7957 13.9997 11.5588 13.6837 12.1214 13.121C12.684 12.5584 13 11.7954 13 10.9997C13 10.2041 12.684 9.44102 12.1214 8.87841C11.5588 8.3158 10.7957 7.99973 10 7.99973C9.2044 7.99973 8.44134 8.3158 7.87873 8.87841C7.31612 9.44102 7.00005 10.2041 7.00005 10.9997C7.00005 11.7954 7.31612 12.5584 7.87873 13.121C8.44134 13.6837 9.2044 13.9997 10 13.9997Z" fill="#3E3E3E"/>
</svg>
