<svg width="46" height="45" viewBox="0 0 46 45" fill="none" xmlns="http://www.w3.org/2000/svg">
<g clip-path="url(#clip0)">
<path d="M16.5066 28.9646L18.7923 16.1074H22.3637L20.1495 28.9646H16.5066Z" fill="#3C58BF"/>
<path d="M16.5066 28.9646L19.4352 16.1074H22.3637L20.1495 28.9646H16.5066Z" fill="#293688"/>
<path d="M33.078 16.2511C32.3637 15.9654 31.2208 15.6797 29.7923 15.6797C26.2208 15.6797 23.6494 17.4654 23.6494 20.0368C23.6494 21.9654 25.4351 22.9654 26.8637 23.6083C28.2923 24.2511 28.7208 24.6797 28.7208 25.2511C28.7208 26.1083 27.578 26.5368 26.578 26.5368C25.1494 26.5368 24.3637 26.3225 23.1494 25.8225L22.6494 25.6083L22.1494 28.5368C23.0066 28.894 24.578 29.2511 26.2208 29.2511C30.0066 29.2511 32.5066 27.4654 32.5066 24.7511C32.5066 23.2511 31.578 22.1083 29.4351 21.1797C28.1494 20.5368 27.3637 20.1797 27.3637 19.5368C27.3637 18.9654 28.0066 18.394 29.4351 18.394C30.6494 18.394 31.5066 18.6083 32.1494 18.894L32.5066 19.0368L33.078 16.2511Z" fill="#3C58BF"/>
<path d="M33.078 16.2511C32.3637 15.9654 31.2208 15.6797 29.7923 15.6797C26.2208 15.6797 24.2923 17.4654 24.2923 20.0368C24.2923 21.9654 25.4351 22.9654 26.8637 23.6083C28.2923 24.2511 28.7208 24.6797 28.7208 25.2511C28.7208 26.1083 27.578 26.5368 26.578 26.5368C25.1494 26.5368 24.3637 26.3225 23.1494 25.8225L22.6494 25.6083L22.1494 28.5368C23.0066 28.894 24.578 29.2511 26.2208 29.2511C30.0066 29.2511 32.5066 27.4654 32.5066 24.7511C32.5066 23.2511 31.578 22.1083 29.4351 21.1797C28.1494 20.5368 27.3637 20.1797 27.3637 19.5368C27.3637 18.9654 28.0066 18.394 29.4351 18.394C30.6494 18.394 31.5066 18.6083 32.1494 18.894L32.5066 19.0368L33.078 16.2511Z" fill="#293688"/>
<path d="M39.2209 16.1074C38.3637 16.1074 37.7209 16.1789 37.3637 17.036L32.0066 28.9646H35.8637L36.578 26.8217H41.1494L41.578 28.9646H45.0066L42.0066 16.1074H39.2209ZM37.578 24.6788C37.7923 24.036 39.0066 20.8931 39.0066 20.8931C39.0066 20.8931 39.2923 20.1074 39.5066 19.6074L39.7209 20.8217C39.7209 20.8217 40.4352 24.036 40.578 24.7503H37.578V24.6788Z" fill="#3C58BF"/>
<path d="M40.078 16.1074C39.2209 16.1074 38.578 16.1789 38.2209 17.036L32.0066 28.9646H35.8637L36.578 26.8217H41.1494L41.578 28.9646H45.0066L42.0066 16.1074H40.078ZM37.578 24.6788C37.8637 23.9646 39.0066 20.8931 39.0066 20.8931C39.0066 20.8931 39.2923 20.1074 39.5066 19.6074L39.7209 20.8217C39.7209 20.8217 40.4352 24.036 40.578 24.7503H37.578V24.6788Z" fill="#293688"/>
<path d="M9.93527 25.1083L9.57812 23.2511C8.93527 21.1083 6.86384 18.7511 4.57812 17.6083L7.79241 29.0368H11.6496L17.4353 16.1797H13.5781L9.93527 25.1083Z" fill="#3C58BF"/>
<path d="M9.93527 25.1083L9.57812 23.2511C8.93527 21.1083 6.86384 18.7511 4.57812 17.6083L7.79241 29.0368H11.6496L17.4353 16.1797H14.2924L9.93527 25.1083Z" fill="#293688"/>
<path d="M0.0065918 16.1074L0.649449 16.2503C5.22088 17.3217 8.36373 20.036 9.57802 23.2503L8.29231 17.1789C8.07802 16.3217 7.43516 16.1074 6.64945 16.1074H0.0065918Z" fill="#FFBC00"/>
<path d="M0.0065918 16.1074C4.57802 17.1789 8.36373 19.9646 9.57802 23.1788L8.36373 18.1074C8.14945 17.2503 7.43516 16.7503 6.64945 16.7503L0.0065918 16.1074Z" fill="#F7981D"/>
<path d="M0.0065918 16.1074C4.57802 17.1789 8.36373 19.9646 9.57802 23.1788L8.72088 20.3931C8.50659 19.536 8.22088 18.6789 7.22088 18.3217L0.0065918 16.1074Z" fill="#ED7C00"/>
<path d="M13.5066 24.678L11.078 22.2494L9.93513 24.9637L9.64941 23.178C9.00656 21.0352 6.93513 18.678 4.64941 17.5352L7.8637 28.9637H11.7208L13.5066 24.678Z" fill="#051244"/>
<path d="M20.1494 28.9632L17.078 25.8203L16.5066 28.9632H20.1494Z" fill="#051244"/>
<path d="M28.3637 24.5352C28.6494 24.8209 28.7923 25.0352 28.7208 25.3209C28.7208 26.178 27.578 26.6066 26.578 26.6066C25.1494 26.6066 24.3637 26.3923 23.1494 25.8923L22.6494 25.678L22.1494 28.6066C23.0066 28.9637 24.578 29.3209 26.2208 29.3209C28.5066 29.3209 30.3637 28.678 31.4351 27.5352L28.3637 24.5352Z" fill="#051244"/>
<path d="M32.5066 28.9646H35.8637L36.578 26.8217H41.1494L41.578 28.9646H45.0066L43.7923 23.7503L39.5066 19.6074L39.7209 20.7503C39.7209 20.7503 40.4352 23.9646 40.578 24.6789H37.578C37.8637 23.9646 39.0066 20.8931 39.0066 20.8931C39.0066 20.8931 39.2923 20.1074 39.5066 19.6074" fill="#051244"/>
</g>
<defs>
<clipPath id="clip0">
<rect width="45" height="45" fill="white" transform="translate(0.0065918)"/>
</clipPath>
</defs>
</svg>
