<svg width="59" height="63" viewBox="0 0 59 63" fill="none" xmlns="http://www.w3.org/2000/svg">
<path d="M43.8424 31.5C43.8424 40.1085 37.3298 46.9166 29.4998 46.9166C21.6698 46.9166 15.1572 40.1085 15.1572 31.5C15.1572 22.8914 21.6698 16.0833 29.4998 16.0833C37.3298 16.0833 43.8424 22.8914 43.8424 31.5Z" stroke="black" stroke-width="3"/>
<mask id="path-2-inside-1" fill="white">
<path d="M-1.26763e-06 31.5C-1.14736e-06 35.6366 0.763039 39.7328 2.24555 43.5545C3.72807 47.3763 5.90102 50.8488 8.64035 53.7739C11.3797 56.6989 14.6317 59.0192 18.2108 60.6022C21.7899 62.1852 25.626 63 29.5 63C33.374 63 37.21 62.1852 40.7892 60.6022C44.3683 59.0192 47.6203 56.6989 50.3596 53.7739C53.099 50.8488 55.2719 47.3763 56.7544 43.5545C58.2369 39.7328 59 35.6366 59 31.5L49.1742 31.5C49.1742 34.2588 48.6653 36.9906 47.6766 39.5395C46.6879 42.0883 45.2387 44.4042 43.4118 46.355C41.5849 48.3058 39.416 49.8532 37.029 50.909C34.642 51.9647 32.0836 52.5081 29.5 52.5081C26.9163 52.5081 24.358 51.9647 21.971 50.909C19.584 49.8532 17.4151 48.3058 15.5882 46.355C13.7613 44.4042 12.3121 42.0883 11.3234 39.5395C10.3346 36.9906 9.82574 34.2588 9.82574 31.5L-1.26763e-06 31.5Z"/>
</mask>
<path d="M-1.26763e-06 31.5C-1.14736e-06 35.6366 0.763039 39.7328 2.24555 43.5545C3.72807 47.3763 5.90102 50.8488 8.64035 53.7739C11.3797 56.6989 14.6317 59.0192 18.2108 60.6022C21.7899 62.1852 25.626 63 29.5 63C33.374 63 37.21 62.1852 40.7892 60.6022C44.3683 59.0192 47.6203 56.6989 50.3596 53.7739C53.099 50.8488 55.2719 47.3763 56.7544 43.5545C58.2369 39.7328 59 35.6366 59 31.5L49.1742 31.5C49.1742 34.2588 48.6653 36.9906 47.6766 39.5395C46.6879 42.0883 45.2387 44.4042 43.4118 46.355C41.5849 48.3058 39.416 49.8532 37.029 50.909C34.642 51.9647 32.0836 52.5081 29.5 52.5081C26.9163 52.5081 24.358 51.9647 21.971 50.909C19.584 49.8532 17.4151 48.3058 15.5882 46.355C13.7613 44.4042 12.3121 42.0883 11.3234 39.5395C10.3346 36.9906 9.82574 34.2588 9.82574 31.5L-1.26763e-06 31.5Z" stroke="black" stroke-width="6" mask="url(#path-2-inside-1)"/>
</svg>
