<svg width="57" height="57" viewBox="0 0 57 57" fill="none" xmlns="http://www.w3.org/2000/svg">
<circle cx="28.5" cy="28.5" r="27.5" stroke="#05051E" stroke-width="2"/>
<g clip-path="url(#clip0)">
<path fill-rule="evenodd" clip-rule="evenodd" d="M21.1667 39.5C21.1667 38.2114 22.2114 37.1667 23.5001 37.1667C24.7887 37.1667 25.8334 38.2114 25.8334 39.5C25.8334 40.7887 24.7887 41.8334 23.5001 41.8334C22.2114 41.8334 21.1667 40.7887 21.1667 39.5Z" fill="#05051E"/>
<path fill-rule="evenodd" clip-rule="evenodd" d="M34 39.5C34 38.2114 35.0447 37.1667 36.3333 37.1667C37.622 37.1667 38.6667 38.2114 38.6667 39.5C38.6667 40.7887 37.622 41.8334 36.3333 41.8334C35.0447 41.8334 34 40.7887 34 39.5Z" fill="#05051E"/>
<path fill-rule="evenodd" clip-rule="evenodd" d="M13 16.1667C13 15.5223 13.5223 15 14.1667 15H18.8333C19.3894 15 19.8682 15.3924 19.9773 15.9377L20.9572 20.8333H39.8333C40.181 20.8333 40.5106 20.9884 40.7322 21.2563C40.9539 21.5242 41.0445 21.877 40.9793 22.2185L39.111 32.0156C38.951 32.8213 38.5126 33.545 37.8728 34.0601C37.2361 34.5727 36.4402 34.8461 35.6232 34.8333H24.3034C23.4864 34.8461 22.6906 34.5727 22.0539 34.0601C21.4143 33.5453 20.9761 32.8219 20.8159 32.0166C20.8158 32.0163 20.8159 32.0169 20.8159 32.0166L18.8669 22.2791C18.859 22.2469 18.8524 22.2141 18.8473 22.1809L17.877 17.3333H14.1667C13.5223 17.3333 13 16.811 13 16.1667ZM21.4242 23.1667L23.1043 31.561C23.1577 31.8296 23.3038 32.0709 23.517 32.2426C23.7303 32.4143 23.9972 32.5055 24.271 32.5002L24.2933 32.5H35.6333L35.6557 32.5002C35.9294 32.5055 36.1963 32.4143 36.4096 32.2426C36.6219 32.0717 36.7677 31.8319 36.8216 31.5648L38.4232 23.1667H21.4242Z" fill="#05051E"/>
</g>
<defs>
<clipPath id="clip0">
<rect width="28" height="28" fill="white" transform="translate(13 15)"/>
</clipPath>
</defs>
</svg>
