<svg width="44" height="44" viewBox="0 0 44 44" fill="none" xmlns="http://www.w3.org/2000/svg">
<path fill-rule="evenodd" clip-rule="evenodd" d="M30.6296 13.3703C31.3456 14.0863 31.3456 15.2471 30.6296 15.963L4.96295 41.6297C4.24699 42.3457 3.08618 42.3457 2.37022 41.6297C1.65426 40.9137 1.65426 39.7529 2.37022 39.037L28.0369 13.3703C28.7528 12.6543 29.9137 12.6543 30.6296 13.3703Z" fill="black"/>
<path fill-rule="evenodd" clip-rule="evenodd" d="M20.2452 5.57864C22.6531 3.17078 25.9189 1.81805 29.3241 1.81805C32.7293 1.81805 35.9951 3.17078 38.4029 5.57864C40.8108 7.98651 42.1635 11.2523 42.1635 14.6575C42.1635 18.0621 40.8113 21.3272 38.4044 23.735L38.4029 23.7364L26.0482 36.1278C25.7042 36.4728 25.2371 36.6667 24.7499 36.6667H9.16659C8.15406 36.6667 7.33325 35.8459 7.33325 34.8333V19.25C7.33325 18.7638 7.52641 18.2975 7.87022 17.9536L20.2452 5.57864ZM29.3241 5.48472C26.8913 5.48472 24.5582 6.45114 22.8379 8.17137L10.9999 20.0094V33H23.9889L35.8083 21.1456L35.8102 21.1436C37.5305 19.4234 38.4969 17.0903 38.4969 14.6575C38.4969 12.2247 37.5305 9.8916 35.8102 8.17137C34.09 6.45114 31.7569 5.48472 29.3241 5.48472Z" fill="black"/>
<path fill-rule="evenodd" clip-rule="evenodd" d="M14.6666 27.5C14.6666 26.4875 15.4874 25.6667 16.4999 25.6667H31.1666C32.1791 25.6667 32.9999 26.4875 32.9999 27.5C32.9999 28.5125 32.1791 29.3333 31.1666 29.3333H16.4999C15.4874 29.3333 14.6666 28.5125 14.6666 27.5Z" fill="black"/>
</svg>
