<svg width="57" height="57" viewBox="0 0 57 57" fill="none" xmlns="http://www.w3.org/2000/svg">
<circle cx="28.5" cy="28.5" r="28.5" fill="#05051E"/>
<path fill-rule="evenodd" clip-rule="evenodd" d="M19.613 19.6129C19.2879 19.6129 18.9761 19.742 18.7462 19.9719C18.5163 20.2018 18.3872 20.5136 18.3872 20.8387V33.0967C18.3872 33.4218 18.5163 33.7336 18.7462 33.9635C18.9761 34.1934 19.2879 34.3225 19.613 34.3225H20.8388C21.5158 34.3225 22.0646 34.8714 22.0646 35.5484C22.0646 36.2253 21.5158 36.7742 20.8388 36.7742H19.613C18.6377 36.7742 17.7023 36.3867 17.0126 35.6971C16.323 35.0074 15.9355 34.0721 15.9355 33.0967V20.8387C15.9355 19.8634 16.323 18.928 17.0126 18.2383C17.7023 17.5487 18.6377 17.1613 19.613 17.1613H39.2259C40.2012 17.1613 41.1365 17.5487 41.8262 18.2383C42.5158 18.928 42.9033 19.8634 42.9033 20.8387V33.0967C42.9033 34.0721 42.5158 35.0074 41.8262 35.6971C41.1365 36.3867 40.2012 36.7742 39.2259 36.7742H38.0001C37.3231 36.7742 36.7743 36.2253 36.7743 35.5484C36.7743 34.8714 37.3231 34.3225 38.0001 34.3225H39.2259C39.551 34.3225 39.8628 34.1934 40.0926 33.9635C40.3225 33.7336 40.4517 33.4218 40.4517 33.0967V20.8387C40.4517 20.5136 40.3225 20.2018 40.0926 19.9719C39.8628 19.742 39.551 19.6129 39.2259 19.6129H19.613Z" fill="white"/>
<path fill-rule="evenodd" clip-rule="evenodd" d="M29.4193 31.871C29.7831 31.871 30.1281 32.0326 30.361 32.312L36.49 39.6669C36.7945 40.0323 36.8602 40.5408 36.6584 40.9716C36.4567 41.4023 36.024 41.6774 35.5483 41.6774H23.2903C22.8146 41.6774 22.3819 41.4023 22.1802 40.9716C21.9785 40.5408 22.0441 40.0323 22.3486 39.6669L28.4776 32.312C28.7105 32.0326 29.0555 31.871 29.4193 31.871ZM25.9074 39.2258H32.9312L29.4193 35.0115L25.9074 39.2258Z" fill="white"/>
</svg>
