<svg width="53" height="49" viewBox="0 0 53 49" fill="none" xmlns="http://www.w3.org/2000/svg">
<path fill-rule="evenodd" clip-rule="evenodd" d="M24.2726 8.11429C15.9548 8.11429 9.21197 14.4718 9.21197 22.3143C9.21197 30.1567 15.9548 36.5143 24.2726 36.5143C32.5903 36.5143 39.3332 30.1567 39.3332 22.3143C39.3332 14.4718 32.5903 8.11429 24.2726 8.11429ZM4.90894 22.3143C4.90894 12.2311 13.5783 4.05714 24.2726 4.05714C34.9668 4.05714 43.6362 12.2311 43.6362 22.3143C43.6362 32.3974 34.9668 40.5714 24.2726 40.5714C13.5783 40.5714 4.90894 32.3974 4.90894 22.3143Z" fill="#05051E"/>
<path fill-rule="evenodd" clip-rule="evenodd" d="M34.9073 32.3413C35.7475 31.5491 37.1097 31.5491 37.95 32.3413L47.3091 41.1656C48.1493 41.9578 48.1493 43.2422 47.3091 44.0344C46.4688 44.8266 45.1066 44.8266 44.2664 44.0344L34.9073 35.2101C34.067 34.4179 34.067 33.1335 34.9073 32.3413Z" fill="#05051E"/>
<path d="M0.605957 0V-1H-0.394043V0H0.605957ZM52.2423 0H53.2423V-1H52.2423V0ZM52.2423 48.6857V49.6857H53.2423V48.6857H52.2423ZM0.605957 48.6857H-0.394043V49.6857H0.605957V48.6857ZM0.605957 1H52.2423V-1H0.605957V1ZM51.2423 0V48.6857H53.2423V0H51.2423ZM52.2423 47.6857H0.605957V49.6857H52.2423V47.6857ZM1.60596 48.6857V0H-0.394043V48.6857H1.60596Z" fill="white"/>
</svg>
