<svg width="73" height="66" viewBox="0 0 73 66" fill="none" xmlns="http://www.w3.org/2000/svg">
<path fill-rule="evenodd" clip-rule="evenodd" d="M34.6325 3.32928C35.7309 2.55691 37.2689 2.55691 38.3673 3.32928L65.7423 22.5793C66.4832 23.1003 66.9166 23.9014 66.9166 24.75V55C66.9166 57.188 65.9552 59.2865 64.2439 60.8336C62.5327 62.3808 60.2117 63.25 57.7916 63.25H15.2083C12.7882 63.25 10.4672 62.3808 8.7559 60.8336C7.04463 59.2865 6.08325 57.188 6.08325 55V24.75C6.08325 23.9014 6.51661 23.1003 7.25752 22.5793L34.6325 3.32928ZM12.1666 26.095V55C12.1666 55.7293 12.487 56.4288 13.0575 56.9445C13.6279 57.4603 14.4016 57.75 15.2083 57.75H57.7916C58.5983 57.75 59.3719 57.4603 59.9424 56.9445C60.5128 56.4288 60.8333 55.7293 60.8333 55V26.095L36.4999 8.98387L12.1666 26.095Z" fill="black"/>
<path fill-rule="evenodd" clip-rule="evenodd" d="M24.3333 33C24.3333 31.4812 25.6951 30.25 27.3749 30.25H45.6249C47.3048 30.25 48.6666 31.4812 48.6666 33V60.5C48.6666 62.0188 47.3048 63.25 45.6249 63.25C43.9451 63.25 42.5833 62.0188 42.5833 60.5V35.75H30.4166V60.5C30.4166 62.0188 29.0548 63.25 27.3749 63.25C25.6951 63.25 24.3333 62.0188 24.3333 60.5V33Z" fill="black"/>
</svg>
