<svg width="37" height="37" viewBox="0 0 37 37" fill="none" xmlns="http://www.w3.org/2000/svg">
<circle cx="18.5" cy="18.5" r="18.5" fill="#EEEEEE" fill-opacity="0.5"/>
<path fill-rule="evenodd" clip-rule="evenodd" d="M13.5267 11.5374C13.3157 11.5374 13.1133 11.6213 12.9641 11.7705C12.8149 11.9197 12.731 12.1221 12.731 12.3331V23.4729C12.731 23.684 12.8149 23.8863 12.9641 24.0356C13.1133 24.1848 13.3157 24.2686 13.5267 24.2686H16.7095C17.149 24.2686 17.5052 24.6249 17.5052 25.0643C17.5052 25.5038 17.149 25.86 16.7095 25.86H13.5267C12.8936 25.86 12.2865 25.6085 11.8388 25.1609C11.3911 24.7132 11.1396 24.106 11.1396 23.4729V12.3331C11.1396 11.7 11.3911 11.0929 11.8388 10.6452C12.2865 10.1975 12.8936 9.94604 13.5267 9.94604H16.7095C17.149 9.94604 17.5052 10.3023 17.5052 10.7417C17.5052 11.1812 17.149 11.5374 16.7095 11.5374H13.5267Z" fill="#FF0404"/>
<path fill-rule="evenodd" clip-rule="evenodd" d="M21.7169 13.3619C22.0277 13.0512 22.5315 13.0512 22.8422 13.3619L26.8207 17.3404C27.1315 17.6511 27.1315 18.1549 26.8207 18.4657L22.8422 22.4442C22.5315 22.7549 22.0277 22.7549 21.7169 22.4442C21.4062 22.1334 21.4062 21.6296 21.7169 21.3189L25.1328 17.903L21.7169 14.4872C21.4062 14.1764 21.4062 13.6726 21.7169 13.3619Z" fill="#FF0404"/>
<path fill-rule="evenodd" clip-rule="evenodd" d="M15.9138 17.9031C15.9138 17.4636 16.2701 17.1074 16.7095 17.1074H26.2579C26.6974 17.1074 27.0536 17.4636 27.0536 17.9031C27.0536 18.3425 26.6974 18.6988 26.2579 18.6988H16.7095C16.2701 18.6988 15.9138 18.3425 15.9138 17.9031Z" fill="#FF0404"/>
</svg>
