<svg width="54" height="54" viewBox="0 0 54 54" fill="none" xmlns="http://www.w3.org/2000/svg">
<path fill-rule="evenodd" clip-rule="evenodd" d="M27 6.75C23.4196 6.75 19.9858 8.17232 17.4541 10.7041C14.9223 13.2358 13.5 16.6696 13.5 20.25V31.5C13.5 33.0935 13.0774 34.6435 12.2943 36H41.7057C40.9226 34.6435 40.5 33.0935 40.5 31.5V20.25C40.5 16.6696 39.0777 13.2358 36.5459 10.7041C34.0142 8.17232 30.5804 6.75 27 6.75ZM49.5 36C48.3065 36 47.1619 35.5259 46.318 34.682C45.4741 33.8381 45 32.6935 45 31.5V20.25C45 15.4761 43.1036 10.8977 39.7279 7.52208C36.3523 4.14642 31.7739 2.25 27 2.25C22.2261 2.25 17.6477 4.14642 14.2721 7.52208C10.8964 10.8977 9 15.4761 9 20.25V31.5C9 32.6935 8.52589 33.8381 7.68198 34.682C6.83807 35.5259 5.69348 36 4.5 36C3.25736 36 2.25 37.0074 2.25 38.25C2.25 39.4926 3.25736 40.5 4.5 40.5H49.5V36ZM21.9785 45.3037C23.0534 44.6802 24.4302 45.0461 25.0538 46.121C25.2515 46.462 25.5354 46.745 25.877 46.9417C26.2186 47.1385 26.6058 47.242 27 47.242C27.3942 47.242 27.7814 47.1385 28.123 46.9417C28.4646 46.745 28.7485 46.462 28.9462 46.121C29.5698 45.0461 30.9466 44.6802 32.0215 45.3037C33.0964 45.9273 33.4623 47.3041 32.8387 48.379C32.2454 49.4019 31.3937 50.2509 30.369 50.8412C29.3443 51.4314 28.1825 51.742 27 51.742C25.8175 51.742 24.6557 51.4314 23.631 50.8412C22.6063 50.2509 21.7546 49.4019 21.1613 48.379C20.5377 47.3041 20.9036 45.9273 21.9785 45.3037Z" fill="#F7931E"/>
<circle cx="40.5" cy="11.25" r="11.25" fill="#F7931E"/>
<path d="M37.05 8.015C37.34 7.895 37.64 7.76 37.95 7.61C38.27 7.45 38.58 7.28 38.88 7.1C39.18 6.91 39.465 6.715 39.735 6.515C40.015 6.305 40.265 6.085 40.485 5.855H42.045V16.25H39.81V8.765C39.51 8.965 39.175 9.15 38.805 9.32C38.435 9.48 38.075 9.62 37.725 9.74L37.05 8.015Z" fill="white"/>
</svg>
