<svg width="51" height="51" viewBox="0 0 51 51" fill="none" xmlns="http://www.w3.org/2000/svg">
<circle cx="25.5" cy="25.5" r="24.5" stroke="#05051E" stroke-width="2"/>
<path fill-rule="evenodd" clip-rule="evenodd" d="M18.1858 17C17.9237 17 17.6723 17.1041 17.4869 17.2895C17.3016 17.4748 17.1974 17.7262 17.1974 17.9884V31.8256C17.1974 32.0877 17.3016 32.3391 17.4869 32.5245C17.6723 32.7098 17.9237 32.814 18.1858 32.814H33.9998C34.2619 32.814 34.5133 32.7098 34.6987 32.5245C34.884 32.3391 34.9881 32.0877 34.9881 31.8256V20.9535C34.9881 20.6914 34.884 20.44 34.6987 20.2546C34.5133 20.0692 34.2619 19.9651 33.9998 19.9651H25.1044C24.774 19.9651 24.4654 19.8 24.282 19.525L22.5987 17H18.1858ZM16.0892 15.8917C16.6452 15.3356 17.3994 15.0233 18.1858 15.0233H23.1277C23.4581 15.0233 23.7667 15.1884 23.9501 15.4634L25.6334 17.9884H33.9998C34.7862 17.9884 35.5404 18.3008 36.0964 18.8568C36.6525 19.4129 36.9649 20.1671 36.9649 20.9535V31.8256C36.9649 32.612 36.6525 33.3662 36.0964 33.9222C35.5404 34.4783 34.7862 34.7907 33.9998 34.7907H18.1858C17.3994 34.7907 16.6452 34.4783 16.0892 33.9222C15.5331 33.3662 15.2207 32.612 15.2207 31.8256V17.9884C15.2207 17.202 15.5331 16.4478 16.0892 15.8917Z" fill="#05051E"/>
</svg>
