<svg width="54" height="54" viewBox="0 0 54 54" fill="none" xmlns="http://www.w3.org/2000/svg">
<path fill-rule="evenodd" clip-rule="evenodd" d="M10.045 34.7951C12.1548 32.6853 15.0163 31.5 18 31.5H36C38.9837 31.5 41.8452 32.6853 43.955 34.7951C46.0647 36.9048 47.25 39.7663 47.25 42.75V47.25C47.25 48.4926 46.2426 49.5 45 49.5C43.7574 49.5 42.75 48.4926 42.75 47.25V42.75C42.75 40.9598 42.0388 39.2429 40.773 37.977C39.5071 36.7112 37.7902 36 36 36H18C16.2098 36 14.4929 36.7112 13.227 37.977C11.9612 39.2429 11.25 40.9598 11.25 42.75V47.25C11.25 48.4926 10.2426 49.5 9 49.5C7.75736 49.5 6.75 48.4926 6.75 47.25V42.75C6.75 39.7663 7.93526 36.9048 10.045 34.7951Z" fill="black"/>
<path fill-rule="evenodd" clip-rule="evenodd" d="M27 9C23.2721 9 20.25 12.0221 20.25 15.75C20.25 19.4779 23.2721 22.5 27 22.5C30.7279 22.5 33.75 19.4779 33.75 15.75C33.75 12.0221 30.7279 9 27 9ZM15.75 15.75C15.75 9.5368 20.7868 4.5 27 4.5C33.2132 4.5 38.25 9.5368 38.25 15.75C38.25 21.9632 33.2132 27 27 27C20.7868 27 15.75 21.9632 15.75 15.75Z" fill="black"/>
</svg>
