<svg width="89" height="58" viewBox="0 0 89 58" fill="none" xmlns="http://www.w3.org/2000/svg">
<circle cx="21.3529" cy="22.3529" r="5.35294" fill="#FF8900"/>
<circle cx="21.3529" cy="37.647" r="5.35294" fill="#14AF49"/>
<circle cx="36.6474" cy="22.3529" r="5.35294" fill="#6372C1"/>
<circle cx="36.6469" cy="37.647" r="5.35294" fill="#BC0272"/>
<circle cx="29" cy="29" r="27.5" stroke="black" stroke-width="3"/>
<rect x="41" y="3" width="48" height="20" rx="10" fill="#BC0272"/>
<path d="M55.175 18C54.505 16.81 53.78 15.635 53 14.475C52.22 13.315 51.39 12.22 50.51 11.19V18H48.2V7.605H50.105C50.435 7.935 50.8 8.34 51.2 8.82C51.6 9.3 52.005 9.815 52.415 10.365C52.835 10.905 53.25 11.47 53.66 12.06C54.07 12.64 54.455 13.2 54.815 13.74V7.605H57.14V18H55.175ZM59.0129 14.115C59.0129 13.415 59.1179 12.805 59.3279 12.285C59.5479 11.755 59.8329 11.315 60.1829 10.965C60.5329 10.615 60.9329 10.35 61.3829 10.17C61.8429 9.99 62.3129 9.9 62.7929 9.9C63.9129 9.9 64.7979 10.245 65.4479 10.935C66.0979 11.615 66.4229 12.62 66.4229 13.95C66.4229 14.08 66.4179 14.225 66.4079 14.385C66.3979 14.535 66.3879 14.67 66.3779 14.79H61.3079C61.3579 15.25 61.5729 15.615 61.9529 15.885C62.3329 16.155 62.8429 16.29 63.4829 16.29C63.8929 16.29 64.2929 16.255 64.6829 16.185C65.0829 16.105 65.4079 16.01 65.6579 15.9L65.9579 17.715C65.8379 17.775 65.6779 17.835 65.4779 17.895C65.2779 17.955 65.0529 18.005 64.8029 18.045C64.5629 18.095 64.3029 18.135 64.0229 18.165C63.7429 18.195 63.4629 18.21 63.1829 18.21C62.4729 18.21 61.8529 18.105 61.3229 17.895C60.8029 17.685 60.3679 17.4 60.0179 17.04C59.6779 16.67 59.4229 16.235 59.2529 15.735C59.0929 15.235 59.0129 14.695 59.0129 14.115ZM64.2629 13.26C64.2529 13.07 64.2179 12.885 64.1579 12.705C64.1079 12.525 64.0229 12.365 63.9029 12.225C63.7929 12.085 63.6479 11.97 63.4679 11.88C63.2979 11.79 63.0829 11.745 62.8229 11.745C62.5729 11.745 62.3579 11.79 62.1779 11.88C61.9979 11.96 61.8479 12.07 61.7279 12.21C61.6079 12.35 61.5129 12.515 61.4429 12.705C61.3829 12.885 61.3379 13.07 61.3079 13.26H64.2629ZM72.9477 13.47C72.7477 14.23 72.5327 14.985 72.3027 15.735C72.0827 16.485 71.8477 17.24 71.5977 18H69.8577C69.6777 17.58 69.4827 17.08 69.2727 16.5C69.0627 15.92 68.8427 15.29 68.6127 14.61C68.3927 13.92 68.1627 13.195 67.9227 12.435C67.6927 11.665 67.4677 10.89 67.2477 10.11H69.6027C69.6827 10.47 69.7677 10.865 69.8577 11.295C69.9577 11.715 70.0577 12.15 70.1577 12.6C70.2677 13.05 70.3777 13.505 70.4877 13.965C70.6077 14.415 70.7277 14.85 70.8477 15.27C70.9777 14.83 71.1027 14.38 71.2227 13.92C71.3527 13.46 71.4727 13.01 71.5827 12.57C71.7027 12.12 71.8127 11.69 71.9127 11.28C72.0227 10.86 72.1177 10.47 72.1977 10.11H73.8177C73.8977 10.47 73.9877 10.86 74.0877 11.28C74.1877 11.69 74.2927 12.12 74.4027 12.57C74.5127 13.01 74.6277 13.46 74.7477 13.92C74.8677 14.38 74.9927 14.83 75.1227 15.27C75.2427 14.85 75.3627 14.415 75.4827 13.965C75.6027 13.505 75.7127 13.05 75.8127 12.6C75.9227 12.15 76.0227 11.715 76.1127 11.295C76.2127 10.865 76.3027 10.47 76.3827 10.11H78.7077C78.4877 10.89 78.2577 11.665 78.0177 12.435C77.7877 13.195 77.5577 13.92 77.3277 14.61C77.1077 15.29 76.8877 15.92 76.6677 16.5C76.4577 17.08 76.2627 17.58 76.0827 18H74.3427C74.0927 17.24 73.8477 16.485 73.6077 15.735C73.3677 14.985 73.1477 14.23 72.9477 13.47Z" fill="white"/>
</svg>
