<svg width="14" height="18" viewBox="0 0 14 18" fill="none" xmlns="http://www.w3.org/2000/svg">
<path fill-rule="evenodd" clip-rule="evenodd" d="M13.6514 6.81649C13.5274 6.54999 13.2601 6.37956 12.9662 6.37956H8.80115L11.5886 1.99927C11.7367 1.76657 11.7462 1.47171 11.6135 1.22994C11.4808 0.988171 11.2269 0.837891 10.9511 0.837891H6.41697C6.14729 0.837891 5.89807 0.981571 5.763 1.21493L0.221338 10.7869C0.0859699 11.0207 0.085718 11.3089 0.220632 11.543C0.355597 11.777 0.605174 11.9212 0.875305 11.9212H5.42758L4.17653 16.5084C4.08317 16.8506 4.24046 17.2117 4.55457 17.3764C4.6658 17.4347 4.78611 17.4629 4.90526 17.4629C5.12254 17.4629 5.33609 17.3692 5.4836 17.1939L13.5442 7.62195C13.7336 7.39716 13.7754 7.08295 13.6514 6.81649ZM6.53735 13.5964L7.14608 11.3644C7.20804 11.1372 7.16053 10.8941 7.01756 10.7068C6.87459 10.5197 6.65252 10.4099 6.41699 10.4099H2.18603L6.85272 2.34926H9.57448L6.78703 6.72954C6.63901 6.96224 6.62944 7.25711 6.76214 7.49893C6.89489 7.74064 7.1488 7.89092 7.42457 7.89092H11.342L6.53735 13.5964Z" fill="#F7931E"/>
</svg>
