<svg width="17" height="18" viewBox="0 0 17 18" fill="none" xmlns="http://www.w3.org/2000/svg">
<path fill-rule="evenodd" clip-rule="evenodd" d="M3.49722 9.51181H10.7255V8.06615H3.49722V9.51181ZM3.49722 6.6205H13.6168V5.17484H3.49722V6.6205ZM15.0626 12.4031H11.4484V15.9442C9.8011 15.6088 8.55712 14.1487 8.55712 12.4031H2.05168V2.28355H15.0626V12.4031ZM15.0625 0.837891H2.05161C1.25433 0.837891 0.605957 1.48627 0.605957 2.28354V12.4031C0.605957 13.2004 1.25433 13.8488 2.05161 13.8488H7.32173C7.94553 15.9363 9.88343 17.4629 12.1712 17.4629H12.894V13.8488H15.0625C15.8598 13.8488 16.5081 13.2004 16.5081 12.4031V2.28354C16.5081 1.48627 15.8598 0.837891 15.0625 0.837891Z" fill="#F7931E"/>
</svg>
