<svg width="62" height="62" viewBox="0 0 62 62" fill="none" xmlns="http://www.w3.org/2000/svg">
<circle cx="31" cy="31" r="31" fill="#F7931E"/>
<path fill-rule="evenodd" clip-rule="evenodd" d="M30.9999 14.0909C32.1672 14.0909 33.1135 15.0372 33.1135 16.2045V45.7955C33.1135 46.9628 32.1672 47.9091 30.9999 47.9091C29.8325 47.9091 28.8862 46.9628 28.8862 45.7955V16.2045C28.8862 15.0372 29.8325 14.0909 30.9999 14.0909Z" fill="white"/>
<path fill-rule="evenodd" clip-rule="evenodd" d="M14.0908 31C14.0908 29.8327 15.0371 28.8864 16.2045 28.8864H45.7954C46.9627 28.8864 47.909 29.8327 47.909 31C47.909 32.1673 46.9627 33.1136 45.7954 33.1136H16.2045C15.0371 33.1136 14.0908 32.1673 14.0908 31Z" fill="white"/>
</svg>
