<svg width="26" height="26" viewBox="0 0 26 26" fill="none" xmlns="http://www.w3.org/2000/svg">
<path fillRule="evenodd" clipRule="evenodd" d="M2.1665 5.41663C2.1665 3.6217 3.62158 2.16663 5.4165 2.16663H20.5832C22.3781 2.16663 23.8332 3.6217 23.8332 5.41663V20.5833C23.8332 22.3782 22.3781 23.8333 20.5832 23.8333H5.4165C3.62158 23.8333 2.1665 22.3782 2.1665 20.5833V5.41663Z" fill="#14AF49"/>
<path fillRule="evenodd" clipRule="evenodd" d="M18.3237 8.98401C18.7468 9.40708 18.7468 10.093 18.3237 10.5161L11.5994 17.5577C11.1763 17.9808 10.4904 17.9808 10.0673 17.5577L6.8173 14.3077C6.39423 13.8847 6.39423 13.1987 6.8173 12.7757C7.24037 12.3526 7.9263 12.3526 8.34937 12.7757L10.8333 15.2596L16.7917 8.98401C17.2147 8.56094 17.9007 8.56094 18.3237 8.98401Z" fill="white"/>
</svg>
