<svg width="65" height="65" viewBox="0 0 65 65" fill="none" xmlns="http://www.w3.org/2000/svg">
<path fillRule="evenodd" clipRule="evenodd" d="M50.9184 11.4467C51.6172 11.4467 52.2874 11.7263 52.7816 12.224C53.2757 12.7217 53.5533 13.3967 53.5533 14.1005V50.1542L47.5116 44.0693C47.0175 43.5717 46.3473 43.2921 45.6485 43.2921H14.029C13.3301 43.2921 12.6599 43.0125 12.1658 42.5148C11.6716 42.0171 11.394 41.3421 11.394 40.6383V14.1005C11.394 13.3967 11.6716 12.7217 12.1658 12.224C12.6599 11.7263 13.3301 11.4467 14.029 11.4467H50.9184ZM56.508 8.47098C55.0255 6.97794 53.0149 6.13916 50.9184 6.13916H14.029C11.9325 6.13916 9.92182 6.97794 8.43937 8.47098C6.95692 9.96402 6.12409 11.989 6.12409 14.1005V40.6383C6.12409 42.7498 6.95692 44.7748 8.43937 46.2678C9.92182 47.7608 11.9325 48.5996 14.029 48.5996H44.557L54.3251 58.4375C55.0787 59.1964 56.212 59.4235 57.1966 59.0127C58.1813 58.602 58.8232 57.6343 58.8232 56.561V14.1005C58.8232 11.989 57.9904 9.96402 56.508 8.47098Z" fill="#6C6B6B"/>
</svg>
