<svg width="36" height="30" viewBox="0 0 36 30" fill="none" xmlns="http://www.w3.org/2000/svg">
<path fillRule="evenodd" clipRule="evenodd" d="M1.28911 8.99595C0.732078 8.43891 0.732078 7.53578 1.28911 6.97874L6.99464 1.27322C7.55167 0.716181 8.45481 0.716181 9.01184 1.27322L14.7174 6.97874C15.2744 7.53578 15.2744 8.43891 14.7174 8.99595C14.1603 9.55298 13.2572 9.55298 12.7002 8.99595L8.00324 4.29903L3.30632 8.99595C2.74928 9.55298 1.84615 9.55298 1.28911 8.99595Z" fill="#6C6B6B"/>
<path fillRule="evenodd" clipRule="evenodd" d="M9.42962 22.2512C9.42962 23.3861 9.88046 24.4745 10.683 25.277C11.4854 26.0795 12.5739 26.5303 13.7088 26.5303L16.5615 26.5303C17.3493 26.5303 17.9879 27.1689 17.9879 27.9567C17.9879 28.7444 17.3493 29.3831 16.5615 29.3831L13.7088 29.3831C11.8173 29.3831 10.0032 28.6317 8.66575 27.2942C7.32825 25.9567 6.57686 24.1427 6.57686 22.2512L6.57686 2.28182C6.57686 1.49405 7.21547 0.855441 8.00324 0.855441C8.79101 0.855441 9.42962 1.49405 9.42962 2.28182L9.42962 22.2512Z" fill="#6C6B6B"/>
<path fillRule="evenodd" clipRule="evenodd" d="M21.2584 21.2425C21.8155 20.6855 22.7186 20.6855 23.2757 21.2425L27.9726 25.9395L32.6695 21.2425C33.2265 20.6855 34.1297 20.6855 34.6867 21.2425C35.2437 21.7996 35.2437 22.7027 34.6867 23.2598L28.9812 28.9653C28.4241 29.5223 27.521 29.5223 26.964 28.9653L21.2584 23.2598C20.7014 22.7027 20.7014 21.7996 21.2584 21.2425Z" fill="#6C6B6B"/>
<path fillRule="evenodd" clipRule="evenodd" d="M17.9879 2.28182C17.9879 1.49405 18.6265 0.855441 19.4143 0.855441L22.267 0.855441C24.1585 0.855441 25.9726 1.60684 27.3101 2.94433C28.6476 4.28182 29.3989 6.09584 29.3989 7.98734L29.399 27.9567C29.399 28.7444 28.7603 29.3831 27.9726 29.3831C27.1848 29.3831 26.5462 28.7444 26.5462 27.9567L26.5462 7.98734C26.5462 6.85245 26.0954 5.76403 25.2929 4.96154C24.4904 4.15904 23.4019 3.7082 22.267 3.7082L19.4143 3.7082C18.6265 3.7082 17.9879 3.06959 17.9879 2.28182Z" fill="#6C6B6B"/>
</svg>
