<svg width="22" height="33" viewBox="0 0 22 33" fill="none" xmlns="http://www.w3.org/2000/svg">
<rect y="12.3752" width="22" height="20.1667" rx="5" fill="#6C6B6B"/>
<path d="M20.2632 11.4585C21.2224 11.4585 22.014 10.6761 21.8632 9.72877C21.5007 7.45225 20.4288 5.33099 18.7782 3.68032C16.7153 1.61742 13.9174 0.458496 11 0.458496C8.08262 0.458496 5.28473 1.61742 3.22183 3.68032C1.57116 5.33099 0.499278 7.45225 0.136802 9.72877C-0.01403 10.6761 0.77761 11.4585 1.73684 11.4585C2.69607 11.4585 3.45376 10.6708 3.67319 9.73696C3.99098 8.38462 4.67985 7.13483 5.67809 6.13659C7.08955 4.72513 9.0039 3.93218 11 3.93218C12.9961 3.93218 14.9105 4.72513 16.3219 6.13659C17.3202 7.13483 18.009 8.38462 18.3268 9.73697C18.5462 10.6708 19.3039 11.4585 20.2632 11.4585Z" fill="#6C6B6B"/>
</svg>
