<svg width="93" height="93" viewBox="0 0 93 93" fill="none" xmlns="http://www.w3.org/2000/svg">
<path fillRule="evenodd" clipRule="evenodd" d="M91.4514 46.8714C91.4514 48.5036 90.1282 49.8268 88.496 49.8268L42.5214 49.8268C40.8892 49.8268 39.566 48.5036 39.566 46.8714C39.566 45.2392 40.8892 43.9161 42.5214 43.9161L88.496 43.9161C90.1282 43.9161 91.4514 45.2392 91.4514 46.8714Z" fill="white"/>
<path fillRule="evenodd" clipRule="evenodd" d="M91.4514 46.8714C91.4514 48.0067 90.801 49.0417 89.7781 49.5342L33.3547 76.7011C32.2629 77.2267 30.9608 77.0327 30.0697 76.2115C29.1787 75.3903 28.8792 74.1083 29.3142 72.9774L39.3549 46.8714L29.3142 20.7655C28.8792 19.6345 29.1787 18.3526 30.0698 17.5314C30.9608 16.7102 32.2629 16.5161 33.3547 17.0418L89.7781 44.2086C90.801 44.7012 91.4514 45.7361 91.4514 46.8714ZM37.5069 25.6012L45.2797 45.8105C45.5424 46.4934 45.5424 47.2495 45.2797 47.9323L37.5069 68.1416L81.6835 46.8714L37.5069 25.6012Z" fill="white"/>
</svg>
