<svg width="30" height="32" viewBox="0 0 30 32" fill="none" xmlns="http://www.w3.org/2000/svg">
<path fillRule="evenodd" clipRule="evenodd" d="M23.399 3.28172C21.8235 3.28172 20.5462 4.55894 20.5462 6.13448C20.5462 7.71001 21.8235 8.98724 23.399 8.98724C24.9745 8.98724 26.2518 7.71001 26.2518 6.13448C26.2518 4.55894 24.9745 3.28172 23.399 3.28172ZM17.6935 6.13448C17.6935 2.9834 20.2479 0.428955 23.399 0.428955C26.5501 0.428955 29.1045 2.9834 29.1045 6.13448C29.1045 9.28555 26.5501 11.84 23.399 11.84C20.2479 11.84 17.6935 9.28555 17.6935 6.13448Z" fill="#6C6B6B"/>
<path fillRule="evenodd" clipRule="evenodd" d="M6.28243 13.2664C4.70689 13.2664 3.42967 14.5436 3.42967 16.1191C3.42967 17.6947 4.70689 18.9719 6.28243 18.9719C7.85796 18.9719 9.13519 17.6947 9.13519 16.1191C9.13519 14.5436 7.85796 13.2664 6.28243 13.2664ZM0.576904 16.1191C0.576904 12.9681 3.13135 10.4136 6.28243 10.4136C9.4335 10.4136 11.988 12.9681 11.988 16.1191C11.988 19.2702 9.4335 21.8247 6.28243 21.8247C3.13135 21.8247 0.576904 19.2702 0.576904 16.1191Z" fill="#6C6B6B"/>
<path fillRule="evenodd" clipRule="evenodd" d="M23.399 23.251C21.8235 23.251 20.5462 24.5283 20.5462 26.1038C20.5462 27.6793 21.8235 28.9566 23.399 28.9566C24.9745 28.9566 26.2518 27.6793 26.2518 26.1038C26.2518 24.5283 24.9745 23.251 23.399 23.251ZM17.6935 26.1038C17.6935 22.9527 20.2479 20.3983 23.399 20.3983C26.5501 20.3983 29.1045 22.9527 29.1045 26.1038C29.1045 29.2549 26.5501 31.8093 23.399 31.8093C20.2479 31.8093 17.6935 29.2549 17.6935 26.1038Z" fill="#6C6B6B"/>
<path fillRule="evenodd" clipRule="evenodd" d="M9.3242 18.0598C9.72083 17.3791 10.5941 17.1489 11.2748 17.5455L19.833 22.5379C20.5137 22.9345 20.7439 23.8078 20.3473 24.4884C19.9507 25.169 19.0774 25.3993 18.3967 25.0027L9.83846 20.0103C9.15782 19.6137 8.92758 18.7404 9.3242 18.0598Z" fill="#6C6B6B"/>
<path fillRule="evenodd" clipRule="evenodd" d="M20.3461 7.74955C20.7431 8.42993 20.5134 9.30337 19.833 9.70043L11.2863 15.0171C10.6059 15.4141 9.73243 15.1845 9.33537 14.5041C8.93831 13.8237 9.16799 12.9502 9.84838 12.5532L18.3952 7.23654C19.0756 6.83948 19.949 7.06916 20.3461 7.74955Z" fill="#6C6B6B"/>
</svg>
