<svg width="41" height="40" viewBox="0 0 41 40" fill="none" xmlns="http://www.w3.org/2000/svg">
<path fill-rule="evenodd" clip-rule="evenodd" d="M6.627 4.10922C5.46852 4.10922 4.52939 5.04836 4.52939 6.20683V34.009C4.52939 35.1675 5.46852 36.1066 6.627 36.1066H34.4292C35.5877 36.1066 36.5268 35.1675 36.5268 34.009V6.20683C36.5268 5.04836 35.5877 4.10922 34.4292 4.10922H6.627ZM0.974121 6.20683C0.974121 3.08483 3.505 0.553955 6.627 0.553955H34.4292C37.5512 0.553955 40.0821 3.08483 40.0821 6.20683V34.009C40.0821 37.131 37.5512 39.6619 34.4292 39.6619H6.627C3.505 39.6619 0.974121 37.131 0.974121 34.009V6.20683Z" fill="white"/>
<path fill-rule="evenodd" clip-rule="evenodd" d="M11.6399 0.553955C12.6217 0.553955 13.4176 1.34983 13.4176 2.33159V37.8843C13.4176 38.866 12.6217 39.6619 11.6399 39.6619C10.6582 39.6619 9.86229 38.866 9.86229 37.8843V2.33159C9.86229 1.34983 10.6582 0.553955 11.6399 0.553955Z" fill="white"/>
<path fill-rule="evenodd" clip-rule="evenodd" d="M29.4163 0.553955C30.398 0.553955 31.1939 1.34983 31.1939 2.33159V37.8843C31.1939 38.866 30.398 39.6619 29.4163 39.6619C28.4345 39.6619 27.6386 38.866 27.6386 37.8843V2.33159C27.6386 1.34983 28.4345 0.553955 29.4163 0.553955Z" fill="white"/>
<path fill-rule="evenodd" clip-rule="evenodd" d="M0.974121 20.1079C0.974121 19.1262 1.77 18.3303 2.75176 18.3303H38.3045C39.2862 18.3303 40.0821 19.1262 40.0821 20.1079C40.0821 21.0897 39.2862 21.8856 38.3045 21.8856H2.75176C1.77 21.8856 0.974121 21.0897 0.974121 20.1079Z" fill="white"/>
<path fill-rule="evenodd" clip-rule="evenodd" d="M0.974121 11.2198C0.974121 10.238 1.77 9.44213 2.75176 9.44213H11.6399C12.6217 9.44213 13.4176 10.238 13.4176 11.2198C13.4176 12.2015 12.6217 12.9974 11.6399 12.9974H2.75176C1.77 12.9974 0.974121 12.2015 0.974121 11.2198Z" fill="white"/>
<path fill-rule="evenodd" clip-rule="evenodd" d="M0.974121 28.9961C0.974121 28.0144 1.77 27.2185 2.75176 27.2185H11.6399C12.6217 27.2185 13.4176 28.0144 13.4176 28.9961C13.4176 29.9779 12.6217 30.7737 11.6399 30.7737H2.75176C1.77 30.7737 0.974121 29.9779 0.974121 28.9961Z" fill="white"/>
<path fill-rule="evenodd" clip-rule="evenodd" d="M27.6386 28.9961C27.6386 28.0144 28.4345 27.2185 29.4163 27.2185H38.3045C39.2862 27.2185 40.0821 28.0144 40.0821 28.9961C40.0821 29.9779 39.2862 30.7737 38.3045 30.7737H29.4163C28.4345 30.7737 27.6386 29.9779 27.6386 28.9961Z" fill="white"/>
<path fill-rule="evenodd" clip-rule="evenodd" d="M27.6386 11.2198C27.6386 10.238 28.4345 9.44213 29.4163 9.44213H38.3045C39.2862 9.44213 40.0821 10.238 40.0821 11.2198C40.0821 12.2015 39.2862 12.9974 38.3045 12.9974H29.4163C28.4345 12.9974 27.6386 12.2015 27.6386 11.2198Z" fill="white"/>
</svg>
