<svg width="24" height="24" viewBox="0 0 24 24" fill="none" xmlns="http://www.w3.org/2000/svg">
<path d="M12 0.333984C18.4423 0.333984 23.6666 4.97498 23.6666 10.7045C23.6657 12.4232 22.9825 14.0713 21.767 15.2865C20.5516 16.5017 18.9034 17.1847 17.1846 17.1853H14.891C13.8153 17.1853 12.9461 18.0545 12.9461 19.1302C12.9461 19.6225 13.141 20.0763 13.4385 20.4135C13.75 20.7635 13.9448 21.2173 13.9448 21.7225C13.9448 22.7993 13.05 23.6673 12 23.6673C5.55765 23.6673 0.333313 18.443 0.333313 12.0007C0.333313 5.55832 5.55765 0.333984 12 0.333984ZM6.74998 12.0007C7.21411 12.0007 7.65923 11.8163 7.98742 11.4881C8.31561 11.1599 8.49998 10.7148 8.49998 10.2507C8.49998 9.78652 8.31561 9.3414 7.98742 9.01321C7.65923 8.68503 7.21411 8.50065 6.74998 8.50065C6.28585 8.50065 5.84073 8.68503 5.51254 9.01321C5.18435 9.3414 4.99998 9.78652 4.99998 10.2507C4.99998 10.7148 5.18435 11.1599 5.51254 11.4881C5.84073 11.8163 6.28585 12.0007 6.74998 12.0007ZM17.25 12.0007C17.7141 12.0007 18.1592 11.8163 18.4874 11.4881C18.8156 11.1599 19 10.7148 19 10.2507C19 9.78652 18.8156 9.3414 18.4874 9.01321C18.1592 8.68503 17.7141 8.50065 17.25 8.50065C16.7859 8.50065 16.3407 8.68503 16.0125 9.01321C15.6844 9.3414 15.5 9.78652 15.5 10.2507C15.5 10.7148 15.6844 11.1599 16.0125 11.4881C16.3407 11.8163 16.7859 12.0007 17.25 12.0007ZM12 8.50065C12.4641 8.50065 12.9092 8.31628 13.2374 7.98809C13.5656 7.6599 13.75 7.21478 13.75 6.75065C13.75 6.28652 13.5656 5.8414 13.2374 5.51321C12.9092 5.18503 12.4641 5.00065 12 5.00065C11.5359 5.00065 11.0907 5.18503 10.7625 5.51321C10.4344 5.8414 10.25 6.28652 10.25 6.75065C10.25 7.21478 10.4344 7.6599 10.7625 7.98809C11.0907 8.31628 11.5359 8.50065 12 8.50065Z" fill="#F7931E"/>
</svg>
