<svg width="25" height="25" viewBox="0 0 25 25" fill="none" xmlns="http://www.w3.org/2000/svg">
<path d="M5.00004 8.50065H21.261L21.8444 6.16732H7.33337V3.83398H23.34C23.5174 3.83399 23.6924 3.87442 23.8518 3.95221C24.0111 4.03 24.1507 4.14309 24.2598 4.2829C24.3689 4.42271 24.4447 4.58555 24.4814 4.75905C24.5181 4.93254 24.5148 5.11213 24.4717 5.28415L21.555 16.9508C21.4918 17.2031 21.3461 17.427 21.1411 17.5871C20.9361 17.7471 20.6835 17.834 20.4234 17.834H3.83337C3.52395 17.834 3.22721 17.7111 3.00842 17.4923C2.78962 17.2735 2.66671 16.9767 2.66671 16.6673V2.66732H0.333374V0.333984H3.83337C4.14279 0.333984 4.43954 0.456901 4.65833 0.675693C4.87712 0.894485 5.00004 1.19123 5.00004 1.50065V8.50065ZM5.00004 24.834C4.3812 24.834 3.78771 24.5882 3.35012 24.1506C2.91254 23.713 2.66671 23.1195 2.66671 22.5007C2.66671 21.8818 2.91254 21.2883 3.35012 20.8507C3.78771 20.4132 4.3812 20.1673 5.00004 20.1673C5.61888 20.1673 6.21237 20.4132 6.64996 20.8507C7.08754 21.2883 7.33337 21.8818 7.33337 22.5007C7.33337 23.1195 7.08754 23.713 6.64996 24.1506C6.21237 24.5882 5.61888 24.834 5.00004 24.834ZM19 24.834C18.3812 24.834 17.7877 24.5882 17.3501 24.1506C16.9125 23.713 16.6667 23.1195 16.6667 22.5007C16.6667 21.8818 16.9125 21.2883 17.3501 20.8507C17.7877 20.4132 18.3812 20.1673 19 20.1673C19.6189 20.1673 20.2124 20.4132 20.65 20.8507C21.0875 21.2883 21.3334 21.8818 21.3334 22.5007C21.3334 23.1195 21.0875 23.713 20.65 24.1506C20.2124 24.5882 19.6189 24.834 19 24.834Z" fill="#3E3E3E"/>
</svg>
