<svg width="23" height="24" viewBox="0 0 23 24" fill="none" xmlns="http://www.w3.org/2000/svg">
<path opacity="0.6" d="M3.66669 19.0007H6.00002V21.334H20V2.66732H6.00002V5.00065H3.66669V1.50065C3.66669 1.19123 3.7896 0.894486 4.0084 0.675693C4.22719 0.456901 4.52393 0.333984 4.83335 0.333984H21.1667C21.4761 0.333984 21.7729 0.456901 21.9916 0.675693C22.2104 0.894486 22.3334 1.19123 22.3334 1.50065V22.5007C22.3334 22.8101 22.2104 23.1068 21.9916 23.3256C21.7729 23.5444 21.4761 23.6673 21.1667 23.6673H4.83335C4.52393 23.6673 4.22719 23.5444 4.0084 23.3256C3.7896 23.1068 3.66669 22.8101 3.66669 22.5007V19.0007ZM6.00002 10.834H14.1667V13.1673H6.00002V16.6673L0.166687 12.0007L6.00002 7.33398V10.834Z" fill="#3E3E3E"/>
</svg>
