<svg width="963" height="1080" viewBox="0 0 963 1080" fill="none" xmlns="http://www.w3.org/2000/svg">
<g opacity="0.05">
<rect x="231.031" y="214.799" width="20" height="277.378" rx="10" transform="rotate(32.5016 231.031 214.799)" fill="#FF525D"/>
<rect x="272.1" y="185.45" width="20" height="372.407" rx="10" transform="rotate(32.5016 272.1 185.45)" fill="#FFC700"/>
<rect x="279.709" y="210.12" width="20" height="338.074" rx="10" transform="rotate(32.5016 279.709 210.12)" fill="#73E79A"/>
<rect x="350.754" y="133.453" width="20" height="589.418" rx="10" transform="rotate(32.5016 350.754 133.453)" fill="#6C6B6B"/>
<rect x="806.945" y="570.346" width="20" height="277.378" rx="10" transform="rotate(32.5016 806.945 570.346)" fill="#6372C1"/>
<rect x="848.014" y="540.997" width="20" height="372.407" rx="10" transform="rotate(32.5016 848.014 540.997)" fill="#6372C1"/>
<rect x="855.623" y="565.667" width="20" height="338.074" rx="10" transform="rotate(32.5016 855.623 565.667)" fill="#FF18BE"/>
<rect x="926.668" y="489" width="20" height="589.418" rx="10" transform="rotate(32.5016 926.668 489)" fill="#BC0272"/>
<rect x="348.211" y="174.538" width="20" height="511.941" rx="10" transform="rotate(32.5016 348.211 174.538)" fill="#34ABE0"/>
<rect x="443.596" y="61.6934" width="20" height="825.567" rx="10" transform="rotate(32.5016 443.596 61.6934)" fill="#BC0272"/>
<rect x="442.669" y="94.3643" width="20" height="743.405" rx="10" transform="rotate(32.5016 442.669 94.3643)" fill="#EF4152"/>
<rect x="432.799" y="145.195" width="20" height="632.156" rx="10" transform="rotate(32.5016 432.799 145.195)" fill="#DBFF00"/>
<rect x="522.782" y="33.999" width="20" height="969.292" rx="10" transform="rotate(32.5016 522.782 33.999)" fill="#FF69F0"/>
<rect x="416.721" y="236.586" width="20" height="442.087" rx="10" transform="rotate(32.5016 416.721 236.586)" fill="#FF005C"/>
<rect x="391.303" y="647.691" width="20" height="277.378" rx="10" transform="rotate(-147.5 391.303 647.691)" fill="#59EF41"/>
<rect x="221.522" y="879.082" width="20" height="821.781" rx="10" transform="rotate(-147.5 221.522 879.082)" fill="#DB8C16"/>
<rect x="342.676" y="652.291" width="20" height="338.074" rx="10" transform="rotate(-147.5 342.676 652.291)" fill="#F9EED7"/>
<rect x="164.85" y="896.68" width="20" height="946.585" rx="10" transform="rotate(-147.5 164.85 896.68)" fill="#3454FF"/>
<rect x="274.267" y="687.821" width="20" height="511.941" rx="10" transform="rotate(-147.5 274.267 687.821)" fill="#FFC700"/>
<rect x="178.933" y="800.643" width="20" height="825.567" rx="10" transform="rotate(-147.5 178.933 800.643)" fill="#45F4FF"/>
<rect x="179.854" y="767.919" width="20" height="743.405" rx="10" transform="rotate(-147.5 179.854 767.919)" fill="#FF18BE"/>
<rect x="189.733" y="717.038" width="20" height="632.156" rx="10" transform="rotate(-147.5 189.733 717.038)" fill="#6372C1"/>
<rect x="99.8284" y="828.238" width="20" height="969.292" rx="10" transform="rotate(-147.5 99.8284 828.238)" fill="#FF005C"/>
<rect x="515.198" y="735.071" width="20" height="277.378" rx="10" transform="rotate(-147.5 515.198 735.071)" fill="#59EF41"/>
<rect x="474.156" y="764.382" width="20" height="372.407" rx="10" transform="rotate(-147.5 474.156 764.382)" fill="#3454FF"/>
<rect x="466.572" y="739.671" width="20" height="338.074" rx="10" transform="rotate(-147.5 466.572 739.671)" fill="#FFD15C"/>
<rect x="395.6" y="816.332" width="20" height="589.418" rx="10" transform="rotate(-147.5 395.6 816.332)" fill="#FF525D"/>
<rect x="398.162" y="775.201" width="20" height="511.941" rx="10" transform="rotate(-147.5 398.162 775.201)" fill="#DBFF00"/>
<rect x="302.828" y="888.023" width="20" height="825.567" rx="10" transform="rotate(-147.5 302.828 888.023)" fill="#6372C1"/>
<rect x="324.733" y="817.039" width="20" height="632.156" rx="10" transform="rotate(-147.5 324.733 817.039)" fill="#DBFF00"/>
<rect x="234.828" y="928.238" width="20" height="969.292" rx="10" transform="rotate(-147.5 234.828 928.238)" fill="#FF8900"/>
<rect x="509.828" y="1039.02" width="20" height="825.567" rx="10" transform="rotate(-147.5 509.828 1039.02)" fill="#DB8C16"/>
<rect x="531.733" y="968.039" width="20" height="632.156" rx="10" transform="rotate(-147.5 531.733 968.039)" fill="#45F4FF"/>
<rect x="441.828" y="1079.24" width="20" height="969.292" rx="10" transform="rotate(-147.5 441.828 1079.24)" fill="#FF005C"/>
<rect x="205.836" y="625.562" width="20" height="442.087" rx="10" transform="rotate(-147.5 205.836 625.562)" fill="#DBFF00"/>
<rect x="817.556" y="254.693" width="20" height="825.567" rx="10" transform="rotate(32.5016 817.556 254.693)" fill="#6C6B6B"/>
<rect x="816.629" y="287.364" width="20" height="743.405" rx="10" transform="rotate(32.5016 816.629 287.364)" fill="#FFD15C"/>
<rect x="806.759" y="338.195" width="20" height="632.156" rx="10" transform="rotate(32.5016 806.759 338.195)" fill="#6372C1"/>
<rect x="896.742" y="226.999" width="20" height="969.292" rx="10" transform="rotate(32.5016 896.742 226.999)" fill="#F9EED7"/>
<rect x="846.365" y="342.186" width="20" height="706.598" rx="10" transform="rotate(32.5016 846.365 342.186)" fill="#EF4152"/>
<rect x="580.828" y="827.6" width="20" height="442.087" rx="10" transform="rotate(-147.5 580.828 827.6)" fill="#34ABE0"/>
</g>
</svg>
