<svg width="1243" height="563" viewBox="0 0 1243 563" fill="none" xmlns="http://www.w3.org/2000/svg">
<g opacity="0.1">
<rect x="713.104" y="261.688" width="20" height="277.378" rx="10" transform="rotate(-46.5907 713.104 261.688)" fill="#6372C1"/>
<rect x="692.057" y="215.807" width="20" height="372.407" rx="10" transform="rotate(-46.5907 692.057 215.807)" fill="#6372C1"/>
<rect x="717.721" y="213.002" width="20" height="338.074" rx="10" transform="rotate(-46.5907 717.721 213.002)" fill="#FF18BE"/>
<rect x="655.883" y="128.732" width="20" height="589.418" rx="10" transform="rotate(-46.5907 655.883 128.732)" fill="#BC0272"/>
<rect x="144.886" y="522.219" width="20" height="825.567" rx="10" transform="rotate(-46.5907 144.886 522.219)" fill="#BC0272"/>
<rect x="176.791" y="529.312" width="20" height="743.405" rx="10" transform="rotate(-46.5907 176.791 529.312)" fill="#EF4152"/>
<rect x="224.836" y="548.623" width="20" height="632.156" rx="10" transform="rotate(-46.5907 224.836 548.623)" fill="#DBFF00"/>
<rect x="132.676" y="439.223" width="20" height="969.292" rx="10" transform="rotate(-46.5907 132.676 439.223)" fill="#FF69F0"/>
<rect x="710.401" y="684.455" width="20" height="277.378" rx="10" transform="rotate(133.408 710.401 684.455)" fill="#59EF41"/>
<rect x="905.484" y="894.955" width="20" height="821.781" rx="10" transform="rotate(133.408 905.484 894.955)" fill="#DB8C16"/>
<rect x="705.716" y="733.074" width="20" height="338.074" rx="10" transform="rotate(133.408 705.716 733.074)" fill="#F9EED7"/>
<rect x="912.04" y="953.932" width="20" height="946.585" rx="10" transform="rotate(133.408 912.04 953.932)" fill="#3454FF"/>
<rect x="727.66" y="806.971" width="20" height="511.941" rx="10" transform="rotate(133.408 727.66 806.971)" fill="#FFC700"/>
<rect x="820.403" y="921.932" width="20" height="825.567" rx="10" transform="rotate(133.408 820.403 921.932)" fill="#45F4FF"/>
<rect x="788.445" y="914.834" width="20" height="743.405" rx="10" transform="rotate(133.408 788.445 914.834)" fill="#FF18BE"/>
<rect x="740.353" y="895.506" width="20" height="632.156" rx="10" transform="rotate(133.408 740.353 895.506)" fill="#6372C1"/>
<rect x="832.531" y="1004.83" width="20" height="969.292" rx="10" transform="rotate(133.408 832.531 1004.83)" fill="#FF005C"/>
<rect x="819.647" y="579.332" width="20" height="277.378" rx="10" transform="rotate(133.408 819.647 579.332)" fill="#59EF41"/>
<rect x="840.662" y="625.18" width="20" height="372.407" rx="10" transform="rotate(133.408 840.662 625.18)" fill="#3454FF"/>
<rect x="814.962" y="627.951" width="20" height="338.074" rx="10" transform="rotate(133.408 814.962 627.951)" fill="#FFD15C"/>
<rect x="876.808" y="712.146" width="20" height="589.418" rx="10" transform="rotate(133.408 876.808 712.146)" fill="#FF525D"/>
<rect x="836.906" y="701.848" width="20" height="511.941" rx="10" transform="rotate(133.408 836.906 701.848)" fill="#DBFF00"/>
<rect x="929.648" y="816.809" width="20" height="825.567" rx="10" transform="rotate(133.408 929.648 816.809)" fill="#6372C1"/>
<rect x="864.092" y="781.867" width="20" height="632.156" rx="10" transform="rotate(133.408 864.092 781.867)" fill="#DBFF00"/>
<rect x="956.27" y="891.189" width="20" height="969.292" rx="10" transform="rotate(133.408 956.27 891.189)" fill="#FF8900"/>
<rect x="1117.09" y="642.121" width="20" height="825.567" rx="10" transform="rotate(133.408 1117.09 642.121)" fill="#DB8C16"/>
<rect x="1051.53" y="607.182" width="20" height="632.156" rx="10" transform="rotate(133.408 1051.53 607.182)" fill="#45F4FF"/>
<rect x="1143.71" y="716.504" width="20" height="969.292" rx="10" transform="rotate(133.408 1143.71 716.504)" fill="#FF005C"/>
<rect x="653.576" y="862.383" width="20" height="442.087" rx="10" transform="rotate(133.408 653.576 862.383)" fill="#DBFF00"/>
<rect x="405.163" y="191.537" width="20" height="825.567" rx="10" transform="rotate(-46.5907 405.163 191.537)" fill="#6C6B6B"/>
<rect x="437.068" y="198.629" width="20" height="743.405" rx="10" transform="rotate(-46.5907 437.068 198.629)" fill="#FFD15C"/>
<rect x="485.113" y="217.939" width="20" height="632.156" rx="10" transform="rotate(-46.5907 485.113 217.939)" fill="#6372C1"/>
<rect x="392.953" y="108.541" width="20" height="969.292" rx="10" transform="rotate(-46.5907 392.953 108.541)" fill="#F9EED7"/>
<rect x="496.526" y="179.805" width="20" height="706.598" rx="10" transform="rotate(-46.5907 496.526 179.805)" fill="#EF4152"/>
<rect x="922.922" y="532.396" width="20" height="442.087" rx="10" transform="rotate(133.408 922.922 532.396)" fill="#34ABE0"/>
</g>
</svg>
