<svg width="70" height="70" viewBox="0 0 70 70" fill="none" xmlns="http://www.w3.org/2000/svg">
<path d="M63.8477 0H6.15234C2.75994 0 0 2.75994 0 6.15234V30.7617C0 34.1541 2.75994 36.9141 6.15234 36.9141H28.8477V42.3537L20.2036 50.9977L29.6263 70H44.4752L54.0451 50.7008L41.1523 42.1055V36.9141H63.8477C67.2401 36.9141 70 34.1541 70 30.7617V6.15234C70 2.75994 67.2401 0 63.8477 0V0ZM6.15234 32.8125C5.02154 32.8125 4.10156 31.8925 4.10156 30.7617V6.15234C4.10156 5.02154 5.02154 4.10156 6.15234 4.10156H32.9492V28.7109H28.8477V32.8125H6.15234ZM48.7673 52.1117L41.931 65.8984H32.1705L25.1869 51.8148L28.8477 48.1541V53.457H32.9492C32.9492 50.9651 32.9492 35.1392 32.9492 32.8125H37.0508V44.3007L48.7673 52.1117ZM65.8984 30.7617C65.8984 31.8925 64.9785 32.8125 63.8477 32.8125H41.1523V28.7109H37.0508V4.10156H63.8477C64.9785 4.10156 65.8984 5.02154 65.8984 6.15234V30.7617Z" fill="#F7931E"/>
<path d="M51.4062 8.20312H45.2539V28.7109H51.4062C54.7987 28.7109 57.5586 25.951 57.5586 22.5586C57.5586 20.984 56.9633 19.5464 55.987 18.457C56.9635 17.3677 57.5586 15.9301 57.5586 14.3555C57.5586 10.9631 54.7987 8.20312 51.4062 8.20312ZM49.3555 12.3047H51.4062C52.5371 12.3047 53.457 13.2247 53.457 14.3555C53.457 15.4863 52.5371 16.4062 51.4062 16.4062H49.3555V12.3047ZM51.4062 24.6094H49.3555V20.5078H51.4062C52.5371 20.5078 53.457 21.4278 53.457 22.5586C53.457 23.6894 52.5371 24.6094 51.4062 24.6094Z" fill="#F7931E"/>
<path d="M18.594 12.3048C19.7248 12.3048 20.6448 13.2248 20.6448 14.3556H24.7463C24.7463 10.9632 21.9864 8.20337 18.594 8.20337C15.2016 8.20337 12.4417 10.9633 12.4417 14.3557C12.4417 17.7481 15.2016 20.5081 18.594 20.5081C19.7248 20.5081 20.6448 21.428 20.6448 22.5588C20.6448 23.6896 19.7248 24.6096 18.594 24.6096C17.4632 24.6096 16.5432 23.6896 16.5432 22.5588H12.4417C12.4417 25.9512 15.2016 28.7112 18.594 28.7112C21.9864 28.7112 24.7463 25.9512 24.7463 22.5588C24.7463 19.1664 21.9864 16.4065 18.594 16.4065C17.4632 16.4065 16.5432 15.4865 16.5432 14.3557C16.5432 13.2249 17.4631 12.3048 18.594 12.3048Z" fill="#F7931E"/>
</svg>
