<svg width="80" height="80" viewBox="0 0 80 80" fill="none" xmlns="http://www.w3.org/2000/svg">
<path d="M30 28.75V23.75C30 19.1112 26.3675 15.3138 21.7987 15.0275C23.0075 13.6962 23.75 11.935 23.75 10C23.75 5.86375 20.3862 2.5 16.25 2.5C12.1138 2.5 8.75 5.86375 8.75 10C8.75 11.935 9.4925 13.6962 10.7013 15.0275C6.1325 15.3138 2.5 19.1112 2.5 23.75V28.75C2.5 29.4412 3.05875 30 3.75 30H28.75C29.4412 30 30 29.4412 30 28.75ZM16.25 5C19.0075 5 21.25 7.2425 21.25 10C21.25 12.7575 19.0075 15 16.25 15C13.4925 15 11.25 12.7575 11.25 10C11.25 7.2425 13.4925 5 16.25 5ZM27.5 27.5H5V23.75C5 20.3037 7.80375 17.5 11.25 17.5H21.25C24.6963 17.5 27.5 20.3037 27.5 23.75V27.5Z" fill="#F7931E"/>
<path d="M69.2987 62.5275C70.5075 61.1962 71.25 59.435 71.25 57.5C71.25 53.3637 67.8862 50 63.75 50C59.6138 50 56.25 53.3637 56.25 57.5C56.25 59.435 56.9925 61.1962 58.2013 62.5275C53.6325 62.8137 50 66.6112 50 71.25V76.25C50 76.9412 50.5588 77.5 51.25 77.5H76.25C76.9412 77.5 77.5 76.9412 77.5 76.25V71.25C77.5 66.6112 73.8675 62.8137 69.2987 62.5275ZM63.75 52.5C66.5075 52.5 68.75 54.7425 68.75 57.5C68.75 60.2575 66.5075 62.5 63.75 62.5C60.9925 62.5 58.75 60.2575 58.75 57.5C58.75 54.7425 60.9925 52.5 63.75 52.5ZM75 75H52.5V71.25C52.5 67.8037 55.3038 65 58.75 65H68.75C72.1963 65 75 67.8037 75 71.25V75Z" fill="#F7931E"/>
<path d="M44.7324 35C43.3174 35 41.9887 35.57 40.9924 36.6062L39.9999 37.6375L39.0074 36.6062C38.0112 35.57 36.6824 35 35.2674 35C33.8512 35 32.5224 35.57 31.5262 36.6062C29.4999 38.7112 29.4999 42.1375 31.5262 44.2438L39.0999 52.1163C39.3349 52.3625 39.6612 52.5 39.9999 52.5C40.3387 52.5 40.6649 52.3625 40.9012 52.1163L48.4749 44.2438C50.5011 42.1363 50.5011 38.71 48.4749 36.6062C47.4774 35.57 46.1487 35 44.7324 35ZM46.6724 42.5112L39.9999 49.4475L33.3274 42.5112C32.2212 41.3612 32.2199 39.49 33.3274 38.34C33.8487 37.7975 34.5374 37.5 35.2674 37.5C35.9962 37.5 36.6849 37.7975 37.2062 38.34L39.0999 40.3075C39.5712 40.7987 40.4299 40.7987 40.9012 40.3075L42.7949 38.34C43.8374 37.2538 45.6312 37.2563 46.6737 38.34C47.7799 39.49 47.7787 41.3612 46.6724 42.5112Z" fill="#F7931E"/>
<path d="M40.3663 14.1162L35.3663 19.1162C34.8776 19.605 34.8776 20.395 35.3663 20.8837L40.3663 25.8837L42.1338 24.1162L39.2676 21.25H62.5001V45H65.0001V20C65.0001 19.3087 64.4413 18.75 63.7501 18.75H39.2676L42.1338 15.8837L40.3663 14.1162Z" fill="#F7931E"/>
<path d="M39.6337 61.6162L37.8662 63.3838L40.7325 66.25H17.5V35H15V67.5C15 68.1912 15.5587 68.75 16.25 68.75H40.7325L37.8662 71.6162L39.6337 73.3838L44.6337 68.3838C45.1225 67.895 45.1225 67.105 44.6337 66.6162L39.6337 61.6162Z" fill="#F7931E"/>
</svg>
