<svg width="84" height="80" viewBox="0 0 84 80" fill="none" xmlns="http://www.w3.org/2000/svg">
<path d="M79.5419 23.9176H65.2972C62.8391 23.9176 60.8391 25.9185 60.8391 28.3781V44.7736H55.511C55.8072 43.6972 55.9169 42.4275 55.8449 40.9499V40.9498C55.7292 34.7057 54.5962 29.4432 52.477 25.3085C50.8315 22.0983 48.9111 20.1737 47.2633 19.0231C49.1974 17.0345 50.3157 14.2056 50.3157 10.9429C50.3157 5.07257 45.6328 0.296875 39.877 0.296875C34.1212 0.296875 29.4384 5.07257 29.4384 10.9429C29.4384 11.6226 29.9893 12.1734 30.6689 12.1734H31.5049C31.428 12.6377 31.387 13.1108 31.387 13.5914C31.387 17.7284 34.343 21.186 38.2513 21.9608C37.8417 23.482 37.6381 25.2757 37.6389 27.3134L34.5699 29.953L27.1026 30.5569L18.4889 27.7094C17.6994 27.4469 16.8046 27.1503 16.0283 27.7101C15.2632 28.2621 15.2632 29.2286 15.2632 29.5461V35.9503C15.2632 36.63 15.8141 37.1807 16.4937 37.1807H17.9586L15.7118 44.9448C15.5229 45.5975 15.899 46.28 16.5518 46.4688C17.2049 46.6586 17.8869 46.2816 18.0759 45.629L20.5208 37.1807H24.0189C19.668 50.4488 22.1506 59.3052 25.9665 68.2681H23.7546L14.542 57.9673L16.4901 51.2375C16.6791 50.5847 16.3031 49.9023 15.6503 49.7135C14.9974 49.5246 14.3151 49.9007 14.1261 50.5533L12.2629 56.9906C6.49999 56.8945 1.34515 60.8678 0.0315018 66.5842C-0.120584 67.2464 0.292689 67.9065 0.954681 68.0588L2.70145 68.4607C2.2552 73.0958 5.30759 77.4689 9.9627 78.5404C10.6696 78.7033 11.3827 78.7837 12.0908 78.7837C13.837 78.7837 15.5526 78.2942 17.07 77.3431C18.8509 76.2271 20.1779 74.5865 20.896 72.6476L22.2743 72.9648C22.6849 73.0597 23.0744 73.1078 23.4636 72.8983C23.8257 72.7034 24.0663 72.3515 24.1566 71.9543C24.2432 71.5515 24.3091 71.1422 24.3549 70.7291H50.0894C50.9124 75.8457 55.2658 79.7026 60.4651 79.7026C65.6644 79.7026 70.0179 75.8457 70.8409 70.7291H71.78C71.78 70.7291 71.9663 70.7312 72.0088 70.7312C72.3607 70.7312 72.869 70.6922 73.2864 70.2676C73.4952 70.0551 73.7403 69.675 73.7215 69.0711C73.6869 67.9156 73.5135 66.7991 73.2175 65.738C74.1976 59.7877 73.2546 56.1638 71.8566 53.3276C72.7404 52.7483 73.3264 51.7502 73.3264 50.6162V47.2343H79.5416C81.9997 47.2343 83.9997 45.2334 83.9997 42.7738V28.378C84 25.9185 82.0002 23.9176 79.5419 23.9176ZM15.7633 75.2582C14.1881 76.2453 12.3244 76.5592 10.5151 76.1426H10.5149C7.18479 75.3761 4.96306 72.3224 5.12499 69.0205L18.472 72.0924C17.9197 73.3926 16.9854 74.4923 15.7633 75.2582ZM21.9202 70.3583L2.77988 65.9539C4.25693 61.9091 8.23184 59.2316 12.5767 59.4619L21.953 69.9457C21.9448 70.084 21.934 70.2215 21.9202 70.3583ZM40.5061 48.9161C40.1489 49.8582 40.1489 51.0196 40.1489 52.6272V57.2705H35.6432V50.9003C35.6432 43.6983 39.5738 42.4148 41.3378 42.203H53.4012C53.3526 43.8376 52.9838 44.9995 52.2836 45.7369C51.4676 46.5963 50.0712 47.015 48.0145 47.017L43.5978 47.0215C42.0228 47.0217 40.9827 47.6589 40.5061 48.9161ZM40.1489 59.7313V62.6693C40.1377 62.6693 40.1262 62.6693 40.1144 62.6693H31.3743C31.4726 61.7581 31.7564 61.053 32.2225 60.5651C32.9159 59.8396 33.8924 59.7313 34.4128 59.7313H40.1489ZM53.3469 39.7423H42.1567C41.7073 38.3282 41.3067 36.7798 40.9772 35.1884L44.3794 32.9801C46.2366 31.7741 47.2028 30.07 47.0302 28.3045C46.8773 26.7395 45.8133 25.3415 44.3197 24.7432C42.9557 24.1968 41.4875 24.3685 40.1899 25.1981C40.2969 24.0211 40.496 22.9705 40.7841 22.0786C41.3086 22.0245 41.8295 21.922 42.3411 21.7715C43.3824 21.5297 44.3446 21.1443 45.2133 20.6332C47.5832 22.0491 52.7955 26.6415 53.3469 39.7423ZM31.9894 9.71259C32.5697 5.78099 35.8857 2.75798 39.877 2.75798C44.2759 2.75798 47.8547 6.42986 47.8547 10.9431C47.8547 14.6138 46.0945 17.5723 43.2562 18.8743V12.3999C43.2562 11.2789 42.8272 9.90372 40.784 9.71767C40.7469 9.71423 40.7097 9.71259 40.6724 9.71259H31.9894ZM33.8481 13.5915C33.8481 13.1059 33.9034 12.6316 34.0121 12.1735H40.612C40.688 12.1817 40.7434 12.1906 40.7831 12.1986C40.7895 12.2442 40.7951 12.3099 40.7951 12.3999V19.5983C40.5019 19.6415 40.207 19.6633 39.9121 19.6635C39.9094 19.6635 39.9066 19.6635 39.9039 19.6635C36.5643 19.6604 33.8481 16.9377 33.8481 13.5915ZM32.2529 32.6096L35.1673 32.3739C35.427 32.353 35.6733 32.2502 35.871 32.0804L41.1308 27.5564L41.1316 27.5555C41.6402 27.1173 42.1831 26.8926 42.7117 26.8926C42.947 26.8926 43.1794 26.9372 43.4047 27.0274C44.0549 27.2878 44.5166 27.883 44.5812 28.5435C44.6624 29.3748 44.1148 30.2174 43.0397 30.9157L37.1785 34.72H32.2532V32.6096H32.2529ZM27.0528 33.0303L29.7919 32.8088V34.7203H26.609C26.1964 34.7203 26.0958 34.3774 26.084 34.0898C26.0772 33.9267 26.0927 33.109 27.0528 33.0303ZM24.1405 32.1808C23.7699 32.7885 23.5968 33.4994 23.6252 34.1905C23.6326 34.3695 23.6554 34.542 23.6872 34.71C23.6872 34.7134 23.6852 34.7169 23.6859 34.7201H17.7245V30.0488L24.1452 32.1713C24.1433 32.1745 24.1423 32.1777 24.1405 32.1808ZM26.6159 37.1811H37.5426C37.7803 37.1811 38.0131 37.1122 38.2125 36.9827L38.7694 36.6211C39.0374 37.8053 39.3425 38.9577 39.6749 40.0461C37.1654 40.7868 33.1821 43.1807 33.1821 50.9001V57.3939C32.3188 57.5681 31.2976 57.9707 30.4433 58.8647C29.5427 59.8071 29.0284 61.084 28.905 62.6692H26.4228C23.9215 55.4606 22.9702 47.7897 26.6159 37.1811ZM28.644 68.264C28.1892 67.2181 27.7508 66.1762 27.3381 65.1303H40.1143C41.7701 65.1303 42.6097 64.3764 42.6097 62.8898V58.5008V53.8575H52.322C53.0017 53.8575 53.5525 53.3068 53.5525 52.6271C53.5525 51.9474 53.0017 51.3966 52.322 51.3966H42.6185C42.6343 50.6977 42.6791 50.1261 42.8072 49.7885C42.8694 49.6242 42.9232 49.4825 43.599 49.4825L48.0168 49.4779C50.7837 49.4753 52.7632 48.8059 54.0683 47.4314C54.1286 47.3677 54.1857 47.3009 54.243 47.2345H62.0698H70.866V50.6163C70.866 51.0393 70.5095 51.3966 70.0875 51.3966H57.8378C57.1581 51.3966 56.6073 51.9474 56.6073 52.6271C56.6073 53.3068 57.1581 53.8575 57.8378 53.8575H69.3645C70.337 55.6627 71.2118 57.9089 71.1598 61.4577C68.7254 58.0762 64.7845 55.9019 60.3118 55.9019C56.7198 55.9019 53.3493 57.3109 50.821 59.8694C48.5774 62.1396 47.23 65.086 46.9527 68.2681L28.644 68.264ZM60.4652 77.242C56.6186 77.242 53.3745 74.4705 52.5896 70.7294H68.3409C67.5558 74.4702 64.3117 77.242 60.4652 77.242ZM69.7387 68.2685H51.1921H49.4243C50.0284 62.7046 54.6806 58.3629 60.3118 58.3629C65.2559 58.3629 69.4078 61.6229 70.7828 66.1867C70.7872 66.2011 70.7917 66.2155 70.7966 66.2298C70.991 66.8846 71.1283 67.5661 71.2026 68.2685H69.7387ZM81.5391 42.774C81.5391 43.8766 80.6431 44.7736 79.5419 44.7736H63.3001V38.4193H81.5391V42.774ZM81.5391 35.9583H63.3001V33.3414H81.5391V35.9583ZM81.5391 30.8804H63.3001V28.3781C63.3001 27.2755 64.196 26.3785 65.2972 26.3785H79.5419C80.6431 26.3785 81.5391 27.2756 81.5391 28.3781V30.8804Z" fill="#F7931E"/>
</svg>
