<svg width="84" height="84" viewBox="0 0 84 84" fill="none" xmlns="http://www.w3.org/2000/svg">
<path d="M68.0602 43.2305H71.7184C72.2909 46.063 74.799 48.2024 77.7978 48.2024C81.2177 48.2024 84 45.42 84 42C84 38.58 81.2177 35.7976 77.7976 35.7976C74.7989 35.7976 72.2907 37.937 71.7183 40.7695H68.06C67.7675 34.5019 65.2541 28.8049 61.2892 24.4509L67.8786 17.8616C69.1756 18.8062 70.7705 19.3654 72.4943 19.3654C76.8282 19.3654 80.3539 15.8396 80.3539 11.5057C80.3539 7.17183 76.8282 3.64613 72.4943 3.64613C68.1604 3.64613 64.6347 7.17199 64.6347 11.5057C64.6347 13.2295 65.1938 14.8244 66.1385 16.1214L59.5491 22.7107C55.1951 18.7459 49.4981 16.2323 43.2305 15.94V12.2817C46.063 11.7093 48.2024 9.20112 48.2024 6.20238C48.2024 2.78234 45.42 0 42 0C38.58 0 35.7976 2.78234 35.7976 6.20238C35.7976 9.20112 37.937 11.7093 40.7695 12.2817V15.9398C34.5019 16.2323 28.8049 18.7458 24.4509 22.7105L17.862 16.1218C18.8066 14.8245 19.3659 13.2295 19.3659 11.5057C19.3659 8.88858 18.0697 6.45143 15.8985 4.98635C15.3348 4.60638 14.5701 4.7547 14.1903 5.31809C13.8101 5.88148 13.9586 6.64617 14.5218 7.0263C16.0141 8.03316 16.9048 9.70774 16.9048 11.5057C16.9048 14.4828 14.4826 16.905 11.5055 16.905C8.52846 16.905 6.10641 14.4828 6.10641 11.5057C6.10641 9.10153 7.71996 6.96462 10.0303 6.30919C10.6841 6.12363 11.0637 5.44327 10.8782 4.78948C10.6926 4.13569 10.0119 3.75654 9.35862 3.9416C5.99468 4.89612 3.64547 8.00658 3.64547 11.5057C3.64547 15.8399 7.1715 19.3659 11.5057 19.3659C13.2297 19.3659 14.8247 18.8066 16.1218 17.862L22.7107 24.4507C18.7458 28.8048 16.2323 34.5017 15.9398 40.7694H12.2817C11.7093 37.9368 9.20112 35.7975 6.20238 35.7975C2.78234 35.7976 0 38.58 0 42C0 45.42 2.78234 48.2024 6.20238 48.2024C9.20112 48.2024 11.7093 46.063 12.2817 43.2305H15.94C16.2325 49.4981 18.7459 55.1951 22.7108 59.5491L16.1214 66.1384C14.8244 65.1938 13.2295 64.6346 11.5057 64.6346C7.17183 64.6346 3.64613 68.1604 3.64613 72.4943C3.64613 76.8282 7.17183 80.3539 11.5057 80.3539C15.8396 80.3539 19.3653 76.828 19.3653 72.4943C19.3653 70.7705 18.8062 69.1756 17.8615 67.8786L24.4509 61.2893C28.8049 65.2541 34.5019 67.7677 40.7695 68.06V71.7181C37.937 72.2905 35.7976 74.7987 35.7976 77.7975C35.7976 81.2177 38.58 84 42 84C45.42 84 48.2024 81.2177 48.2024 77.7976C48.2024 74.7989 46.063 72.2907 43.2305 71.7183V68.0602C49.4981 67.7677 55.1951 65.2542 59.5491 61.2895L66.138 67.8782C65.1934 69.1755 64.6341 70.7705 64.6341 72.4943C64.6341 76.8283 68.1601 80.3545 72.4943 80.3545C76.8285 80.3545 80.3545 76.8285 80.3545 72.4943C80.3545 71.6435 80.219 70.8056 79.9518 70.0035C79.7367 69.3589 79.0396 69.0104 78.3955 69.2252C77.7507 69.4401 77.4022 70.1369 77.6171 70.7816C77.8006 71.3321 77.8938 71.9084 77.8938 72.4941C77.8938 75.4712 75.4715 77.8934 72.4945 77.8934C69.5174 77.8934 67.0952 75.4714 67.0952 72.4941C67.0952 69.5169 69.5174 67.0948 72.4945 67.0948C73.1758 67.0948 73.8403 67.2202 74.4693 67.4674C75.1011 67.716 75.8159 67.4048 76.0646 66.7723C76.3132 66.1398 76.002 65.4257 75.3695 65.1769C74.4525 64.8167 73.4854 64.6339 72.4946 64.6339C70.7707 64.6339 69.1756 65.1932 67.8786 66.1379L61.2896 59.5491C65.2541 55.1951 67.7677 49.4981 68.0602 43.2305ZM77.7976 38.2586C79.8607 38.2586 81.5391 39.9369 81.5391 42C81.5391 44.0631 79.8607 45.7414 77.7976 45.7414C75.7345 45.7414 74.0562 44.0631 74.0562 42C74.0562 39.9369 75.7347 38.2586 77.7976 38.2586ZM72.4943 6.10706C75.4712 6.10706 77.8929 8.52895 77.8929 11.5057C77.8929 14.4826 75.471 16.9045 72.4943 16.9045C69.5175 16.9045 67.0957 14.4826 67.0957 11.5057C67.0957 8.52879 69.5175 6.10706 72.4943 6.10706ZM38.2586 6.20238C38.2586 4.1393 39.9371 2.46094 42 2.46094C44.0629 2.46094 45.7414 4.1393 45.7414 6.20238C45.7414 8.26547 44.0629 9.94383 42 9.94383C39.9371 9.94383 38.2586 8.2653 38.2586 6.20238ZM6.20238 45.7414C4.1393 45.7414 2.46094 44.0631 2.46094 42C2.46094 39.9369 4.1393 38.2586 6.20238 38.2586C8.26547 38.2586 9.94366 39.9369 9.94366 42C9.94366 44.0631 8.2653 45.7414 6.20238 45.7414ZM42 18.3711C55.029 18.3711 65.6289 28.971 65.6289 42C65.6289 55.029 55.029 65.6289 42 65.6289C28.971 65.6289 18.3711 55.0292 18.3711 42C18.3711 28.9708 28.971 18.3711 42 18.3711ZM11.5057 77.8929C8.52879 77.8929 6.10706 75.471 6.10706 72.4943C6.10706 69.5174 8.52895 67.0955 11.5057 67.0955C14.4825 67.0955 16.9043 69.5174 16.9043 72.4943C16.9043 75.4712 14.4825 77.8929 11.5057 77.8929ZM45.7414 77.7976C45.7414 79.8607 44.0629 81.5391 42 81.5391C39.9371 81.5391 38.2586 79.8607 38.2586 77.7976C38.2586 75.7345 39.9371 74.0562 42 74.0562C44.0629 74.0562 45.7414 75.7347 45.7414 77.7976Z" fill="#F7931E"/>
<path d="M28.0794 57.1512H35.0283C35.032 57.1512 35.0356 57.1517 35.0394 57.1517C35.0432 57.1517 35.0468 57.1512 35.0506 57.1512H39.129C39.8087 57.1512 40.3595 56.6003 40.3595 55.9208C40.3595 55.2412 39.8087 54.6903 39.129 54.6903H36.2699V52.6067C36.2699 51.9271 35.7191 51.3762 35.0394 51.3762C34.3597 51.3762 33.8089 51.9271 33.8089 52.6067V54.6903H29.3099V48.6298C29.3099 45.6527 31.7313 43.2305 34.7074 43.2305H49.2925C52.2688 43.2305 54.69 45.6527 54.69 48.6298V54.6903H50.1909V52.6067C50.1909 51.9271 49.6402 51.3762 48.9605 51.3762C48.2807 51.3762 47.73 51.9271 47.73 52.6067V54.6903H44.8712C44.1915 54.6903 43.6407 55.2412 43.6407 55.9208C43.6407 56.6003 44.1915 57.1512 44.8712 57.1512H48.9496C48.9534 57.1512 48.957 57.1517 48.9608 57.1517C48.9646 57.1517 48.9682 57.1512 48.9719 57.1512H55.9208C56.6005 57.1512 57.1513 56.6003 57.1513 55.9208V48.6298C57.1513 44.2956 53.6261 40.7696 49.2928 40.7696H48.3793C50.3051 39.0269 51.5172 36.5092 51.5172 33.7136C51.5172 28.4659 47.248 24.1967 42.0003 24.1967C36.7526 24.1967 32.4833 28.4659 32.4833 33.7136C32.4833 36.5092 33.6954 39.0269 35.6212 40.7696H34.7077C30.3745 40.7696 26.8492 44.2956 26.8492 48.6298V55.9208C26.8489 56.6003 27.3998 57.1512 28.0794 57.1512ZM34.9441 33.7136C34.9441 29.823 38.1094 26.6576 42.0001 26.6576C45.8908 26.6576 49.0561 29.8229 49.0561 33.7136C49.0561 37.6043 45.8908 40.7696 42.0001 40.7696C38.1094 40.7696 34.9441 37.6043 34.9441 33.7136Z" fill="#F7931E"/>
</svg>
