<svg width="364" height="42" viewBox="0 0 364 42" fill="none" xmlns="http://www.w3.org/2000/svg">
<rect width="364" height="42" fill="#F2F2F2"/>
<path d="M343 25.6837L338.636 30.0407L334.241 25.664L335.784 24.1148L337.527 25.8505V15.2623C337.529 14.9737 337.418 14.702 337.214 14.4971C337.009 14.2901 336.734 14.1762 336.442 14.1762H324.671L322.476 11.9898H336.442C337.321 11.9898 338.146 12.3331 338.765 12.956C339.381 13.5764 339.718 14.3988 339.713 15.2728V25.8757L341.455 24.1364L343 25.6837ZM332.935 27.8411H321.558C321.266 27.8411 320.991 27.7272 320.786 27.5204C320.582 27.3156 320.471 27.0436 320.473 26.755V16.1668L322.216 17.9025L323.759 16.3533L319.364 11.9766L315 16.3338L316.545 17.8809L318.287 16.1418V26.7445C318.282 27.6185 318.619 28.4411 319.235 29.0613C319.854 29.6842 320.679 30.0275 321.558 30.0275H335.524L333.329 27.8411H332.935Z" fill="#979797"/>
<path d="M37.5367 27.8511C36.1149 27.8511 34.9623 29.0037 34.9623 30.4255C34.9623 31.8474 36.1149 33 37.5367 33C38.9586 33 40.1112 31.8473 40.1112 30.4255C40.1112 29.0037 38.9586 27.8511 37.5367 27.8511ZM37.5367 31.8558C36.7468 31.8558 36.1065 31.2155 36.1065 30.4256C36.1065 29.6357 36.7468 28.9953 37.5367 28.9953C38.3266 28.9953 38.967 29.6357 38.967 30.4256C38.967 31.2155 38.3266 31.8558 37.5367 31.8558Z" fill="#979797"/>
<path d="M48.4066 27.8511C46.9847 27.8511 45.8322 29.0037 45.8322 30.4255C45.8322 31.8474 46.9848 33 48.4066 33C49.8284 33 50.981 31.8473 50.981 30.4255C50.981 29.0037 49.8285 27.8511 48.4066 27.8511ZM48.4066 31.8558C47.6167 31.8558 46.9764 31.2155 46.9764 30.4256C46.9764 29.6357 47.6167 28.9953 48.4066 28.9953C49.1965 28.9953 49.8368 29.6357 49.8368 30.4256C49.8369 31.2155 49.1965 31.8558 48.4066 31.8558Z" fill="#979797"/>
<path d="M54.2134 12.8336C54.0943 12.7035 53.9313 12.622 53.7557 12.6048L35.1338 12.3473L34.6189 10.774C34.2561 9.72228 33.2713 9.01226 32.1588 9.00049H30.2423C29.9263 9.00049 29.6702 9.25662 29.6702 9.57259C29.6702 9.88857 29.9263 10.1447 30.2423 10.1447H32.1588C32.7809 10.1584 33.3286 10.5579 33.5319 11.1459L37.1647 22.1017L36.8787 22.7596C36.5597 23.5823 36.6555 24.5082 37.1362 25.2482C37.6122 25.975 38.4131 26.4235 39.2816 26.4496H50.409C50.725 26.4496 50.9811 26.1935 50.9811 25.8775C50.9811 25.5616 50.725 25.3054 50.409 25.3054H39.2815C38.7911 25.2932 38.3397 25.0352 38.0801 24.6189C37.8234 24.2077 37.7707 23.7011 37.9371 23.2458L38.1659 22.7309L50.2087 21.4723C51.5315 21.3266 52.6197 20.3645 52.9262 19.0694L54.2993 13.3198C54.3612 13.1543 54.3283 12.968 54.2134 12.8336ZM51.8106 18.8121C51.6249 19.6457 50.9171 20.2606 50.0657 20.3281L38.1659 21.5581L35.5056 13.4915L53.0406 13.749L51.8106 18.8121Z" fill="#979797"/>
<path d="M185 32.5535C184.63 32.5535 184.273 32.4194 183.995 32.1758C182.945 31.2574 181.932 30.3943 181.038 29.633L181.034 29.629C178.414 27.3969 176.153 25.4691 174.579 23.5702C172.819 21.4473 172 19.4345 172 17.2356C172 15.0993 172.733 13.1283 174.063 11.6856C175.408 10.2258 177.255 9.42188 179.263 9.42188C180.764 9.42188 182.139 9.89636 183.348 10.832C183.959 11.3044 184.512 11.8824 185 12.5566C185.488 11.8824 186.041 11.3044 186.652 10.832C187.862 9.89636 189.236 9.42188 190.737 9.42188C192.745 9.42188 194.592 10.2258 195.938 11.6856C197.268 13.1283 198 15.0993 198 17.2356C198 19.4345 197.181 21.4473 195.421 23.57C193.848 25.4691 191.586 27.3967 188.967 29.6286C188.072 30.3912 187.058 31.2556 186.005 32.1762C185.727 32.4194 185.37 32.5535 185 32.5535ZM179.263 10.9449C177.686 10.9449 176.236 11.5745 175.182 12.7179C174.112 13.8785 173.523 15.4829 173.523 17.2356C173.523 19.085 174.21 20.739 175.751 22.5984C177.241 24.3958 179.456 26.2838 182.022 28.47L182.026 28.474C182.923 29.2383 183.94 30.1047 184.998 31.0299C186.062 30.1029 187.08 29.2351 187.979 28.4696C190.544 26.2834 192.759 24.3958 194.249 22.5984C195.79 20.739 196.477 19.085 196.477 17.2356C196.477 15.4829 195.888 13.8785 194.818 12.7179C193.764 11.5745 192.314 10.9449 190.737 10.9449C189.581 10.9449 188.52 11.3123 187.583 12.0367C186.748 12.6826 186.167 13.4991 185.826 14.0703C185.65 14.3641 185.342 14.5395 185 14.5395C184.658 14.5395 184.35 14.3641 184.174 14.0703C183.833 13.4991 183.252 12.6826 182.417 12.0367C181.48 11.3123 180.419 10.9449 179.263 10.9449Z" fill="#979797"/>
</svg>
