<svg width="21" height="21" viewBox="0 0 21 21" fill="none" xmlns="http://www.w3.org/2000/svg">
<g clip-path="url(#clip0)">
<path d="M21 10.5C21 10.8969 20.9781 11.289 20.9349 11.6743C20.3511 16.9204 15.9021 21 10.5 21C8.90101 21 7.38556 20.6426 6.02872 20.0027C4.683 19.3684 3.4933 18.4569 2.53415 17.3408C2.51742 17.3216 2.50113 17.3027 2.48485 17.2834C1.97872 16.6864 1.53858 16.0316 1.17514 15.3308C1.17514 15.3304 1.17473 15.3304 1.17473 15.33C0.725566 14.4656 0.393422 13.5304 0.199295 12.546C0.133301 12.2117 0.0831387 11.8719 0.0501621 11.5268V11.5264C0.0167344 11.1887 0 10.8467 0 10.5C0 10.4567 0.000410156 10.4139 0.000861328 10.3706C0.00512695 10.0015 0.0287109 9.63683 0.0707109 9.27769C0.372422 6.67156 1.62898 4.35639 3.48128 2.69099C4.56512 1.71556 5.85301 0.963006 7.2733 0.505271C8.28987 0.176982 9.37416 0 10.5 0C11.577 0 12.6163 0.162012 13.5947 0.463271C14.2791 0.674133 14.934 0.953121 15.5507 1.29257C16.1233 1.60716 16.6633 1.97355 17.1643 2.38584C18.2571 3.28412 19.1648 4.39884 19.8227 5.66442C20.1454 6.28544 20.4077 6.94243 20.6027 7.62813C20.7973 8.31514 20.9241 9.03127 20.9747 9.76799C20.9914 10.0097 21 10.254 21 10.5Z" fill="#34ABE0"/>
<path d="M20.9353 11.6746C20.6135 14.5688 19.1148 17.1072 16.9295 18.8022L16.929 18.8026C16.5841 19.0705 16.2219 19.3169 15.8443 19.5406C15.5495 19.7151 15.2456 19.8758 14.9336 20.0215C13.9676 20.4719 12.9219 20.7796 11.8235 20.9176H11.8231C11.3898 20.9721 10.9488 21.0004 10.5005 21.0004C9.99346 21.0004 9.49459 20.9644 9.00688 20.8945C8.73429 20.856 8.46473 20.8067 8.19944 20.7471C5.92972 20.2401 3.93771 18.9981 2.48531 17.2838C2.6006 17.1184 2.74416 16.9688 2.9156 16.8424L6.23061 14.3944C6.72604 14.0284 6.98788 13.464 6.98788 12.8918C6.98788 12.507 6.86918 12.1183 6.62317 11.7848C6.01118 10.956 4.84289 10.7803 4.01404 11.3923C2.4609 12.5395 0.38617 10.9071 1.13405 9.12725C1.4842 8.29369 1.95046 7.49269 2.53506 6.74695C6.06265 2.24565 12.5709 1.45708 17.0722 4.98467C19.2617 6.70064 20.5727 9.12208 20.9353 11.6746Z" fill="#E8DBC4"/>
<path d="M13.1812 5.8301C13.1812 6.25137 13.0411 6.64052 12.8054 6.95293C12.4651 7.40337 11.9251 7.69437 11.317 7.69437C10.2876 7.69437 9.45312 6.8595 9.45312 5.8301C9.45312 5.13968 9.82854 4.53667 10.3861 4.21437C10.66 4.05622 10.9779 3.96582 11.3169 3.96582C12.3468 3.96582 13.1812 4.80065 13.1812 5.8301Z" fill="#EF4152"/>
<path d="M13.1808 5.83009C13.1808 6.25136 13.0407 6.64052 12.8049 6.95293C12.5311 7.11109 12.2131 7.20149 11.8736 7.20149C10.8442 7.20149 10.0098 6.36662 10.0098 5.33721C10.0098 4.91594 10.1499 4.52679 10.3856 4.21437C10.6595 4.05622 10.9775 3.96582 11.3165 3.96582C12.3464 3.96582 13.1808 4.80065 13.1808 5.83009Z" fill="#FF525D"/>
<path d="M15.7529 10.5223C16.7824 10.5223 17.6171 9.68772 17.6171 8.65815C17.6171 7.62858 16.7824 6.79395 15.7529 6.79395C14.7233 6.79395 13.8887 7.62858 13.8887 8.65815C13.8887 9.68772 14.7233 10.5223 15.7529 10.5223Z" fill="#EDBB4C"/>
<path d="M17.6162 15.2802C18.6457 15.2802 19.4804 14.4455 19.4804 13.416C19.4804 12.3864 18.6457 11.5518 17.6162 11.5518C16.5866 11.5518 15.752 12.3864 15.752 13.416C15.752 14.4455 16.5866 15.2802 17.6162 15.2802Z" fill="#279FC9"/>
<path d="M17.0391 18.1715C17.0391 18.3922 17.0005 18.6043 16.9298 18.8011L16.9294 18.8015C16.5844 19.0694 16.2222 19.3158 15.8447 19.5395C15.5498 19.7139 15.246 19.8746 14.934 20.0204C14.0181 19.9021 13.3105 19.1195 13.3105 18.1715C13.3105 17.1421 14.1454 16.3076 15.1748 16.3076C16.2042 16.3076 17.0391 17.142 17.0391 18.1715Z" fill="#41B787"/>
<path d="M11.8947 20.4009C11.8947 20.5801 11.8694 20.7532 11.8222 20.9174C11.3889 20.9718 10.9475 21.0001 10.4992 21.0001C9.70891 21.0001 8.93876 20.9127 8.19817 20.7468C8.17717 20.6345 8.16602 20.5193 8.16602 20.401C8.16602 19.3716 9.0009 18.5371 10.0303 18.5371C11.0597 18.5371 11.8947 19.3715 11.8947 20.4009Z" fill="#F9EED7"/>
<path d="M17.6164 8.6592C17.6164 9.08048 17.4762 9.46963 17.2405 9.78205C16.9666 9.9402 16.6486 10.0306 16.3092 10.0306C15.2798 10.0306 14.4453 9.19573 14.4453 8.16632C14.4453 7.74505 14.5855 7.35589 14.8212 7.04348C15.095 6.88532 15.413 6.79492 15.752 6.79492C16.7819 6.79492 17.6164 7.62979 17.6164 8.6592Z" fill="#FFD15C"/>
<path d="M19.4796 13.416C19.4796 13.8373 19.3395 14.2265 19.1038 14.5389C18.8299 14.697 18.5119 14.7874 18.1725 14.7874C17.1431 14.7874 16.3086 13.9526 16.3086 12.9232C16.3086 12.5019 16.4487 12.1127 16.6845 11.8003C16.9583 11.6422 17.2763 11.5518 17.6153 11.5518C18.6452 11.5518 19.4796 12.3866 19.4796 13.416Z" fill="#34ABE0"/>
<path d="M17.0382 18.1719C17.0382 18.393 16.9996 18.6051 16.9285 18.8019C16.5835 19.0697 16.2213 19.3162 15.8438 19.5399C15.8065 19.542 15.7688 19.5433 15.7311 19.5433C14.7017 19.5433 13.8672 18.7084 13.8672 17.679C13.8672 17.2577 14.0073 16.8686 14.2431 16.5562C14.5169 16.398 14.8349 16.3076 15.1739 16.3076C16.2037 16.3076 17.0382 17.1424 17.0382 18.1719Z" fill="#4BC999"/>
<path d="M11.8936 20.4014C11.8936 20.5805 11.8684 20.7536 11.8208 20.9178C11.3875 20.9722 10.9465 21.0005 10.4982 21.0005C9.99122 21.0005 9.49235 20.9645 9.00464 20.8946C8.82593 20.6084 8.72266 20.2706 8.72266 19.9085C8.72266 19.4872 8.8628 19.0981 9.09852 18.7857C9.37238 18.6275 9.69037 18.5371 10.0294 18.5371C11.0592 18.5371 11.8936 19.3719 11.8936 20.4014Z" fill="#FCF8F2"/>
<path d="M4.82636 9.6786C4.24759 10.0226 3.56977 10.1389 2.95248 10.0361C0.393392 9.60949 0.679723 5.86197 1.92323 4.49115C2.12196 4.27094 2.27084 3.99055 2.37789 3.67691C2.37797 3.67633 2.37797 3.67633 2.37797 3.67633C2.38372 3.65902 2.38946 3.64176 2.3952 3.62445C2.41436 3.56432 2.43257 3.50288 2.44869 3.44049C2.50291 3.23841 2.54306 3.02492 2.57091 2.80647C2.61673 2.45058 2.63174 2.0814 2.62764 1.72387C2.61997 1.05076 3.47933 0.762378 3.87636 1.30596C5.79855 3.93781 6.37031 5.95512 6.21413 7.38755L6.21396 7.38866C6.09313 8.49989 5.53359 9.25901 4.82636 9.6786Z" fill="#FCF8F2"/>
<path d="M4.82636 9.67845C4.24759 10.0224 3.56977 10.1388 2.95248 10.0359C0.393392 9.60934 0.679723 5.86182 1.92323 4.491C2.12196 4.27079 2.27084 3.9904 2.37789 3.67676C2.09464 4.70157 1.2215 8.75519 4.82636 9.67845Z" fill="#F9EED7"/>
<path d="M6.21647 7.38563C6.3962 5.73934 5.61371 3.32004 2.9242 0.0826753C2.77745 -0.0939789 2.49034 0.0303804 2.52036 0.258058C2.60879 0.928541 2.68951 1.91743 2.57139 2.81895C2.56339 2.88006 2.55441 2.94081 2.54452 3.00098C2.54284 3.01115 2.54116 3.02124 2.53944 3.03137C2.52885 3.09343 2.51733 3.15491 2.50457 3.21565C2.50322 3.22209 2.50183 3.22849 2.50047 3.23493C2.48747 3.29563 2.47324 3.35548 2.4579 3.4145C2.45581 3.42258 2.45367 3.4307 2.4515 3.43874C2.43505 3.50051 2.41742 3.5615 2.39822 3.62109C2.39806 3.62167 2.39789 3.6222 2.39769 3.62277C2.39769 3.62277 2.39769 3.62286 2.39769 3.6229C2.28932 3.95795 2.13564 4.25696 1.92576 4.48956C2.079 4.88692 2.07912 5.32829 1.91965 5.72314C1.87679 5.82921 1.83016 5.93622 1.7793 6.04331C1.7793 6.04331 3.09548 5.58632 3.20057 4.35183C3.20057 4.35183 4.2125 6.09868 3.67187 7.83623C3.67187 7.83623 4.96419 6.54862 4.42336 4.22952C4.4234 4.22948 5.97009 5.19371 6.21647 7.38563Z" fill="#FFD15C"/>
<path d="M5.48465 10.312H1.75609C1.38924 10.312 1.0918 10.0145 1.0918 9.64769C1.0918 9.28084 1.38924 8.9834 1.75609 8.9834H5.48465C5.8515 8.9834 6.14894 9.28084 6.14894 9.64769C6.14894 10.0146 5.8515 10.312 5.48465 10.312Z" fill="#5C5E70"/>
<path d="M2.16321 9.64769C2.16321 9.28084 2.46065 8.9834 2.8275 8.9834H1.75609C1.38924 8.9834 1.0918 9.28084 1.0918 9.64769C1.0918 10.0145 1.38924 10.312 1.75609 10.312H2.8275C2.46065 10.312 2.16321 10.0146 2.16321 9.64769Z" fill="#494B5B"/>
<path d="M5.48465 11.6401H1.75609C1.38924 11.6401 1.0918 11.3427 1.0918 10.9758C1.0918 10.609 1.38924 10.3115 1.75609 10.3115H5.48465C5.8515 10.3115 6.14894 10.609 6.14894 10.9758C6.14894 11.3427 5.8515 11.6401 5.48465 11.6401Z" fill="#5C5E70"/>
<path d="M2.16321 10.9758C2.16321 10.609 2.46065 10.3115 2.8275 10.3115H1.75609C1.38924 10.3115 1.0918 10.609 1.0918 10.9758C1.0918 11.3427 1.38924 11.6401 1.75609 11.6401H2.8275C2.46065 11.6401 2.16321 11.3427 2.16321 10.9758Z" fill="#494B5B"/>
<path d="M6.02983 20.0029C4.66097 19.3579 3.45367 18.4258 2.48595 17.2836C1.97981 16.6862 1.53922 16.0313 1.17578 15.3302C1.24694 14.368 1.36691 13.408 1.53578 12.4549C1.58376 12.1832 1.63606 11.9115 1.69221 11.6406H5.54937C5.60552 11.9115 5.65782 12.1832 5.70581 12.4549C6.14726 14.9492 6.25566 17.4872 6.02983 20.0029Z" fill="#C69A6A"/>
<path d="M5.70339 12.454H4.02171C3.40844 12.454 2.88857 12.9061 2.80412 13.5134C2.62796 14.7833 2.53756 16.0617 2.53284 17.3401C2.51611 17.3208 2.49982 17.302 2.48354 17.2827C1.97741 16.6857 1.53727 16.0309 1.17383 15.3301C1.24499 14.3676 1.36496 13.4075 1.53382 12.454H1.53341C1.53727 12.4317 1.54198 12.4094 1.54498 12.3871C1.55314 12.3288 1.56557 12.271 1.57713 12.2135C1.58997 12.1505 1.60072 12.0879 1.6127 12.0249C1.63755 11.8964 1.66327 11.7678 1.68985 11.6396H5.547C5.60311 11.9105 5.6554 12.1822 5.70339 12.454Z" fill="#B58657"/>
</g>
<defs>
<clipPath id="clip0">
<rect width="21" height="21" fill="white"/>
</clipPath>
</defs>
</svg>
