<svg width="28" height="28" viewBox="0 0 28 28" fill="none" xmlns="http://www.w3.org/2000/svg">
<path d="M6.99992 10.4997H23.2609L23.8443 8.16634H9.33325V5.83301H25.3399C25.5173 5.83301 25.6923 5.87345 25.8516 5.95123C26.011 6.02902 26.1505 6.14212 26.2596 6.28193C26.3687 6.42173 26.4445 6.58457 26.4813 6.75807C26.518 6.93157 26.5147 7.11115 26.4716 7.28317L23.5549 18.9498C23.4917 19.2021 23.346 19.4261 23.141 19.5861C22.936 19.7461 22.6833 19.833 22.4233 19.833H5.83325C5.52383 19.833 5.22709 19.7101 5.00829 19.4913C4.7895 19.2725 4.66659 18.9758 4.66659 18.6663V4.66634H2.33325V2.33301H5.83325C6.14267 2.33301 6.43942 2.45592 6.65821 2.67472C6.877 2.89351 6.99992 3.19026 6.99992 3.49967V10.4997ZM6.99992 26.833C6.38108 26.833 5.78759 26.5872 5.35 26.1496C4.91242 25.712 4.66659 25.1185 4.66659 24.4997C4.66659 23.8808 4.91242 23.2873 5.35 22.8498C5.78759 22.4122 6.38108 22.1663 6.99992 22.1663C7.61876 22.1663 8.21225 22.4122 8.64983 22.8498C9.08742 23.2873 9.33325 23.8808 9.33325 24.4997C9.33325 25.1185 9.08742 25.712 8.64983 26.1496C8.21225 26.5872 7.61876 26.833 6.99992 26.833ZM20.9999 26.833C20.3811 26.833 19.7876 26.5872 19.35 26.1496C18.9124 25.712 18.6666 25.1185 18.6666 24.4997C18.6666 23.8808 18.9124 23.2873 19.35 22.8498C19.7876 22.4122 20.3811 22.1663 20.9999 22.1663C21.6188 22.1663 22.2122 22.4122 22.6498 22.8498C23.0874 23.2873 23.3333 23.8808 23.3333 24.4997C23.3333 25.1185 23.0874 25.712 22.6498 26.1496C22.2122 26.5872 21.6188 26.833 20.9999 26.833Z" fill="#3E3E3E"/>
</svg>
