<svg width="28" height="28" viewBox="0 0 28 28" fill="none" xmlns="http://www.w3.org/2000/svg">
<g clip-path="url(#clip0)">
<path d="M25.5 3.72181V28.9442C25.4974 29.3119 25.3687 29.6636 25.1416 29.9235C24.9145 30.1833 24.6073 30.3304 24.2863 30.333H4.71367C4.39199 30.333 4.08348 30.1867 3.85591 29.9263C3.62834 29.6659 3.50032 29.3127 3.5 28.9442V3.72181C3.50256 3.35414 3.63129 3.00238 3.85838 2.74253C4.08547 2.48267 4.39268 2.33557 4.71367 2.33301H24.2863C24.9561 2.33301 25.5 2.95461 25.5 3.72181ZM8.38889 5.13301V17.733L12.6667 14.933L16.9444 17.733V5.13301H8.38889Z" fill="#3E3E3E"/>
</g>
<defs>
<clipPath id="clip0">
<rect width="28" height="28" fill="white"/>
</clipPath>
</defs>
</svg>
