<svg width="24" height="24" viewBox="0 0 24 24" fill="none" xmlns="http://www.w3.org/2000/svg">
<circle cx="12" cy="12" r="12" fill="#3E3E3E"/>
<mask id="path-2-inside-1" fill="white">
<path d="M12.0759 12.7359L15.4093 17.1805C15.4464 17.2301 15.469 17.2889 15.4746 17.3506C15.4801 17.4123 15.4684 17.4742 15.4407 17.5296C15.413 17.585 15.3705 17.6315 15.3178 17.6641C15.2652 17.6966 15.2045 17.7139 15.1426 17.7139H8.47592C8.41402 17.7139 8.35334 17.6966 8.30068 17.6641C8.24802 17.6315 8.20547 17.585 8.17778 17.5296C8.1501 17.4742 8.13838 17.4123 8.14394 17.3506C8.1495 17.2889 8.17211 17.2301 8.20926 17.1805L11.5426 12.7359C11.5736 12.6945 11.6139 12.6609 11.6602 12.6377C11.7065 12.6146 11.7575 12.6025 11.8093 12.6025C11.861 12.6025 11.912 12.6146 11.9583 12.6377C12.0046 12.6609 12.0449 12.6945 12.0759 12.7359ZM15.8093 16.3805V15.0472H17.1426V7.0472H6.47592V15.0472H7.80926V16.3805H5.80392C5.71668 16.3804 5.63032 16.363 5.54981 16.3293C5.46931 16.2957 5.39624 16.2465 5.33479 16.1846C5.27335 16.1226 5.22474 16.0492 5.19175 15.9684C5.15877 15.8876 5.14206 15.8011 5.14259 15.7139V6.38053C5.14259 6.01253 5.44592 5.71387 5.80392 5.71387H17.8146C18.1799 5.71387 18.4759 6.01053 18.4759 6.38053V15.7139C18.4759 16.0819 18.1726 16.3805 17.8146 16.3805H15.8093Z"/>
</mask>
<path d="M12.0759 12.7359L13.676 11.5359L13.6759 11.5359L12.0759 12.7359ZM15.4093 17.1805L13.8092 18.3805L13.8093 18.3805L15.4093 17.1805ZM8.20926 17.1805L9.80926 18.3805L9.80929 18.3805L8.20926 17.1805ZM11.5426 12.7359L9.94259 11.5359L9.94256 11.5359L11.5426 12.7359ZM15.8093 16.3805H13.8093V18.3805H15.8093V16.3805ZM15.8093 15.0472V13.0472H13.8093V15.0472H15.8093ZM17.1426 15.0472V17.0472H19.1426V15.0472H17.1426ZM17.1426 7.0472H19.1426V5.0472H17.1426V7.0472ZM6.47592 7.0472V5.0472H4.47592V7.0472H6.47592ZM6.47592 15.0472H4.47592V17.0472H6.47592V15.0472ZM7.80926 15.0472H9.80926V13.0472H7.80926V15.0472ZM7.80926 16.3805V18.3805H9.80926V16.3805H7.80926ZM5.80392 16.3805L5.79994 18.3805H5.80392V16.3805ZM5.14259 15.7139L7.14259 15.7259V15.7139H5.14259ZM10.4759 13.9358L13.8092 18.3805L17.0093 15.9806L13.676 11.5359L10.4759 13.9358ZM13.8093 18.3805C13.6236 18.1329 13.5105 17.8385 13.4827 17.5302L17.4665 17.171C17.4276 16.7394 17.2692 16.3272 17.0093 15.9805L13.8093 18.3805ZM13.4827 17.5302C13.4549 17.2219 13.5135 16.912 13.6519 16.6352L17.2296 18.424C17.4234 18.0365 17.5054 17.6026 17.4665 17.171L13.4827 17.5302ZM13.6519 16.6352C13.7903 16.3583 14.0031 16.1255 14.2664 15.9628L16.3693 19.3654C16.7379 19.1376 17.0358 18.8116 17.2296 18.424L13.6519 16.6352ZM14.2664 15.9628C14.5297 15.8001 14.8331 15.7139 15.1426 15.7139V19.7139C15.5759 19.7139 16.0007 19.5932 16.3693 19.3654L14.2664 15.9628ZM15.1426 15.7139H8.47592V19.7139H15.1426V15.7139ZM8.47592 15.7139C8.78544 15.7139 9.08885 15.8001 9.35214 15.9628L7.24922 19.3654C7.61783 19.5932 8.0426 19.7139 8.47592 19.7139V15.7139ZM9.35214 15.9628C9.61544 16.1255 9.82822 16.3583 9.96664 16.6352L6.38893 18.424C6.58271 18.8116 6.8806 19.1376 7.24922 19.3654L9.35214 15.9628ZM9.96664 16.6352C10.1051 16.912 10.1637 17.2219 10.1359 17.5302L6.15202 17.171C6.1131 17.6026 6.19514 18.0365 6.38893 18.424L9.96664 16.6352ZM10.1359 17.5302C10.1081 17.8385 9.99497 18.1329 9.80926 18.3805L6.60926 15.9805C6.34926 16.3272 6.19093 16.7394 6.15202 17.171L10.1359 17.5302ZM9.80929 18.3805L13.1426 13.9358L9.94256 11.5359L6.60923 15.9806L9.80929 18.3805ZM13.1426 13.9359C12.9874 14.1429 12.786 14.3109 12.5546 14.4266L10.7658 10.8489C10.4418 11.0109 10.1599 11.2461 9.94259 11.5359L13.1426 13.9359ZM12.5546 14.4266C12.3232 14.5423 12.068 14.6025 11.8093 14.6025V10.6025C11.447 10.6025 11.0898 10.6869 10.7658 10.8489L12.5546 14.4266ZM11.8093 14.6025C11.5505 14.6025 11.2953 14.5423 11.0639 14.4266L12.8528 10.8489C12.5288 10.6869 12.1715 10.6025 11.8093 10.6025V14.6025ZM11.0639 14.4266C10.8325 14.3109 10.6312 14.1429 10.4759 13.9359L13.6759 11.5359C13.4586 11.2461 13.1768 11.0109 12.8528 10.8489L11.0639 14.4266ZM17.8093 16.3805V15.0472H13.8093V16.3805H17.8093ZM15.8093 17.0472H17.1426V13.0472H15.8093V17.0472ZM19.1426 15.0472V7.0472H15.1426V15.0472H19.1426ZM17.1426 5.0472H6.47592V9.0472H17.1426V5.0472ZM4.47592 7.0472V15.0472H8.47592V7.0472H4.47592ZM6.47592 17.0472H7.80926V13.0472H6.47592V17.0472ZM5.80926 15.0472V16.3805H9.80926V15.0472H5.80926ZM7.80926 14.3805H5.80392V18.3805H7.80926V14.3805ZM5.80791 14.3805C5.98399 14.3809 6.15826 14.416 6.32073 14.4839L4.7789 18.1748C5.10238 18.3099 5.44936 18.3798 5.79994 18.3805L5.80791 14.3805ZM6.32073 14.4839C6.4832 14.5517 6.63067 14.651 6.75467 14.776L3.91491 17.5931C4.1618 17.842 4.45541 18.0396 4.7789 18.1748L6.32073 14.4839ZM6.75467 14.776C6.87868 14.901 6.97677 15.0493 7.04334 15.2123L3.34017 16.7244C3.4727 17.049 3.66801 17.3442 3.91491 17.5931L6.75467 14.776ZM7.04334 15.2123C7.1099 15.3753 7.14362 15.5499 7.14255 15.7259L3.14263 15.7018C3.14051 16.0524 3.20764 16.3999 3.34017 16.7244L7.04334 15.2123ZM7.14259 15.7139V6.38053H3.14259V15.7139H7.14259ZM7.14259 6.38053C7.14259 7.1158 6.5518 7.71387 5.80392 7.71387V3.71387C4.34005 3.71387 3.14259 4.90927 3.14259 6.38053H7.14259ZM5.80392 7.71387H17.8146V3.71387H5.80392V7.71387ZM17.8146 7.71387C17.0636 7.71387 16.4759 7.10331 16.4759 6.38053H20.4759C20.4759 4.91776 19.2963 3.71387 17.8146 3.71387V7.71387ZM16.4759 6.38053V15.7139H20.4759V6.38053H16.4759ZM16.4759 15.7139C16.4759 14.9786 17.0667 14.3805 17.8146 14.3805V18.3805C19.2785 18.3805 20.4759 17.1851 20.4759 15.7139H16.4759ZM17.8146 14.3805H15.8093V18.3805H17.8146V14.3805Z" fill="white" mask="url(#path-2-inside-1)"/>
</svg>
