<svg width="28" height="28" viewBox="0 0 28 28" fill="none" xmlns="http://www.w3.org/2000/svg">
<path d="M23.4956 21.5994C20.3952 27.1196 13.6695 29.4673 7.80734 27.0757C1.94517 24.684 -1.21873 18.3014 0.427276 12.1879C2.07328 6.07429 8.01404 2.14308 14.2846 3.01799C15.3787 3.1621 16.2965 3.91417 16.6529 4.95865C17.0092 6.00313 16.7425 7.15933 15.9646 7.94214L13.5749 10.327C12.4431 11.4588 12.4431 13.2938 13.5749 14.4256C14.7067 15.5574 16.5417 15.5574 17.6735 14.4256L20.0584 12.0408C20.8729 11.217 22.102 10.962 23.177 11.3939L22.8294 12.9001C22.7836 13.1033 22.7545 13.31 22.7425 13.518C22.7264 13.7287 22.7296 13.9404 22.7522 14.1504L23.4956 21.5994Z" fill="#955BA5"/>
<path d="M9.38045 5.78695C9.14148 5.78776 8.93787 5.61362 8.90162 5.37741C8.86538 5.14121 9.0074 4.91403 9.23562 4.84315C10.8029 4.35399 12.4596 4.22057 14.0849 4.4526C14.3371 4.50139 14.507 4.73913 14.4713 4.99353C14.4357 5.24792 14.2071 5.42986 13.9512 5.4075C12.4668 5.19594 10.954 5.31748 9.52238 5.76329C9.47654 5.77831 9.42868 5.78628 9.38045 5.78695Z" fill="#B49ACA"/>
<path fill-rule="evenodd" clip-rule="evenodd" d="M28.0001 5.74024C28.001 6.15199 27.9172 6.55953 27.7539 6.93748H27.749C27.4137 6.94753 27.0786 6.9085 26.7546 6.82162C25.954 6.60351 25.2553 6.1115 24.7801 5.43128C24.5198 4.94055 24.2074 4.47927 23.8484 4.05542C23.5722 3.80097 23.2255 3.63604 22.8539 3.58231H22.8491C23.7323 2.22129 24.8639 1.03883 26.1849 0.0967952C26.5566 -0.188032 27.0297 0.193347 26.9284 0.676105C26.4746 2.78576 28.0001 3.72714 28.0001 5.74024Z" fill="#F0C419"/>
<path fill-rule="evenodd" clip-rule="evenodd" d="M27.7491 6.93721C27.4718 7.58057 26.9711 8.10186 26.3394 8.4048C25.5593 8.78456 24.6478 8.78456 23.8677 8.4048C22.8478 7.9097 22.2022 6.87366 22.207 5.73997C22.2269 4.9766 22.4484 4.23209 22.8491 3.58203H22.8539C23.2255 3.63576 23.5722 3.80069 23.8484 4.05514C24.2074 4.47899 24.5198 4.94027 24.7801 5.431C25.2553 6.11122 25.954 6.60323 26.7546 6.82135C27.0787 6.90822 27.4137 6.94726 27.7491 6.93721Z" fill="#56595E"/>
<path d="M27.4646 13.5177H22.7432C22.7552 13.3097 22.7842 13.103 22.8301 12.8998L23.1776 11.3935L23.868 8.40527C24.6481 8.78504 25.5596 8.78504 26.3397 8.40527L27.3728 12.8998C27.4202 13.1029 27.4509 13.3096 27.4646 13.5177Z" fill="#7F8C8D"/>
<path d="M27.4546 14.15L26.1657 27.0396C26.11 27.5847 25.6515 27.9995 25.1036 28.0003C24.5549 28.0017 24.095 27.5857 24.0415 27.0396L23.496 21.599L22.7526 14.15C22.73 13.9399 22.7268 13.7282 22.7429 13.5176H27.4643C27.478 13.7283 27.4747 13.9398 27.4546 14.15Z" fill="#805333"/>
<path d="M8.44811 11.4757C9.6479 11.4757 10.6205 10.5031 10.6205 9.30327C10.6205 8.10348 9.6479 7.13086 8.44811 7.13086C7.24832 7.13086 6.2757 8.10348 6.2757 9.30327C6.2757 10.5031 7.24832 11.4757 8.44811 11.4757Z" fill="#F0C419"/>
<path d="M5.55028 18.6739C6.75007 18.6739 7.7227 17.7013 7.7227 16.5015C7.7227 15.3017 6.75007 14.3291 5.55028 14.3291C4.35049 14.3291 3.37787 15.3017 3.37787 16.5015C3.37787 17.7013 4.35049 18.6739 5.55028 18.6739Z" fill="#FF5364"/>
<path d="M10.3783 24.6212C11.5781 24.6212 12.5508 23.6486 12.5508 22.4488C12.5508 21.249 11.5781 20.2764 10.3783 20.2764C9.17856 20.2764 8.20593 21.249 8.20593 22.4488C8.20593 23.6486 9.17856 24.6212 10.3783 24.6212Z" fill="#7ED09E"/>
<path d="M17.1363 22.2071C18.3361 22.2071 19.3087 21.2345 19.3087 20.0347C19.3087 18.8349 18.3361 17.8623 17.1363 17.8623C15.9365 17.8623 14.9639 18.8349 14.9639 20.0347C14.9639 21.2345 15.9365 22.2071 17.1363 22.2071Z" fill="#2FA8CC"/>
</svg>
