<svg width="46" height="45" viewBox="0 0 46 45" fill="none" xmlns="http://www.w3.org/2000/svg">
<g clip-path="url(#clip0)">
<path d="M34.7923 19.75H32.3637C32.2209 19.75 32.078 19.8929 32.0066 20.0357L31.0066 26.3214C31.0066 26.4643 31.078 26.5357 31.2209 26.5357H32.5066C32.6494 26.5357 32.7209 26.4643 32.7209 26.3214L33.0066 24.5357C33.0066 24.3928 33.1494 24.25 33.3637 24.25H34.1494C35.7923 24.25 36.7209 23.4643 36.9352 21.8929C37.078 21.25 36.9352 20.6786 36.6494 20.3214C36.2209 19.9643 35.578 19.75 34.7923 19.75ZM35.078 22.1071C34.9352 22.9643 34.2923 22.9643 33.6494 22.9643H33.2209L33.5066 21.3214C33.5066 21.25 33.578 21.1786 33.7209 21.1786H33.8637C34.2923 21.1786 34.7209 21.1786 34.9352 21.4643C35.078 21.5357 35.078 21.75 35.078 22.1071Z" fill="#139AD6"/>
<path d="M17.2923 19.75H14.8637C14.7209 19.75 14.578 19.8929 14.5066 20.0357L13.5066 26.3214C13.5066 26.4643 13.578 26.5357 13.7209 26.5357H14.8637C15.0066 26.5357 15.1494 26.3928 15.2209 26.25L15.5066 24.5357C15.5066 24.3928 15.6495 24.25 15.8637 24.25H16.6494C18.2923 24.25 19.2209 23.4643 19.4352 21.8929C19.578 21.25 19.4352 20.6786 19.1494 20.3214C18.7209 19.9643 18.1495 19.75 17.2923 19.75ZM17.578 22.1071C17.4352 22.9643 16.7923 22.9643 16.1494 22.9643H15.7923L16.078 21.3214C16.078 21.25 16.1494 21.1786 16.2923 21.1786H16.4352C16.8637 21.1786 17.2923 21.1786 17.5066 21.4643C17.578 21.5357 17.6494 21.75 17.578 22.1071Z" fill="#263B80"/>
<path d="M24.6495 22.0354H23.5066C23.4352 22.0354 23.2923 22.1069 23.2923 22.1783L23.2209 22.5354L23.1495 22.3926C22.8638 22.0354 22.3638 21.8926 21.7923 21.8926C20.5066 21.8926 19.3638 22.8926 19.1495 24.2497C19.0066 24.964 19.2209 25.6069 19.5781 26.0354C19.9352 26.464 20.4352 26.6068 21.078 26.6068C22.1495 26.6068 22.7209 25.964 22.7209 25.964L22.6495 26.3211C22.6495 26.464 22.7209 26.5354 22.8638 26.5354H23.9352C24.078 26.5354 24.2209 26.3926 24.2923 26.2497L24.9352 22.2497C24.8637 22.1783 24.7209 22.0354 24.6495 22.0354ZM23.0066 24.3211C22.8638 24.964 22.3638 25.464 21.6495 25.464C21.2923 25.464 21.0066 25.3211 20.8638 25.1783C20.7209 24.964 20.6495 24.6783 20.6495 24.3211C20.7209 23.6783 21.2923 23.1783 21.9352 23.1783C22.2923 23.1783 22.5066 23.3211 22.7209 23.464C22.9352 23.6783 23.0066 24.0354 23.0066 24.3211Z" fill="#263B80"/>
<path d="M42.0779 22.0374H40.9351C40.8637 22.0374 40.7208 22.1088 40.7208 22.1802L40.6494 22.5374L40.5779 22.3945C40.2922 22.0374 39.7922 21.8945 39.2208 21.8945C37.9351 21.8945 36.7922 22.8945 36.578 24.2517C36.4351 24.966 36.6494 25.6088 37.0065 26.0374C37.3637 26.4659 37.8637 26.6088 38.5065 26.6088C39.5779 26.6088 40.1494 25.9659 40.1494 25.9659L40.0779 26.3231C40.0779 26.4659 40.1494 26.5374 40.2922 26.5374H41.3637C41.5065 26.5374 41.6494 26.3945 41.7208 26.2517L42.3637 22.2517C42.2922 22.1802 42.2208 22.0374 42.0779 22.0374ZM40.4351 24.3231C40.2922 24.966 39.7922 25.466 39.0779 25.466C38.7208 25.466 38.4351 25.3231 38.2922 25.1802C38.1494 24.966 38.0779 24.6802 38.0779 24.3231C38.1494 23.6802 38.7208 23.1802 39.3637 23.1802C39.7208 23.1802 39.9351 23.3231 40.1494 23.466C40.4351 23.6802 40.5065 24.0374 40.4351 24.3231Z" fill="#139AD6"/>
<path d="M30.8638 22.0352H29.6495C29.5066 22.0352 29.4352 22.1066 29.3638 22.178L27.7923 24.6066L27.0781 22.3209C27.0066 22.178 26.9352 22.1066 26.7209 22.1066H25.5781C25.4352 22.1066 25.3638 22.2494 25.3638 22.3923L26.6495 26.178L25.4352 27.8923C25.3638 28.0352 25.4352 28.2495 25.5781 28.2495H26.7209C26.8638 28.2495 26.9352 28.178 27.0066 28.1066L30.9352 22.4637C31.1495 22.2494 31.0066 22.0352 30.8638 22.0352Z" fill="#263B80"/>
<path d="M43.4353 19.9658L42.4353 26.3944C42.4353 26.5372 42.5067 26.6087 42.6496 26.6087H43.6496C43.7924 26.6087 43.9353 26.4658 44.0067 26.3229L45.0067 20.0372C45.0067 19.8944 44.9353 19.8229 44.7924 19.8229H43.6496C43.5782 19.7515 43.5067 19.8229 43.4353 19.9658Z" fill="#139AD6"/>
<path d="M8.22088 17.6071C7.72088 17.0357 6.79231 16.75 5.50659 16.75H1.93516C1.72088 16.75 1.50659 16.9643 1.43516 17.1786L0.0065918 26.5357C0.0065918 26.75 0.149449 26.8929 0.292306 26.8929H2.50659L3.07802 23.3929V23.5357C3.14945 23.3214 3.36373 23.1071 3.57802 23.1071H4.64945C6.72088 23.1071 8.29231 22.25 8.79231 19.8929C8.79231 19.8214 8.79231 19.75 8.79231 19.6786C8.72088 19.6786 8.72088 19.6786 8.79231 19.6786C8.86374 18.75 8.72088 18.1786 8.22088 17.6071Z" fill="#263B80"/>
<path d="M8.72081 19.6777C8.72081 19.7492 8.72081 19.8206 8.72081 19.892C8.22081 22.3206 6.64938 23.1063 4.57795 23.1063H3.50652C3.29224 23.1063 3.07795 23.3206 3.00652 23.5349L2.29224 27.892C2.29224 28.0349 2.36366 28.1777 2.57795 28.1777H4.43509C4.64938 28.1777 4.86367 28.0349 4.86367 27.8206V27.7492L5.22081 25.5349V25.392C5.22081 25.1777 5.43509 25.0349 5.64938 25.0349H5.93509C7.72081 25.0349 9.14938 24.3206 9.50652 22.1777C9.64938 21.3206 9.57795 20.5349 9.14938 20.0349C9.07795 19.892 8.93509 19.7492 8.72081 19.6777Z" fill="#139AD6"/>
<path d="M8.22098 19.4643C8.14955 19.4643 8.07812 19.3929 8.0067 19.3929C7.93527 19.3929 7.86384 19.3929 7.79241 19.3214C7.5067 19.25 7.22098 19.25 6.86384 19.25H4.07812C4.0067 19.25 3.93527 19.25 3.86384 19.3214C3.72098 19.3929 3.64955 19.5357 3.64955 19.6786L3.07812 23.3929V23.5357C3.14955 23.3214 3.36384 23.1071 3.57812 23.1071H4.64955C6.72098 23.1071 8.29241 22.25 8.79241 19.8929C8.79241 19.8214 8.79241 19.75 8.86384 19.6786C8.72098 19.6071 8.64955 19.5357 8.5067 19.5357C8.29241 19.4643 8.29241 19.4643 8.22098 19.4643Z" fill="#232C65"/>
</g>
<defs>
<clipPath id="clip0">
<rect width="45" height="45" fill="white" transform="translate(0.0065918)"/>
</clipPath>
</defs>
</svg>
